<?xml version="1.0" encoding="UTF-8"?>
<svg id="Layer_1" data-name="Layer 1" xmlns="http://www.w3.org/2000/svg" viewBox="0 0 637.19 80.9">
  <defs>
    <style>
      .cls-1 {
        fill: #0a92cf;
      }

      .cls-1, .cls-2, .cls-3, .cls-4 {
        fill-rule: evenodd;
      }

      .cls-2 {
        fill: #fff;
      }

      .cls-3 {
        fill: none;
      }

      .cls-4 {
        fill: #231f20;
      }
    </style>
  </defs>
  <path class="cls-1" d="M30.84,0h24.44v.83c8.67-.16,22.13,3.68,24.73,8.81.58,1.15-.58,1.88,0,3.03.88,1.73,3.97-.47,4.07,3.85-.46.52-.77,1.6-.58,1.93,1.06.91,2.62,1.09,3.2,2.48.26.36.26.68.29,1.38-1,.72-1.87,1.17-2.04,2.75,1.41.81,2.35,1.6,2.33,3.85-.92.48-1.66.89-2.04,1.93h.29c.62.57,1.4,1.1,2.04,1.65.96,11.04.78,27.05-4.07,34.4-2.7,4.09-6.98,7.04-11.64,9.36-3.54,1.76-8.99,4.05-14.55,3.03l-.29-.83c-1.15-1.72-.11-10.21.29-11.83.64-2.58-.17-4.86.58-7.15,2.13-6.53,5.45-11.95,9.31-16.79,2.23-2.79,6.47-5.81,9.6-7.71,1.5-.91,4.27-1.65,4.95-3.3h-.58c-1.31-.75-8.77,2.56-10.18,3.3-.78.41-2.16,2.03-3.2,1.38-.22-.3-.17-.26-.29-.83,2.91-2.5,6.02-5.32,9.6-7.15l1.45-.28,1.45-1.65c1.56-.71,2.2.41,2.91-1.1-.65-.21-1.58-.28-2.62-.28-1.05,1.32-2.23.72-4.07,1.38-3.61,1.27-7.42,5.13-11.35,5.5v-1.1c.92-.65,1.42-1.83,2.33-2.48,1.75-1.24,3.41-2.12,5.24-3.3.59-.38,1.09-1.31,1.75-1.65,1.79-.92,4.78-1.46,5.24-3.58-7.38-.07-11.86,7.06-17.75,7.71v-.55h.29c1.06-2.31,6.5-6.82,8.73-8.26,1.46-.94,3.84-1.54,4.66-3.03.22-.3.17-.26.29-.83-3.4.04-4.82,1.92-6.98,3.03-7.18,3.68-13.29,8.33-18.04,14.31-1.1,1.39-5.98,5.12-5.24,7.71.22.76,1.13,1.34,1.45,1.93,1.24,2.24,2.61,5.21,3.49,7.43,3.01,7.58,4.36,19.71,3.2,30-.72.42-.66.63-1.75.83v.83h-14.55v-.83h-.87l-.58-.83c-1.22-1.48-.61-9.09-.58-11.83.05-5.61,1.89-11.34,3.2-15.69l.29-2.75c1.43-3.27,4.65-6.45,4.95-10.46-1.05-1.02-1.43-2.38-2.33-3.58-1.28-1.7-2.98-3.22-4.36-4.95-3.38-4.22-9.44-7.77-14.26-10.73-2.7-1.66-5.36-4.32-9.6-4.4v.83c5.7,3.06,9.71,7.2,14.26,11.28-.18.48-.06.27-.29.55v.28c-.51-.17-.28-.05-.58-.28-5.56-1.62-9.63-7.53-16.88-7.71v.83c5.46,3.08,10.3,6.25,14.55,10.46-.18.48-.06.27-.29.55-.31.21-.28.17-.87.28-2.54-2.24-11.98-6.78-16.58-6.88v.28h-.29c.18.48.06.27.29.55.75.51,1.59.08,2.62.55l1.45,1.65c3.1,1.93,10.42,4.44,11.06,8.26h-.29v.28c-4.53-1.56-8.03-5.06-13.67-5.23-.25.33-.24.31-.58.55v.28h.29c.78.97,1.42.47,2.62,1.1l1.16,1.38c2.58,1.75,5.09,3.18,7.56,4.95,8.19,5.85,16.49,23.76,13.38,39.35l-.87.28c-1.9,1.11-10.57-1.03-12.22-1.65-.61-.23-1.21-1.11-1.75-1.38C3.6,69.43,3,62.31.87,45.13h-.87v-9.63h.87l.58-3.3c.74-.42,1.93-1.16,2.33-1.93-1.41-.72-2.08-1.11-2.04-3.3,1.11-.64,2.17-1.45,2.33-3.03l-2.04-1.65c.02-.92.14-1.25.29-1.93,1.22-.57,2.2-1.33,3.49-1.93-.49-1.13-.83-1.94-.87-3.58.46-.3.48-.82.87-1.1,1.58-1.12,3.06.18,3.2-2.48-1.05-2.05,2.43-3.8,3.78-4.68C17.66,3.46,23.39,1.73,30.84.83v-.83Z"/>
  <path class="cls-4" d="M523.71,11.28c5.55-.1,12.41-.83,17.46.28,7.99,1.76,14.58,4.21,20.95,7.15.39,3.21.29,7.36.29,11.01l-.87.28v.28h-.29v-.28c-2.28-.64-5.17-3.98-7.27-5.23-1.66-.99-3.5-1.22-5.24-2.2-7.09-4.01-33.41-7.24-33.46,4.68h.29c1.77,4.85,8.01,5.9,13.38,7.43.89.25,2.08,1.11,2.91,1.38l4.07.55c7.55,2.36,16.62,4.39,23.28,7.71,2.92,1.46,4.53,2.04,6.4,4.4.46.58,1.44.93,1.75,1.65l.29,2.75c.2.73.92,1.76.58,3.03-.99,3.7-2.44,7.12-5.24,9.08-10.72,7.51-36.6,8.06-50.63,2.75-3.81-1.44-10.93-3.16-12.51-6.33-.28-.39-.28-.9-.29-1.65,2.52-1.63,3.69-5.65,7.56-5.78,4.21,4.26,19.31,10.41,28.8,8.53,2.81-.09,5.63-.18,8.44-.28,2.18-.59,6.07-1.96,7.27-3.58.63-.85.73-1.76,1.45-2.48.02-.8.01-1.5-.29-1.93-1.35-3.67-4.92-3.79-8.73-5.23-9.27-3.51-20.93-4.59-30.26-8.26-4.57-1.8-9.65-4.79-12.22-8.53-3.92-5.7.43-13.45,4.36-15.96,3.24-2.07,7.51-3.23,11.64-4.4,1.59-.45,4.67,0,6.11-.83Z"/>
  <path class="cls-4" d="M117.25,11.56h27.35c6.38,0,11.67.52,16.29,1.65l2.91.28c9.81,3.96,14.63,8.57,18.04,18.71,1.37,4.06,2.37,11.76.58,16.51-1.73,4.59-3.34,8.35-6.11,11.83-1.35,1.7-3.38,2.87-5.24,4.13-10.16,6.88-18.2,6.6-35.5,6.6-7.22,0-15.97,1.07-18.62-3.3-2.04-3.35-.87-11.42-.87-16.24V12.38c.42-.23.83-.5,1.16-.83Z"/>
  <path class="cls-4" d="M637.19,11.56v8.53h-25.6c-.25.4-.53.79-.87,1.1v49.26c-.42.23-.83.5-1.16.83h-11.93l-.29-.83c-.93-1.45-.29-8.41-.29-10.73v-27.79c0-2.19.61-10.07-.29-11.28-.77-1.03-4.62-.55-6.4-.55h-18.91c-.3-.22-.08-.1-.58-.28v-.55c-.88-1.3-.33-5.27-.29-7.15l.87-.28c1.02-.6,3.69-.28,5.24-.28h60.52Z"/>
  <path class="cls-3" d="M11.06,13.76v.55c.68-.05.82-.05,1.16-.28l-1.16-.28Z"/>
  <path class="cls-3" d="M77.39,13.76c.11.72-.22.36.58.55v-.55h-.58Z"/>
  <path class="cls-3" d="M6.98,18.71v.55h.87v-.28l-.87-.28Z"/>
  <path class="cls-3" d="M81.76,18.71c-.3.22-.08.1-.58.28v.28h.87c-.18-.48-.06-.27-.29-.55Z"/>
  <path class="cls-4" d="M216.18,18.99c17.27-.22,26.25,5.07,32,15.69,2.02,3.73,4.16,10.73,2.33,16.24-.9,2.71-1.52,5.6-2.91,7.98-4.13,7.06-11.77,11.16-20.95,13.48-5.2,1.32-12.5-.02-16.29-1.1-11.37-3.23-16.8-7.24-20.37-17.89-.8-2.39-2.16-7.48-1.16-11.28.31-1.18,1.12-2.77,1.45-3.85l.29-2.48c2.62-6.01,7.97-11.2,13.97-14.03l2.91-.55c.85-.33,1.86-1.12,2.91-1.38,2.07-.51,4.3.11,5.82-.83Z"/>
  <path class="cls-4" d="M351.76,18.99c5.42-.14,14.66,1.04,18.33,2.75.57.27,1.38,1.13,2.04,1.38,2.26.85,5.59,1.72,6.4,3.85.89,1.32.32,8.52.29,10.73-.61.31-.53.39-1.45.55-4.17-6.04-19.91-14.58-31.42-9.91-4.95,2.01-9.34,6.81-10.77,12.11-3.11,11.52,5.55,20.68,13.97,22.57h4.36c6.57,0,15.32-1.32,16.29-6.05.79-1.11.28-4.59,0-5.78-3.79-1.2-10.42-.3-14.84-.28-.5-.47-.81-.41-1.16-1.1-.96-1.37-.34-6.21,0-7.71,5.24-1.26,13.26-.55,19.49-.55,2.85,0,6.47-.26,8.44.55.58,4.54.69,11.57-.29,15.69-.34,1.44.3,3.01-.29,4.13-1.1,2.08-5.99,4.74-8.44,5.78-2.24.95-4.98,2.62-7.56,3.3-13.98,3.69-27.4-.32-35.21-6.6-5.41-4.35-9.88-16.7-6.98-26.42,1.84-6.19,6.44-11.51,11.64-14.58,2.02-1.2,7.17-3,9.6-3.58,2.49-.59,5.76.35,7.56-.83Z"/>
  <path class="cls-2" d="M131.22,19.81c-1.96,2.09-1.16,8.01-1.16,11.83v30.55c.42.23.83.5,1.16.83,9.74.09,22.72,1.21,28.8-2.48,10.76-6.53,12.27-24.94,4.07-35.22-5.44-6.83-20.17-5.61-32.88-5.5Z"/>
  <path class="cls-4" d="M438.76,19.81c2.75.03,12.68-.73,14.26.28.9.58.88,2.39,1.45,3.3,2.08,3.33,3.19,6.98,4.95,10.73,3.89,8.31,8,16.69,11.93,25.32,1.28,2.81,5.45,8.49,4.95,11.56-3.25,1.03-8.96.3-12.8.28-.3-.22-.08-.1-.58-.28-1.04-2.35-4.64-11.4-6.69-12.11-1.16-.7-4.39-.28-6.11-.28-5.3,0-11.81-.63-16.58.28-1.16,2.03-2.8,4.5-3.78,6.6-.87,1.86-.97,4.75-2.91,5.5-1.36.83-10.5.34-12.22,0-.18-.48-.06-.27-.29-.55.47-1.84,1.88-3.36,2.62-4.95,1.47-3.19,2.42-5.84,3.78-9.08.74-1.75,2.4-3.81,3.2-5.5,3.01-6.38,5.55-12.49,8.73-18.44l.29-1.93c.35-.83,1.4-1.64,1.75-2.48,1.3-3.15,2.34-5.71,4.07-8.26Z"/>
  <path class="cls-4" d="M258.95,20.09c2.23-.04,9.44-.53,10.77.28,2.63.92,4.52,4.31,6.11,6.33.94,1.19,2.55,2.12,3.49,3.3,2.86,3.6,5.87,6.82,8.73,10.46,1.42,1.8,3.82,3.15,5.24,4.95,1.51,1.92,5.94,8.48,8.44,8.81.93-2.66.29-7.27.29-10.46v-22.57c2.03-1.75,7.8-1.16,11.64-1.1.5.47.81.41,1.16,1.1,1.09,1.66.29,10.77.29,13.48v35.77c-.42.23-.83.5-1.16.83-2.23.04-9.44.53-10.77-.28-2.18-.79-5.52-5.82-6.98-7.71-1.3-1.68-3.35-3.02-4.66-4.68-3.96-5-8.24-9.62-12.51-14.31-1.86-2.05-3.33-4.32-5.24-6.33-.46-.49-1.89-1.79-2.33-1.38-1.34,1.21-.58,6.53-.58,8.81v25.04c-.23.28-.1.08-.29.55h-.58c-1.33.82-9.97.33-11.64,0v-.55c-.98-1.49-.29-9.39-.29-11.83v-26.69c0-3.82-.63-9.32.87-11.83Z"/>
  <path class="cls-2" d="M216.47,27.24c-1.19.83-3.35.64-4.66,1.38-4.08,2.29-7,5.7-8.73,10.18-1.02,2.63-1.04,8.59-.29,11.56,1.77,7,5.19,12.2,12.22,14.03h2.91c1.71.34,4.46.48,6.4,0,9.74-2.42,15.95-14.32,11.64-25.59l-.58-2.75c-3.3-6.17-8.72-8.94-18.91-8.81Z"/>
  <path class="cls-2" d="M445.45,32.2c-2.5,3.83-3.54,8.38-5.82,12.66-.57,1.06-2.34,2.77-1.75,4.13.38.68-.12.19.58.55,1.45.88,12.09.36,13.97,0,.39-2.21-.98-3.77-1.75-5.5-1.76-3.97-2.47-7.93-4.36-11.83h-.87Z"/>
  <path class="cls-4" d="M393.08,41.28c6.57-.03,14.64-.83,20.66.28.66,1.84.31,5.11.29,7.43-.23.28-.1.08-.29.55h-.58c-.9.55-3.26.27-4.66.28h-11.64c-1.76,0-4.37.28-4.95-.83v-6.88c.42-.23.83-.5,1.16-.83Z"/>
</svg>