<?xml version="1.0" encoding="UTF-8"?>
<svg id="Layer_1" data-name="Layer 1" xmlns="http://www.w3.org/2000/svg" viewBox="0 0 4338.05 4561.02">
  <defs>
    <style>
      .cls-1 {
        fill: #fff;
      }

      .cls-1, .cls-2 {
        fill-rule: evenodd;
      }

      .cls-2 {
        fill: #207fc3;
      }
    </style>
  </defs>
  <path class="cls-2" d="M1452.05.88h41c8.22,1.82,18.73,3.71,27,3,41.91-3.61,92.56-3,139-3h1135c9.92,2.19,27.23,3.93,40,2,11.81-1.79,34.01-4.91,47-1,14.9,4.49,19.47,15.05,30,23,9.61,7.25,20.8,15.47,28,25,3.11,4.12,5.95,8.94,10,12,14.42,10.9,27.97,25.72,39,40,2.62,3.39,7.52,5.37,11,8,11.15,8.43,20.33,21.84,30,32l17,15c6.24,8.25,14.96,14.01,21,22,2.09,2.77,3.29,5.96,6,8,12.9,9.71,25.27,21.13,35,34l17,15c10.84,12.17,20.79,24.15,34,34,2.71,2.02,3.9,5.25,6,8,5.13,6.72,14.11,11.81,20,18,4.16,4.37,7.18,10.35,12,14,8.13,6.14,13.15,15.07,21,21,17.3,13.08,34,30.61,47,48,6.46,8.64,18.43,13.31,25,22,6.16,8.15,13.9,15.82,22,22,7.09,5.4,11.72,13.48,19,19,8.67,9.33,17.33,18.67,26,28,10.33,7.81,17.95,17.95,27,27,11,10.33,22,20.67,33,31,84.45,85.22,169.16,170.16,254,255,15.69,15.69,30.2,33.52,48,47,3.67,4.33,7.33,8.67,11,13,8.47,6.43,13.84,15.82,22,22,5.12,3.87,11.18,7.95,15,13,8.52,11.28,19.04,21.11,29,31l7,5c1.96,2.39,2.17,5.48,4,8,6,5,12,10,18,15l5,7c17.55,13.55,39.63,35.38,53,53,8.34,10.99,20.56,13.07,25,29,3.22,11.55,1.26,19.96,1,31-.48,20.27,0,44.93,0,68v910c.33,143.99.67,288.01,1,432-2.28,8.49-9.47,12.01-14,18-8.81,11.65-19.78,19.87-30,30-4.1,4.06-7.49,10.52-12,14-4.76,3.68-10.42,7.26-14,12-9.06,11.97-21.27,20.69-32,31-5,6-10,12-15,18-4.78,3.63-10.42,7.28-14,12-10.62,14.02-24.94,28.37-39,39-9.54,7.21-15.46,20.03-25,27-2.57,1.88-5.43,2.13-8,4-2.99,2.18-4.25,6.66-7,9-17.28,14.7-29.84,34.15-48,48-5.52,4.21-9.36,10.81-14,16l-15,12c-9.86,9.81-18.17,21.17-28,31-24.73,24.73-53.86,46.87-75,75-6.58,8.75-17.17,15.33-25,23-7.33,8-14.67,16-22,24-2.8,2.1-6.87,3.32-9,6-13.49,16.95-30.75,29.99-45,46-29.01,32.61-62.15,61.22-93,92-3.19,3.19-5.24,7.36-8,11-2.05,2.71-5.23,3.9-8,6-8.4,6.35-16.6,16.53-23,25-4.65,6.16-11.73,10.33-18,15-5.14,3.83-8.07,9.84-12,15l-8,6c-5.09,4.99-9.43,12.71-15,17-3.85,2.96-9.09,5.19-12,9-6.54,8.58-17.63,22.67-26,29-3.11,2.35-6.7,3.96-9,7-10.03,13.26-23.78,25.92-37,36l-5,7c-7.24,8.12-15.25,14.08-22,23l-14,12c-13.84,13.83-26.43,27.79-42,40-2.98,2.34-4.67,6.92-7,10-6.55,8.65-20.82,20.82-29,29-30.83,30.83-62.18,61.16-93,92l-17,19c-4.85,3.61-10.4,6.25-14,11-3.47,4.58-8.05,12.22-13,15-7.68,4.31-24.99,2-36,2h-1394c-7.65,0-18.15,1.14-23-2-7.15-2.36-8.59-8.04-13-13-8.88-9.99-19.76-17.09-28-28-6.98-9.24-18.03-15.64-26-24-14.49-15.21-28.19-31.11-43-46-10.94-10.99-22.6-21.48-35-31-1.9-1.46-2.4-4.21-4-6-8.54-9.56-17.56-18.04-26-28-3.03-3.58-8.63-5.66-12-9-16.13-15.99-32.84-32.1-47-50-2.12-2.68-6.21-3.9-9-6-6.71-5.04-11.1-12.67-18-18l-8-10c-10.82-10.86-21.48-21.84-34-31-9.56-6.99-16.68-19.5-25-28-4.07-4.16-8.27-7.43-13-11-12.01-9.08-21.45-23.24-32-34l-15-13c-2.27-3-3.5-6.25-6-9-11.68-12.86-28.4-22.1-39-36-5.89-7.73-14.17-13.46-20-21-1.07-1.38-.68-2.97-2-4-7.06-5.53-14.26-10.25-20-17-19.72-23.16-41.48-47.72-66-66l-16-19c-29.75-22.54-52.81-52.81-79-79-8.48-8.48-17.22-15.71-27-23-3.76-2.8-5.88-7.49-9-11l-18-17c-2.39-3.19-3.9-7.61-7-10-2.4-1.85-6.1-2.74-8-5-3.69-4.39-6.02-9.01-10-13-43.16-43.19-87.02-85.63-130-129-43.29-43.68-86.49-87.53-130-131-2.55-2.54-6.08-3.8-9-6-11.63-8.78-21.53-22.9-30-35-1.47-2.11-5.13-4.36-6-7l1-25c-1.67-13.26,0-35.4,0-52v-1278c0-13.93-1.07-30.76,1-43l-1-12c.36-11.95,1.17-26.1,5-35,3.65-8.48,13.8-14.67,20-21,11.41-11.63,22.48-23.49,34-35,7.16-7.16,16.93-12.86,23-21,10.03-13.45,23.04-22.7,34-35,11.5-12.91,23.11-25.43,37-36,5.94-4.52,9.31-13.16,15-18,7.64-6.5,20.2-15.23,26-23,2.78-3.72,4.36-8.24,8-11,14-10.62,24.85-23.6,37-36,12.79-13.06,26.74-24.33,38-39,6.76-8.81,18.54-14.62,26-23,15.02-16.88,30.93-35.32,49-49l19-21c3.71-3.53,8.91-5.91,12-10,2.61-3.45,4.62-7.44,8-10,2.44-1.84,5.2-2.63,7-5,8.1-10.68,17.67-18.67,27-28,9.36-9.36,17.26-18.88,28-27,3.38-2.55,5.4-6.55,8-10,6.5-8.6,20.22-20.36,29-27,3.04-2.3,4.65-5.89,7-9,5.99-7.93,14.59-13.92,21-22,3.88-4.89,10.95-9.17,16-13,6.76-5.13,11.52-13.3,19-19,14.34-10.93,23.65-29.12,38-40,12.51-9.48,22.27-21.73,33-33,10.74-11.28,23.5-20.45,33-33,4.47-5.91,12.26-9.43,17-15,4.75-5.58,9.2-13.64,15-18,3.32-2.5,7.52-3.75,10-7,9.51-12.46,21.55-24.48,34-34,3.15-2.41,3.95-7.63,7-10,4.5-3.5,9.62-5.5,13-10,5.3-7.05,11.06-14.75,18-20,3.11-2.35,6.7-3.96,9-7,3.64-4.82,7.29-10.36,12-14,6.5-5.02,11.01-11.56,17-17l4-2c22.53-26.48,48.45-50.46,73-75,10.56-10.56,21.78-20.06,31-32,5.41-7,15.59-11,21-18,15.31-19.83,34.97-37.81,54-54,6.07-5.17,11.64-16.57,18-21,6.13-4.27,14.1-5.4,20-10Z"/>
  <path class="cls-1" d="M2102.05,148.88c-3.59,2.14-12.64,1-18,1h-43c-18.27.37-32.22,5.31-47,9-15,.67-30,1.33-45,2-10.16,2.61-21.26,5.36-33,8-14.06,3.17-26.85-1.69-40,2-6.68,1.87-13.67,6.08-21,8-8.39,2.2-16.49.15-24,3-4.43,1.68-8.8,5.66-14,7h-19c-7.82,1.91-14.87,5.93-22,8-8.89,2.58-17.8,1.07-27,4-4.92,1.57-8.47,6.42-13,8l-19,1-13,8-18,3c-3.68,1.54-7.33,5.68-11,7l-20,2c-3.45,1.26-6,5.45-9,7-5.25,2.71-11.8,1.04-18,3-5.77,1.83-9.64,7.34-15,9l-18,1c-2.25,1.05-4.02,4.7-6,6-3.98,2.61-9.35,1.99-14,4-4.04,1.74-7.21,6.32-11,8l-18,3c-2.29,1.15-4.8,4.65-7,6-4.16,2.55-9.11,1.92-14,4-3.54,1.51-6.61,5.48-10,7l-13,3c-2.65,1.09-4.76,4.6-7,6-4.3,2.69-9.88,2.31-14,5-1.95,1.27-3.97,4.89-6,6l-15,3c-2.14.96-3.24,3.83-5,5-4.48,2.98-10.5,2.94-15,6-1.54,1.05-1.68,3.83-3,5-4.42,3.89-12.59,1.91-18,5-7.43,4.25-14.84,11.72-22,16l-11,3c-7.66,3.96-15.98,11.32-23,16-3.04,2.03-6.4,1.38-10,3-5.67,2.55-12.47,7.31-18,11-3.04,2.03-5.81,6.08-9,8l-9,3c-7.02,4.54-13.97,11.59-21,16-3.11,1.95-7.11,1.79-10,4l-5,7-12,4c-6.58,4.23-11.86,11.81-18,16-3.63,2.48-8.43,2.55-12,5-10.43,7.16-19.65,17.96-30,25-3.32,2.26-7.09,2.46-10,5-8.57,7.47-16.57,17.6-26,24-9.97,6.77-19.44,11.83-29,19l-10,11c-6.07,4.59-12,9.4-17,15-1.59,1.78-2.08,4.59-4,6-4.01,2.96-9.86,2.92-14,6-3.49,2.59-4.45,8.31-7,12-3.16,4.56-8.35,6.74-13,10l-10,12c-29.02,21.32-55.23,48.48-77,77-2.69,3.52-8.18,4.69-11,8-7.16,8.41-13.35,17.18-20,26l-11,10c-2.54,2.67-3.74,6-6,9-3.69,4.91-9.95,8.36-14,13-4.77,5.45-6.73,13.08-11,19-5.85,8.11-15.09,14.85-21,23-4.93,6.8-8.03,14.27-13,21-4.85,6.57-12.25,12.48-17,19-10.76,14.76-18.46,31.01-29,46-3.37,4.78-9.09,8.78-12,14-29.97,53.79-63.93,102.66-90,161-1.77,3.96-6.3,6.3-8,10l-3,14c-1.34,3.29-5.37,5.91-7,9-1.93,3.68-1.26,7.92-3,12-4.24,9.95-12.54,21.87-17,32-1.93,4.38-1.12,8.18-3,13-1.41,3.61-5.48,6.43-7,10l-3,14c-4.67,11.15-12.38,23.96-17,35l-4,19c-1.58,3.8-5.55,8.15-7,12l-1,11c-1.42,4.08-6.47,6.28-8,10l-4,27c-1.28,3.12-4.8,6.86-6,10-2.98,7.83-2.05,15.31-5,23-1.03,2.67-4.06,6.01-5,9l-2,16-8,17-3,25c-2.55,10.09-6.39,20.36-9,31l-1,17c-2.16,8.22-6.9,15.67-8,26-1.52,14.19-4.88,24.3-8,35l-2,20c-1.4,5.77-2.95,17.52-1,21-1.53,22.82-15.74,46.97-10,73,3.28,14.87-5.28,35.69-8,47l-2,135,2,99c.78,2.38,4.23,5.62,5,8,1.51,4.65,1.11,13.27,2,17l1,45c2.84,12.28,6.11,24.99,9,37,2.71,11.26.74,22.91,3,33v17c.94,3.29,3.97,7.62,5,11,3.21,10.48,1.2,19.7,4,31,1.95,7.85,5.8,15.78,8,23l2,20c2,6.93,5.83,15.8,8,23,2.68,8.92.97,17.8,4,26,1.31,3.55,4.7,8.44,6,12l3,22c1.53,4.27,5.42,9.22,7,14l4,18c.99,2.23,4.1,4.63,5,7l3,22c4.84,12.77,12.94,29.51,18,42l3,16c4.76,11.05,12.33,24.14,17,35l2,10c1.45,3.72,5.67,7.33,7,11,2.08,5.74.81,10.86,3,16,2.42,5.68,7.74,11.15,10,17,4.19,10.82,6.77,18.25,12,28,1.5,2.79,4.81,5.93,6,9,11.04,28.48,25.21,54.22,40,79,5.79,9.7,7.81,19.75,14,29,4.63,6.92,11.65,14.79,16,22,7.16,11.86,11.69,23.26,19,35,3.19,5.13,9.2,9.74,12,15l3,10c4.12,6.53,11.53,11.79,16,18,5.54,7.7,8.49,16.41,14,24,18.81,25.91,38.76,51.18,58,77,5.11,6.86,14.2,11.92,19,19,5,7.36,7,15.8,13,22,4.18,4.33,10.38,7.14,14,12,15,20.12,33.45,36.46,51,54,9.46,9.46,17.23,19.77,28,28,4.39,3.35,7.63,9.54,11,14,6.33,8.38,16.57,15.62,25,22,11.26,8.51,19.49,22.77,31,31,2.73,1.95,6.27,2.05,9,4l11,13c3.83,2.67,8.29,3.26,12,6,6.64,4.91,11.11,14.3,18,19,2.9,1.98,6.23,2,9,4l11,13c4.01,2.3,8.42,1.52,12,4,1.71,1.18,1.69,3.31,3,5,1.15,1.48,14.31,12.85,16,14,3.09,2.1,6.87,1.95,10,4,14.18,9.3,27.21,22.09,41,32l14,7c5.73,4.14,10.94,11,17,15l14,5c7.13,4.57,13.94,11.58,21,16,8.52,5.34,17.65,7.42,26,13,2.04,1.36,3.8,4.68,6,6l12,4,4,6,15,5,4,5,16,6c6.29,4.09,13.55,10.16,20,14,4.4,2.61,10.28,1.44,15,4,2.02,1.09,4.04,4.77,6,6l13,4c2.71,1.61,5.22,5.55,8,7l11,3c4,2.38,7.42,7.07,12,9l11,2c3.35,1.47,6.42,5.74,10,7,4.86,1.71,8.73.19,13,2,3.03,1.28,5.97,4.7,9,6,7.06,3.04,14,3.14,20,7,1.31.85,2.38,3.28,4,4l16,3c3.1,1.45,6.52,5.51,10,7,6.36,2.71,12.35,2.95,18,6,2.15,1.16,4.62,4.17,7,5l18,1c4.44,1.36,6.81,6.22,11,8l15,3c2.94,1.24,5.25,4.76,8,6,6.37,2.89,13.86,1.66,21,4,4,1.31,8.47,4.66,12,6,6.97,2.64,12.99,1,21,3,7.14,1.78,11.88,5.96,18,8l22,3c4.58,1.5,7.84,5.62,13,7l13,1c14.13,3.95,28.15,7.54,43,11h18c5.27,1.38,9.08,5.36,14,7,9.79,3.26,21.09-.1,32,3l14,7h17c4.3.65,11.11,2.1,15,3h19c23.91,5.29,47.53,4.52,72,10h53c12.16,2.66,26.64-.91,40,2,3,.65,9.43,1.68,14,1,4.52-.67,13.98-2.4,20-1,12.68,2.96,29.32,3.02,42,0,14.4-3.43,34.99,1.12,49-2h57c21.88-4.93,44.15-5.33,65-10,16.77-3.76,32.11,1.76,48-2,8.4-1.99,15.23-5.94,23-8l30-3,15-7h20c10.5-2.55,20.98-6.47,31-9,9.53-2.41,18.16-.59,27-4,2.94-1.13,5.26-4.89,8-6l19-2c4.71-1.78,8.84-6.48,14-8,10.06-2.96,19.86-.91,29-4,5.52-1.87,10.29-6.35,16-8l16-1c3.46-1.18,6.02-5.48,9-7l18-4c3.56-1.52,6.39-5.62,10-7l19-2c2.75-1.19,5.26-4.77,8-6,5.41-2.43,11.31-1.98,16-5,2.2-1.42,4.34-4.99,7-6l16-2c3.77-1.64,6.37-6.37,10-8,5.25-2.36,11.47-1.11,16-4,2.64-1.69,4.8-5.72,8-7l14-1c4.27-1.43,7.23-6.44,11-8,4.39-1.82,8.47-.66,12-3,3.03-2.01,5.26-6.57,9-8l12-2c2.58-1.16,4.67-4.56,7-6,4.69-2.9,10.44-3.03,15-6,1.57-1.02,3.27-4.12,5-5,5.43-2.78,11.31-1.89,16-5l3-4c3.92-2.59,9.13-2.42,13-5,2.04-1.36,3.79-4.69,6-6l11-3c2.04-1.25,3.99-4.68,6-6,4.52-2.96,10.43-2.99,15-6,12.03-7.93,24.98-17.47,37-25l12-4c6.35-3.92,11.85-10.93,18-15l14-5c16.19-10.71,31.83-25.18,48-36,3.1-2.08,6.91-1.91,10-4,6.11-4.14,11.06-11.71,17-16,6.95-5.03,14.42-7.82,21-13,2.05-1.61,2.13-5.26,4-7,2.26-2.11,6.49-2.22,9-4l3-4,8-3,8-9c3.75-2.67,8.4-3.33,12-6l14-15c17.35-13.05,32.13-28.51,50-41l10-12c10.22-9.28,19.95-18.57,31-27,4.67-6,9.33-12,14-18,9.77-7.52,14.69-14.52,23-23,12.19-12.44,24.34-22.8,35-37l14-13c3.74-5.13,5.99-10.27,10-15l4-2c2.31-2.21,3.04-5.37,5-8l10-9c11.83-15.86,23.24-30.97,35-47,3.21-4.38,8.87-7.67,12-12,5.28-7.3,7.72-15.9,13-23l8-6c10.76-14.43,18.79-29.81,29-45,2.63-3.91,7.44-6.99,10-11,5.86-9.19,8.94-18.73,15-28,11.08-16.96,23.24-34.72,34-52l6-15c22.51-34.57,40.85-72,57-113,1.59-4.04,5.85-7.5,8-11,2.83-4.61,2.39-9.94,5-15,.97-1.87,4.08-3.93,5-6,2.14-4.81,1.23-9.65,3-15,1.79-5.4,6.13-10.09,8-15l2-12c1.34-3.42,5.47-5.25,7-8,1-4.67,2-9.33,3-14,2.51-6,7.68-11.65,10-18l2-13c4.88-13.26,12.62-29.57,17-43,1-6,2-12,3-18,1.36-3.67,4.84-8.15,6-12l1-12c1.99-6.71,6.85-12.61,9-19,2.25-6.68,1.02-12.7,3-20,2.18-8.04,5.82-15.56,8-24,1-8,2-16,3-24,1.87-6.19,6.07-13.18,8-20l1-19c1.45-5.07,5.55-9.42,7-15,.67-9,1.33-18,2-27,2.16-8.24,5.8-17.86,8-26,1-12.33,2-24.67,3-37v-17c2.59-10.12,5.3-23.02,8-35,.33-15.33.67-30.67,1-46,7.59-32.03,8.99-69.44,9-109,0-15.84,2.12-35.99-1-50v-40c-2.3-10.13-3.68-20.69-6-31v-16c-2.1-9.32-2.99-19.97-3-31v-20c-1.27-5.6-.22-13.18-2-20-.93-3.56-3.91-7.08-5-10-1.47-3.96-1.16-11.26-2-15-2.8-12.51,1.85-26.48-1-38-2.49-10.07-6.51-20.69-9-29-1-10-2-20-3-30-1.15-3.31-4.97-6.03-6-9-2.98-8.6.35-21.43-2-30-2.36-8.6-6.59-17.8-9-27-.67-6.67-1.33-13.33-2-20l-7-16-2-17c-1.43-3.77-5.48-7.35-7-11-1.67-9-3.33-18-5-27-1.18-3.11-4.88-6.87-6-10l-2-16c-4.22-13.71-11.6-29.96-17-43-1-5-2-10-3-15-4.63-12.37-12.95-26.19-18-38-2.12-4.97-1.87-9.19-4-14-1.32-2.99-4.82-5.96-6-9l-2-12c-1.52-4.05-5.35-8.14-7-12l-4-14c-2.11-3.56-6.28-6.97-8-11-1.7-4.01-.84-8.53-3-12-.98-1.58-4.11-3.29-5-5-2.05-3.94-1.25-7.9-3-12-1.81-4.24-6.2-8-8-12-1.77-3.93-1.04-7.28-3-11-20.89-39.54-43.93-80.37-68-117-2.07-3.16-2.03-6.77-4-10-4-6.55-9.92-12.91-14-19-6.03-9.01-9.01-18.29-15-27-1.93-2.81-6.06-5.1-8-8-17.27-25.83-33.98-50.12-52-75-3.13-4.33-8.83-7.59-12-12-18-25.05-37.67-47.36-56-72l-15-14c-2.08-2.75-3.28-6.01-6-8-3.49-2.56-7.45-3.62-10-7-2.75-3.64-4.26-7.32-7-11l-8-7c-1.99-2.76-2-6.14-4-9-2.42-3.46-7.54-4.48-11-7-3.67-4-7.33-8-11-12-1.62-1.19-3.42-.77-5-2-4.71-3.65-7.7-11.7-12-16-10.06-10.06-22.57-18.38-34-27-5.93-4.48-10.48-11.99-15-18-2.34-3.11-6.84-4.62-10-7-3.78-2.84-6.33-8.04-10-11-11.44-9.23-23.03-17.09-35-26-12.2-9.08-22.61-22.09-35-31-5.28-3.79-11.8-5.21-17-9-2.31-1.68-2.98-5.06-5-7-5.85-5.64-14.33-8.18-21-13l-6-7c-8.31-6.01-17.61-8.98-26-15-6.24-4.49-12.51-11.79-19-16l-10-3-3-4c-3.57-2.54-7.46-3.43-11-6l-6-7-12-3c-2.11-1.27-3.08-4.66-5-6-3.04-2.13-6.91-1.93-10-4-2.99-2-5.82-6.02-9-8-8.4-5.22-16.61-7.8-25-13-2.16-1.34-4.73-4.94-7-6-4.24-1.99-8.49-.67-12-3-6.4-4.25-14.72-12.73-22-16l-13-3c-3.95-1.72-6.19-6.27-10-8-4.49-2.04-9.16-1.47-13-4-2.66-1.76-4.81-5.6-8-7l-11-2c-3.99-1.69-6.29-6.34-10-8l-12-2-6-7-14-3c-2.02-1.08-4.05-4.74-6-6-4.68-3.03-10.56-2.66-16-5-3.03-1.3-5.97-4.72-9-6l-20-4c-2.7-1.45-5.01-5.67-8-7l-13-3c-2.57-1.65-3.95-5.67-7-7-5.78-2.52-11.11,1.21-18-1-4.43-1.42-7.65-6.18-12-8l-19-4c-3.03-1.18-5.97-4.83-9-6-7.86-3.03-17.68-.68-26-4-2.75-1.1-5.28-4.8-8-6-4.28-1.88-8-.48-13-2l-16-8-22-3c-4.17-1.58-8.28-5.6-13-7l-27-4c-5.81-1.9-11.36-6.42-17-8-8.86-2.49-15.03,2.59-24,0-5.54-1.6-10.23-6.23-16-8l-24-3c-6.32-1.66-12.07-5.47-18-7h-12c-6.5-1.45-16.32-2.75-23-3-6.57-.24-10.82,1.77-18,0l-21-7c-13.33-.67-26.67-1.33-40-2-8.45-1.96-17.43-5-25-7-6.02-1.59-13.61-.79-19-2-65.33-.33-130.67-.67-196-1Z"/>
  <path class="cls-2" d="M2148.05,309.88c53.42-.61,114.17-.88,158,9,19,1,38,2,57,3,5.86,1.66,11.49,5.43,18,7l24,1c2.29.53,6.02,1.83,9,2h17c7.47,1.91,15.22,5.98,23,8,7.33.67,14.67,1.33,22,2,4.83,1.72,9.78,6.44,15,8l24,1c5.34,1.54,9.38,6.39,15,8,9.44,2.71,17.53,1.05,26,4,4.78,1.67,9.4,5.49,15,7l18,2c4.09,1.56,8.24,5.54,13,7,5.93,1.82,10.82.78,16,3,5.58,2.39,11.38,7,18,9l16,1c3.61,1.22,6.48,5.5,10,7l14,3c3.47,1.78,6,6.65,10,8l14,1c3.61,1.42,4.62,6.43,8,8l15,2c4.03,1.55,6.28,6.46,10,8l16,3c3.02,1.35,5.13,5.55,8,7l13,2c3.07,1.27,4.44,5.35,7,7l13,3c9.01,3.81,18.35,12.56,27,17,4.85,2.49,10.16,1.5,15,4,2.29,1.18,4.78,4.64,7,6l12,4,5,6c3.01,2.02,6.56,1.2,10,3,2.78,1.45,5.29,5.39,8,7l12,4c23.56,15.24,47.99,31.49,71,47,3.65,2.46,8.42,2.54,12,5,5.1,3.5,8.93,9.45,14,13,3.39,2.37,7.44,2.66,11,5,6.23,4.08,11.72,11,18,15,3.27,2.08,6.89,1.87,10,4,10.63,7.29,19.65,18.46,30,26,7.64,5.57,15.32,9.43,23,15,9.98,7.23,17.11,19.52,27,27,29.21,22.09,53.47,46.47,79,72,28.37,28.37,56.62,55.51,81,88,9.47,12.62,22.83,22.82,32,36,2.08,2.99,1.9,6.8,4,10,4.44,6.77,13.39,11.1,18,18,19.59,29.31,40.56,57.01,60,86l3,8c1.95,2.87,6.07,4.93,8,8,4.71,7.48,6.26,16.34,11,24,5.22,8.43,15.09,19.32,19,28l2,9c7.02,13.52,17.86,26.26,25,40,3.1,5.96,2.78,12.79,6,19,7.22,13.91,20.64,30.98,26,46l2,13c1.22,2.91,4.47,5.5,6,8,2.87,4.7,2.37,10.91,5,16,1.64,3.16,5.55,6.54,7,10l2,12c1.37,2.93,5.73,5.84,7,9l4,19c1.54,3.65,5.58,7.23,7,11,1,5.67,2,11.33,3,17,1.23,2.83,4.84,5.96,6,9l2,13c2.46,8.01,7.67,16.51,10,24l2,15c1.49,3.88,5.64,6.7,7,11,1,6.67,2,13.33,3,20,2.4,6.33,6.06,12.96,8,21,1,8.33,2,16.67,3,25,1.23,3.58,4.84,6.4,6,10,1,10.33,2,20.67,3,31,1.15,3.66,4.76,6.71,6,10,1,9,2,18,3,27,2.15,8.58,5.76,17.89,8,27v18c1.94,8.86,2.71,20.93,4,29l-1,9c1.24,5.72,4.67,10.25,6,15v12c1.91,8.69,2.49,17.56,2,26l-2,1c-4.6,3.42-8.08-.16-14,1-24.75,4.85-54.68-3.53-80,1-16.34,2.92-33.15,0-54,0h-113c-16.85,0-37.98-2.17-53,1-2.74.58-4.52-.78-6-1-8.82-1.32-22.83-.68-30,1-4.29,1-9.01-.72-12-1-11.72-1.09-25.86.42-36,1-9.12.52-19.89-2.69-27,2-7.15,4.71-7.39,22.28-6,35,1.93,17.72.96,43.11,1,64,.02,8.68-1.48,17.66,0,24,2.21,9.48.87,47.82-1,56-1.96,8.53,2.37,23.87,0,34-2.77,11.85-.03,28.91,6,33,7.21,5.4,21.37,2.01,32,2h81c105.15,0,208.8.19,310,0,.85,1.46,1.81,2.87,3,4l1,30c-2.24,9.42-5.64,18.69-8,29v18c-1.58,6.89-2.44,15.97-4,23-.37,1.65,1.11,8.66,0,13-1.84,7.18-5.17,15.45-7,23-2.35,9.71-.31,17.27-3,26-1.75,5.67-5.4,11.93-7,18-.67,8-1.33,16-2,24-1.77,6.11-6.26,10.9-8,18-1,9.67-2,19.33-3,29-1.12,3.13-4.83,6.89-6,10-1,6.67-2,13.33-3,20-1.8,4.71-6.48,8.84-8,14l-1,13c-1.46,4.79-5.38,9.1-7,14-2.9,8.74-2.56,16.98-6,25-1.46,3.4-4.76,7.04-6,11l-2,12c-1.18,3.03-4.82,5.97-6,9-1.6,4.11-.6,6.8-2,11-2.17,6.49-6.5,13.11-9,19-2.18,5.15-1.72,9.9-4,15-4.22,9.45-13.12,22.82-17,32l-2,12c-2.27,5.84-10.43,18.14-14,24-3.42,5.61-3.48,13.2-7,19-5.35,8.81-13.22,20.27-17,30l-2,9c-4.74,7.34-12.4,15.28-17,23-2.62,4.39-2.43,9.77-5,14-4.04,6.64-9.85,13.59-14,20-2.55,3.95-2.4,9.14-5,13-4.84,7.19-12.76,14.13-17,22-4.92,9.13-8.25,18.37-14,27-6.56,9.86-16.2,18.42-23,28-2.85,4.02-3.12,9.93-6,14l-6,5c-8.26,11.1-15.78,22.05-24,33l-7,6c-5.09,6.99-7.9,14.98-13,22-6.03,8.29-15.84,14.84-22,23-5.77,7.65-11.31,15.29-18,22-6,5.67-12,11.33-18,17-8.72,11.56-21.68,28.44-33,37-4.65,3.51-9.19,6.72-13,11-14.99,16.86-29.84,32.28-48,46l-16,18c-5.88,4.3-11.41,7.53-17,12l-7,10c-3.98,2.95-8.58,3.32-13,6-5.27,3.2-9.04,9.43-14,13-2.53,1.82-5.61,2.03-8,4-5.6,4.6-9.05,12.66-15,17-6.6,4.81-14.32,7.31-21,12-11.29,7.93-21.58,19.54-33,27-3.85,2.52-8.44,2.45-12,5-5.38,3.86-9.6,11.54-15,15l-12,3-5,6c-3.11,2.1-6.81,2.01-10,4-3.87,2.42-6.57,7.06-11,9-2.84,1.25-5.56.44-8,2-6.92,4.42-14.11,11.49-21,16l-19,7c-5.26,3.17-9.23,8.83-14,12-3.68,2.45-8.37,1.2-13,3-4.47,1.74-6.23,7.01-10,9-3.81,2.02-8.67.79-12,3-2.54,1.68-3.93,5.74-7,7l-13,2c-6.85,3.46-15.59,11.74-22,16-4.52,3-8.9.74-15,3-4.07,1.51-5.25,7.27-9,9-3.87,1.79-9.36-.68-14,1-4.07,1.48-5.97,7.42-10,9-5.69,2.23-10.85-.23-17,2-2.55.93-4.76,4.62-7,6-3.92,2.41-8.66,1.74-13,4-2.86,1.49-4.97,5.66-8,7l-18,2c-3.77,1.42-7.36,5.44-11,7-6,1.67-12,3.33-18,5-2.31,1.37-4.43,4.96-7,6-7.67.67-15.33,1.33-23,2-2.83,1.12-6.04,4.74-9,6-7.42,3.16-15.43,2.59-23,6-3.53,1.59-5.69,5.76-10,7-6.32,1.82-13.53-.77-19,1-9.39,3.03-20.56,7.21-31,10l-18,2c-3.79,1.44-6.92,5.8-11,7l-24,1c-3.71.91-9.72,2.1-13,4-.73.43-2.06,2.66-3,3l-17,1c-6.72,1.6-16.07,1.64-24,4-4.63,1.38-9.58,4.68-15,6l-32,1c-3.62.79-9.78,1.86-14,2h-19c-5.07,1.42-9.41,5.58-15,7l-32,1c-20.83.26-45.93-.18-65,4h-21c-22.3,4.97-55.86,3.92-78-1-11.28-2.51-25.99.13-35-2-20.66-.33-41.34-.67-62-1-12.15-2.74-21.87-5.28-34-8-18.33-1-36.67-2-55-3-11.4-2.91-26.75-6.94-39-10h-14c-6.52-1.74-12.54-6.2-20-8l-24-1c-5.12-1.55-9.49-6.37-15-8-10.58-3.12-22.15-.58-32-4-5.02-1.74-9.64-6.49-15-8h-16c-4.69-1.4-8.49-6.3-13-8l-15-2c-6.3-1.98-11.63-6.91-18-9-6.52-2.14-13.7.47-21-2-2.97-1-4.71-4.54-7-6l-18-6c-1.98-1.02-4.73-4.06-7-5l-20-3c-4.85-2.02-9.04-6.95-14-9l-12-2c-2.64-1.44-4.84-5.8-8-7l-13-2c-2.23-1.14-3.99-4.72-6-6-3.77-2.4-8.41-1.24-13-3-4.32-1.66-7.79-6.46-12-8-5.12-1.87-9.93-.38-14-3l-5-6-14-5c-3-1.79-5.57-5.5-9-7-10.06-4.38-22.21-7.21-31-13-1.77-1.16-2.96-3.88-5-5l-15-5c-1.66-1.47-2.04-4.76-4-6l-13-3c-1.89-1.22-2.29-4.7-4-6l-12-4c-7.15-4.48-14.85-11.37-22-16l-11-4-6-7c-8.5-5.71-18.28-8.57-27-14-5.88-3.66-10.52-10.12-16-14-4.07-2.88-10.07-3.03-14-6-4.36-3.3-9.98-11.55-15-15-12.63-8.69-25.31-15.24-38-24l-14-16-9-3c-4.62-2.48-9.39-7.63-14-11l-25-26c-3.49-2.51-8.33-2.51-12-5l-5-7c-2.49-2.73-5.97-3.74-9-6l-16-18c-6.61-4.99-15.04-9.44-20-16-3.11-4.12-5.95-8.94-10-12-30.57-23.11-55.02-55.16-78-86l-23-22c-6.35-8.51-10.86-17.12-17-26-4.62-6.68-13.16-11.28-18-18-9.14-12.7-15.77-26.22-25-39-7.96-11.02-18.69-22.4-26-34-4.89-7.76-7.79-15.44-13-23l-6-5c-5.69-8.38-7.47-18.6-13-27-18.45-28.05-34.12-56.68-49-89-6.71-14.59-17.56-29.67-25-44-2.96-5.7-2.38-11.79-5-18-1.86-4.42-6.28-7.58-8-12l-2-11c-1.14-2.56-4.74-4.62-6-7-2.42-4.56-1.83-9.16-4-14-1.51-3.37-5.64-6.43-7-10l-3-18c-4.78-11.46-12.45-26-17-38l-3-17c-1.19-3.13-4.8-6.87-6-10l-4-19c-1.9-5.64-6.26-11.07-8-17l-1-14c-1.69-5.94-6.13-11.36-8-17-2.62-7.89-.75-15.34-3-24-1.89-7.28-5.99-13.88-8-21l-2-19c-1.66-5.02-5.52-9.59-7-15l-1-19c-2.56-10.72-6.4-24.69-9-35-3.84-15.25.9-33.39-3-49-1.97-7.87-5.92-16.84-8-25-3.63-14.28-2.4-40.33,0-52l3-1c5.38-3.32,12.2,1.46,19,0,10.1-2.17,29.4-2.55,40-1,1.94.28,5.64,1.72,9,1,21.62-4.62,59.52-1,84-1h247c9.91,0,22.96,2.17,26-5,3.81-5.67,1-39.05,1-51,.33-45.66.67-91.34,1-137,0-14.48,3.56-51.03-6-55-4.4-3.72-13.71-.93-21-2l-35-1c-5.07,1.1-16.37,2.43-23,1-7.98-1.72-17.93,0-28,0-17.66-.33-35.34-.67-53-1h-218c-6.02.33-15.06,1.32-21,0-10.59-2.36-22.03,5.37-26-4-1.61-2.48-1.16-33,0-38,.86-3.72,2.14-10.28,3-14v-10c1.08-3.07,4.97-6.36,6-10v-16c3.35-14.89,2.1-32.88,6-46,1.86-6.28,4.46-14,6-20l2-21c1.62-5.8,5.43-10.97,7-17l2-24,7-16,3-23c1.4-4.42,5.5-8.05,7-12l2-17c1.77-5.88,5.85-12.13,8-18,2.49-6.79,2.19-13.45,5-20,1.34-3.11,4.78-6.67,6-10l2-20c1.02-2.89,4.73-5.52,6-8l4-18c1.53-2.75,5.58-4.63,7-8l3-17c10.9-26.43,25.58-53.13,37-79l2-10c1.25-2.92,4.44-4.67,6-7,4.24-6.36,7.45-14.98,11-21l6-18c3.98-6.82,9.96-13.46,14-20,1.46-2.36.77-4.25,2-7,1.8-4.02,5.82-7.44,8-11,2.49-4.05,2.53-9,5-13,4.23-6.86,10.68-13.48,15-20,2.6-3.92,2.53-9.04,5-13,1.36-2.19,4.63-3.95,6-6,5.25-7.84,7.58-16.46,13-24,1.77-2.46,5.33-4.33,7-7,5.02-8.01,7.53-16.41,13-24l6-5c12.05-16.58,22.64-33.02,34-50,7.39-11.05,19.2-19.53,27-30,4.03-5.42,6.07-11.32,10-17l14-13c9.76-13.35,20.13-24.86,30-38,16.33-16,32.67-32,49-48,36.02-36.01,71.31-71.55,113-102,7.49-5.47,13.53-14.55,21-20,20.14-14.67,40.09-27.03,61-41,6.57-4.39,12.61-11.41,19-16,3.15-2.27,6.35-1.93,10-4,2.97-1.68,5.23-6.13,8-8l8-3c2.18-1.37,3.95-4.63,6-6,8.2-5.48,16.68-7.79,25-13,3.64-2.28,6.36-6.72,10-9,9.24-5.79,19.76-7.87,29-14,2.34-1.55,4.19-4.58,7-6l10-3c6.59-4.21,14.39-10.65,21-15,4.39-2.89,9.53-1.87,15-4,3.46-1.35,6.04-5.23,9-7l14-5c2.16-1.44,3.37-4.9,6-6l12-2c3.46-1.28,6.05-5.25,9-7l14-4c2.38-1.23,4.45-4.86,7-6l12-2c4.01-1.32,6.54-5.46,10-7l18-4c3.09-1.39,5.34-5.54,8-7l14-3c2.98-1.34,5.3-5.57,8-7l18-3c3.64-1.39,6.7-5.56,10-7l23-3c3.67-1.54,7.27-5.42,11-7,4.98-2.11,10.57-.94,16-3,4.3-1.63,7.8-6.56,12-8l17-1c7.32-2.05,14.31-6.92,22-9,8.72-2.36,17.33-.8,25-4,3.23-1.35,6.54-4.93,10-6l24-1c6.73-1.91,12.63-7.09,20-9l26-3c8.28-2.22,17.79-4.91,27-7,12-.67,24-1.33,36-2,6.77-1.87,13.78-5.15,22-7l31-1c20.07-4.43,41.31-4.79,60-9,7.75-1.75,18.48.43,25-1,12.85-2.82,50.77,4.14,59-1Z"/>
  <path class="cls-1" d="M2117.05,528.88c-8.12,4.78-47.54-.89-60,2-11.19,2.59-22.47,5.25-35,8l-32,1c-9.87,2.46-17.65,6.64-28,9-13.87,3.17-27.62-1.32-40,2l-16,7-27,4c-4.53,1.5-8.65,5.74-13,7h-18c-7.31,1.86-12.43,7.12-19,9-7.71,2.21-14.59.24-21,3-3.84,1.66-6.49,6.45-10,8l-21,1c-4.1,1.39-5.9,6.58-10,8l-12,1c-6.29,1.78-11.91,5.78-17,8l-13,3c-3.59,1.53-6.7,5.53-10,7-5.09,2.27-11.45,1.13-16,4-2.73,1.72-4.47,5.82-8,7l-14,1c-5.32,2.03-8.8,7.99-14,10-4.53,1.75-9.35.52-13,3l-5,7c-4.44,2.54-9.54.01-15,2-3,1.09-5.31,5.4-8,7l-12,4-4,6c-4.34,3.04-9.15.83-15,3-2.64.98-3.88,4.57-6,6-3.72,2.51-8.18,2.62-12,5-2.68,1.67-5.22,5.56-8,7l-9,2c-3.15,1.7-4.56,6.4-8,8-3.48,1.62-7.18.84-10,3l-4,7-15,4-4,5c-2.88,2.07-6.6,2.53-9,5l-2,4c-3.58,2.9-8.9,2.43-13,5-6.94,4.35-12.4,12.52-19,17-3.1,2.11-6.81,2.01-10,4-5.45,3.4-10.22,8.85-15,13-8.54,7.42-19.1,6.47-21,21,1.86,2.3,2.23,5.54,4,8,4.43,6.15,11.87,9.44,18,14l10,11c5.89,4.45,11.03,8.52,17,13,5.51,4.14,8.68,11.83,14,16,13.86,10.85,26.85,21.38,41,32,9.43,7.08,25.91,31.28,39,32,7.38-5.03,16.59-6.1,24-11,3.63-2.4,5.53-7.61,9-10,3.08-2.11,6.88-1.95,10-4,6.59-4.33,12.32-11.82,19-16,3.8-2.38,8.47-1.11,13-3,6.69-2.79,16.05-13.03,23-17l14-3c2.74-1.41,4.57-5.36,7-7,3.09-2.09,6.91-1.91,10-4l5-6,16-3c3.14-1.61,4.87-6.38,8-8l11-2c3.39-1.44,5.97-5.47,9-7l15-3c3.39-1.51,6.47-5.48,10-7,4.58-1.98,9.04-1.58,13-4,2.47-1.51,5.09-4.89,8-6l17-2c3.57-1.37,6.63-5.49,10-7l22-6c2.77-1.4,5.67-4.92,9-6l20-1c7.65-1.95,14.16-6.94,21-9,6.79-2.05,12.93-.49,19-3,3.71-1.54,7.33-5.61,11-7,6.72-2.55,16.1.91,24-1,5.08-1.23,9.88-4.47,14-6,6.84-2.54,16.49-2.45,23-4,10.26-2.45,20.62-.17,30-3,16.02-4.84,43.9-11.42,62-3,.84,8.5-.88,21.76-1,31-.16,12,2.31,25.45,0,36-3.26,14.89.24,41.07,1,55l-1,35c1.19,22.93.89,51.04,1,75,.1,22.36-.25,43.54,0,64l-1,30c4.43,20.35,1,52.28,1,75,0,17.09,2.36,38.77-1,54-1.18,5.35.16,14.21,1,18,1.83,8.3-.86,17.87-1,25-.24,12.25,2.57,26.38,0,38,.33,24.66.67,49.34,1,74-4.39,20.17,0,44.87,0,67,0,22.32.24,42.86,0,63l-1,22c2.43,16.41,2.57,39.12-1,55-1.43,6.34,1.06,12.99,2,17,.9,3.83-.5,9.72-1,12-2.48,11.27,2.04,23.34,0,34-3.12,2.04-6.31,5.68-10,7-11.73,4.2-48.57,1-64,1-10.21,0-23.8,1.42-31,0-4.54-.89-19.32-1.94-24-1-14.31,2.89-38.07,1.03-55,1l-14-1c-10.08,1.82-30.24-.37-43,0-35.25,1.03-91.46,1-140,1-21.23,0-49.23-2.8-67,0-6.33,1-16.91-.8-23-1-14.6-.47-33.69,1.89-50,1-6.01-.33-15.06-1.36-21,0h-38c-29.5,0-60.08-2.43-87,0-14.72,1.33-44.04-5.38-48,5-3.78,5.03-.43,14.3-2,22-1.19,5.82,2.25,14.25,1,21-.67,3.62-2.12,11.82-1,17,1.73,8-1.08,21.33,0,29,6.01,42.79-5.76,85.83,1,125,.82,4.76-2.19,10.58-3,14-1.34,5.68,1.14,10.19,2,14,8.85,4.96,41.71,3,58,3h136c80.45,0,159.65,0,242,0,27.31,0,47.91,0,75,0,13.95,0,29.53-2.46,41,0l30-1c8.66,1.86,21.67,1,32,1,31.98,0,69.05-4.29,97,2,11.76,18.87,6.02,53.82,6,82,.33,56.99.67,114.01,1,171-.33,209.31-.67,418.69-1,628-3.13,2.36-7.23,6.12-10,9-13.37.27-25.88-1.48-37-4-12.33-.67-24.67-1.33-37-2l-18-7c-9.42-2.59-19.74,1.07-30-2-5.03-1.51-8.55-6.42-14-8-10.19-2.95-19.68-.97-30-4-4.29-1.26-7.12-5.71-11-7h-19c-5.09-1.34-6.53-4.69-10-7-5.35-3.56-12.37-2.44-19-5-3.66-1.41-7.24-5.66-11-7l-23-3c-3.42-1.62-5.06-6.64-9-8-5.05-1.74-9.29.51-13-2-3.06-2.07-3.83-6.6-8-8h-14c-6.05-1.76-7.68-7.93-13-10l-13-2c-3.12-1.77-4.01-6.57-8-8l-10-1c-3.82-1.34-5.99-5.1-9-7l-14-5c-12.32-7.95-25.62-16.34-38-24l-15-5c-7.29-4.88-15.33-12.35-23-17l-8-3c-9.85-6.97-31-27.41-45-28-10.28,10.86-22.23,20.64-34,30-3.09,2.46-5.09,7.23-8,10-5.21,4.97-11.17,8.62-17,13l-12,13c-5.31,4-10.38,7.38-15,12l-8,9c-2.77,2-6.09,2.02-9,4-11.07,7.52-25.33,24.08-35,34v9c21.07,19.04,45.44,37.81,70,53,3.71,2.3,7.94,1.71,12,4,6.5,3.66,15.86,14.43,22,18l10,3c3.59,2.15,6.82,6.21,11,8,3.66,1.57,6.92,1.01,10,3,3.07,1.98,5.85,6.03,9,8,7.68,4.8,15.39,7.03,23,12,2.2,1.44,4.34,4.99,7,6l13,2c2.74,1.3,4.59,5.43,7,7l12,4c2.34,1.4,4.42,4.86,7,6l15,3c2.6,1.19,3.83,4.55,6,6,3.82,2.54,8.48,2.05,13,4,4.03,1.74,7.21,6.33,11,8l18,3c3.39,1.47,6.48,5.48,10,7,4.89,2.11,9.42,1.59,14,4,2.51,1.32,5.14,4.81,8,6l17,3c3.45,1.73,6.68,5.65,11,7,7.24,2.27,13.65,1.18,20,4,3.75,1.66,7.56,5.75,12,7l16,1c3.5,1.34,5.76,5.68,9,7l15,2c6.72,2.52,13.24,7.91,21,10h25c7.01,1.7,12.48,6.02,19,8,7.53,2.28,14.65-.12,23,2l24,9c18.66,1,37.34,2,56,3,3,.84,6.35,4.02,9,5,8.28,3.07,20.17,2.25,28,4,17.33.33,34.67.67,52,1,37.32,8.23,98.25,10.28,136,1h17c14-3.1,32.17,1.54,48-2,8.53-1.91,19.09-1.22,28-4,4.39-1.37,8.05-4.87,13-6l12,1,42-3c5.17-1.37,9.57-5.43,14-7l31-4c4.73-1.45,8.93-5.54,13-7,11.58-4.14,23.04,1.57,35-2,5-1.49,9.35-6.08,14-8l17-3c3.44-1.45,5.77-5.69,9-7,5.39-2.19,12.65.83,19-1,4.98-1.44,8.5-6.27,13-8l21-4c2.82-1.44,4.97-5.83,8-7l15-2c3.18-1.3,5.74-5.68,9-7l14-3c3.97-1.72,7.08-6.52,11-8l19-2c3.25-1.64,5.78-6.29,9-8l9-2c3.57-1.41,6.88-5.42,10-7l11-2c3.2-1.3,5.35-5.31,8-7,5.33-1.67,10.67-3.33,16-5l6-7,16-3c1.72-.8,3.46-4,5-5,3.78-2.46,8.17-2.61,12-5,2.16-1.35,3.96-4.68,6-6l9-3c7.33-4.54,15.67-11.27,23-16l12-4,6-7c3.08-2.1,6.91-1.91,10-4,8.38-5.65,17.36-13.48,26-19,10.83-6.92,22.74-12.37,33-20l6-8c9.22-6.44,21.88-9.79,24-23-4.24-4.11-6.5-11.28-11-15-2.38-1.97-5.49-2.17-8-4l-8-9c-13.04-9.84-23.89-21.16-37-31-6.54-4.91-11.42-13.21-18-18-20.85-15.18-41.26-32.59-59-51h-6c-2.12,2.36-4.43,7.23-7,9-3.47,2.38-7.78,1-12,3-3.51,1.66-8.16,5.51-12,8-2.93,1.9-4.26,6.11-7,8-7.52,5.2-16.48,7.83-24,13l-5,7-14,3-7,9c-3.54,2.35-7.84,1.04-12,3-7.29,3.44-14.1,11.46-21,15l-10,2c-4,1.7-7.38,6.15-11,8-3.64,1.87-6.79.44-11,2-4.02,1.49-6.28,6.6-10,8l-10,1c-5.19,1.97-6.98,7.9-11,10-4.86,2.54-12.23-1.09-18,1-3.25,1.18-3.62,5.22-6,7-3.69,2.75-10.42.96-15,3-3.99,1.78-5.94,7.43-10,9l-21,1c-3.5,1.17-5.26,5.46-8,7l-19,4c-3.92,1.51-6.75,6.37-10,8-6.68,3.34-14.04-1.9-21,0-6,1.64-9.26,7.19-15,9l-29,3c-5.04,1.48-8.69,6.3-13,8-8.7,3.43-18.76-1.36-27,1-6.43,1.84-12.58,6.32-19,8l-24,1c-17.02,3.7-41.27,5.7-58,2-6.85-12.19-5-41.25-5-60v-728c0-16.83-2.21-38.01,1-53,2.56-11.95-5.36-42.16,6-47,9.13-5.63,37.57,1.44,49-1,13.19-2.81,30.42,0,46,0h100c170.41,0,345.45-.93,515-1,.85-1.46,1.81-2.87,3-4,0-49.27,0-104.68,0-157,0-27.99,2.55-60.62-2-83-12.46-7.81-23.49-1.89-41-5-10.98-1.95-33.62-.01-50,0-30.9.02-60.25,0-92,0-118.13,0-238.86,0-364,0h-113c-16.59,0-42.3,2.18-53-2-8.66-15.36-5-48.14-5-71v-744c0-24.47-2.22-54.01,2-73l3-1c3.24-2.12,36.79-.53,42,1,7.52,2.21,17.8,4.98,26,7,13.27,3.27,25.63.55,38,4l18,7h23c5.03,1.34,8.05,4.96,12,7,6.35,3.29,13.06,1.63,21,4,6.54,1.95,12.08,7.13,19,9l22,2c3.61,1.59,6.64,5.62,11,7l14,2c3.98,1.67,7.23,6.54,11,8l19,2c3.06,1.57,5.44,6.44,9,8l12,2c2.32.98,4.13,3.79,6,5,4.53,2.93,9.64,2.71,15,5l13,8,13,3c2.65,1.38,4.57,5.63,7,7l14,3c6.31,3.21,15.97,10.98,22,15l16,6c7.43,4.31,15.05,10.5,22,15,3.08,1.99,6.4,1.35,10,3,3.53,1.62,11.25,7.29,15,10,2.86,2.06,4.89,6.06,8,8,7.55,4.72,15.22,6.8,22,12,5.72,4.38,4.12,7.32,14,10,17.41,4.73,30.95-15.17,39-22,5.57-4.72,9.82-10.89,15-16,4.78-4.72,11.49-6.97,17-11l9-11c2.88-1.99,6.26-1.98,9-4,1.92-1.42,2.41-4.22,4-6,8-7.33,16-14.67,24-22,8.42-6.16,31.67-24.78,33-36-5.21-3.32-8.1-9.63-13-13l-6-2c-6.29-4.28-11.82-11.55-18-16-8.35-6.02-17.47-9.2-26-15-11.32-7.7-22.47-18.55-34-26l-12-4c-6.75-4.36-14.22-10.65-21-15l-13-4-5-6c-3.01-2.02-6.56-1.2-10-3-3.16-1.66-5.14-6.2-8-8l-10-2c-5.15-2.19-8.65-8.03-14-10-3.92-1.44-6.94-.06-10-2-2.04-1.29-3.82-4.7-6-6l-11-3c-3.03-1.29-6.15-4.7-9-6-4.52-2.07-8.62-1.69-13-4-3.53-1.86-6.95-6.65-11-8l-14-1c-4.19-1.64-6.5-7.27-11-9l-14-2c-4.15-1.6-6.85-6.4-11-8-4.84-1.86-10.14-.49-14-3-2.32-1.51-4.05-4.87-7-6l-18-3c-4.22-1.74-7.82-6.62-12-8-7-2.32-15.92,1.48-22-1-3.03-1.24-5.17-5.53-8-7-7.74-4.01-16.84-2.2-26-5-5.19-1.58-8.77-6.55-14-8-7.64-2.12-14.47,2.72-22,0-3.71-1.34-7.08-5.55-11-7l-27-4c-4.45-1.39-8.88-5.63-13-7-14.21-4.74-27.56,1.36-42-2-9.84-2.29-17.59-6.65-27-9-16.33-.67-32.67-1.33-49-2-9.37-2.23-18.38-5.62-29-8-49.66-.33-99.34-.67-149-1Z"/>
  <path class="cls-1" d="M1253.05,945.88c-4.47,4.34-12.44,5.82-16,11-2.11,3.07-1.91,6.92-4,10-6.1,9-16.56,15.24-23,24-23.58,32.04-47.85,63.8-70,97-3.17,4.75-3.94,10.06-7,15-6.93,11.19-15.81,23.14-23,34-2.6,3.92-2.55,9.03-5,13-11.14,18.04-19.87,36.85-30,57-8.1,16.1-18.88,32.16-26,49l-5,19c-1.03,2.35-3.98,4.75-5,7-2.38,5.25-2.14,11.29-5,16-1.12,1.84-4.15,3.89-5,6l-3,14c-5.37,12.7-12.52,29.3-17,43-1.87,5.71-1.13,10.29-3,16-4.81,14.69-10.66,29.2-11,50,14.71,9.18,48.38,6,73,6h676c8.87-.01,18.48-1.86,25-1,17.27,2.28,46.91,3.89,64,0,6.52-1.48,14.06,1.19,19,2,2.85.47,9.59-1.45,12-2,7.34-1.68,14.46.74,21,0,2.06-3.09,3.46-2.93,4-8,3.28-5.29,1-20.53,1-28v-411c0-15.48,2.74-28.67-13-29-5.34,3.85-14.12,2.44-21,5-4.93,1.84-8.12,6.41-13,8l-15,2c-2.58,1.6-3.97,5.64-7,7l-13,2c-2.84,1.47-4.95,6.41-8,8-4.47,2.33-9.98,1.42-14,4-7.39,4.74-16.91,12.42-25,16-3.98,1.76-8.53.83-12,3-2.05,1.28-3.99,4.66-6,6-8.83,5.89-18.29,9.01-27,15l-5,6-10,3c-2.34,1.57-2.06,5.12-4,7l-8,3-5,6-6,1c-2.52,1.4-4.67,5.34-7,7-3.7,2.64-8.33,3.31-12,6-6.67,4.88-11.08,13.27-17,19-5.7,5.51-12.42,3.77-13,15,2.67,1.44,4.22,1.99,9,2,5.56-3.44,27.14,4.61,38,3,12.01-1.78,25.91,0,40,0,21.27,0,44.57-1.39,63,0,1.28,1.83,1.97,1.71,3,4,3.54,4.15,2,34.96,2,46,0,23.33-.92,48.2-1,70l2,36c-1.28,5.68-2.64,14.08-4,21-14.14,3.51-42.11,5.64-59,2h-437c-10.81,0-27.91,3.31-30-6,7.67-8.51,9.43-20.12,15-31,4.43-8.65,12.03-16.96,17-25,2.9-4.69,3.04-10.44,6-15,18.49-28.45,38.07-57.49,58-85l8-7c8.85-12.1,18.29-23.07,27-35,5.36-7.33,12.64-9.19,13-22-42.23-42.8-95.1-74.86-138-117h-8Z"/>
  <path class="cls-1" d="M3077.05,945.88c-5.59,4.2-12.53,5.93-18,10l-10,11c-9.17,6.65-17.18,12.35-26,19-7.95,5.99-13.76,16.41-22,22l-9,3-7,8c-5.58,5.53-12.16,10.82-18,16-7.21,6.4-30.65,19.25-32,29-.93,6.73,6.38,10.46,9,14,2.73,3.69,3.32,8.04,6,12,6.38,9.39,16.26,17.64,23,27,21.34,29.62,43.84,59.39,64,90,5.13,7.8,6.77,16.96,12,25,5.14,7.9,13.19,17.09,17,26l3,12c3.34,6.34,8.55,5.47,9,16-10.3,5.8-10.54.32-23,3-12.42,2.67-36.58,2.74-49,0h-336c-26.32,0-64.87,5.34-89,0-8.68-1.92-28.57,3.86-32-3v-173c4.06-3.82,7.37-4.26,16-4,4.92,3.1,29.91,1,38,1,25.74,0,50.42-.51,71-5,9.86-2.15,19.22,1.74,28,0,.6-1.72.89-3.15,1-6-5.61-5.09-12.12-9.01-18-14-3.29-2.8-4.9-7.96-8-11-4.47-4.39-17.21-9.77-23-14l-8-9-9-3c-6.92-4.37-14.23-11.63-21-16l-12-4c-5.94-3.98-12.26-12.32-19-16-5.17-2.82-11.23-1.95-16-5-7.95-5.08-17.97-13.48-27-17-5.21-2.03-9.77-1.28-14-4-2.84-1.83-5.52-5.67-9-7l-13-2-6-7-15-2c-3.03-1.13-5.19-5.57-8-7-5.48-2.78-22.66-4.88-28-4-5.28,10.74-3,26.53-3,43v390c-.01,13.7-1.44,26.24,1,39,12.46,7.02,44.81,3,65,3h756c22.43,0,50.43,2.54,67-4,.85-1.46,1.81-2.87,3-4,.8-25.56-8.39-42.03-16-60-2-8.67-4-17.33-6-26-1-2.35-4.01-4.76-5-7-2.65-6.02-1.82-12.81-5-18-1.35-2.21-4.84-4.71-6-7l-2-13c-1.55-4.71-6.29-8.58-8-13-1-5-2-10-3-15-1.56-3.67-5.4-7.27-7-11-5.47-12.78-8.07-23.79-15-35-1.55-2.5-4.76-5.09-6-8-4.71-11.08-6.21-20.15-12-30-23.3-39.67-45.42-79.31-71-117-4.35-6.41-11.61-12.43-16-19-2.36-3.54-2.6-7.43-5-11-6.43-9.57-16.34-17.77-23-27-3.28-4.54-4.18-11.02-8-15-5.13-5.34-11.56-10.01-16-16-7.68-10.34-16.69-26.71-31-30Z"/>
  <path class="cls-1" d="M1876.05,2058.88c-3.35,2.07-11.91,1-17,1h-800c-20.69,0-49.17-3.21-65,3-.65,1.26-1.09,2.07-2,3-.46,8.88,2.76,15.78,5,24,1.55,5.67,0,10.19,2,15,1.59,3.81,5.52,8.15,7,12l3,17c1.32,2.99,4.9,5.58,6,9l1,14c2.28,7.78,8.06,14.98,11,22l2,13c1.02,2.66,4.62,4.79,6,7l4,15c1.54,3.56,5.59,6.39,7,10l1,10c1.76,5.76,6.95,9.84,9,15,1.81,4.57.89,7.93,3,12,4.4,8.47,11.95,18.3,16,27,8.31,17.84,13.87,35.45,24,52,1.76,2.87,5.21,6.09,7,9l3,8,7,6c5.31,7.82,6.76,17.17,12,25,8.61,12.88,19.81,25.94,28,39,2.97,4.74,3.9,9.58,7,14,2.97,4.23,8.03,7.88,11,12,7.68,10.66,13.27,21.54,21,32,2.88,3.9,8.3,7.02,11,11,8.44,12.45,15.21,24.07,27,33,6.92,5.25,10.63,17.65,19,21,1.89,1.38,6.11,1.35,8,0,4.69-1.65,5.57-5.41,9-8,8.27-6.25,15.71-12.74,24-19,3.29-2.49,4.89-7.46,8-10,4.06-3.31,9.64-3.99,14-7l12-13c6.49-4.73,12.76-8.2,19-13l6-8c4.23-2.98,8.95-3.99,13-7l9-11c9.29-6.85,16.84-13.27,25-21,.13-16.42-9.28-17.95-17-26l-7-14-3-1c-3.3-2.7-7.53-8.58-10-12-13.17-18.21-28.53-35.56-41-54-2.6-3.85-2.4-9.11-5-13-4.76-7.12-12.31-13.58-17-21-4.85-7.67-6.89-16.34-12-24-4.52-6.77-10.47-14.97-15-22l-6-16c-4.22-7.61-8.86-8.83-9-22,2.42-1.3,2.83-1.8,7-2,3.69-2.19,23.1,1.01,31,1,24.23-.03,51.27-1,77-1h290c27.91,0,57.68,1.55,85,0,9.91-.56,26.92-3.34,33,1,6.09,4.35,6.49,31.2,4,42-2.73,11.81,0,25.37,0,41,0,34.35,1.43,67.78-4,95-9.23,4.21-29.83,5.99-43,3l-20,1c-7.1-1.46-41.74-1.66-49,0-9.03,2.06-35.4-.19-38,4h-1v1h1c2.2,5.87,6.8,6.31,11,10l15,17c5.18,3.87,10.71,6.15,16,10l8,9c7.34,5.01,15.61,6.98,23,12,6.26,4.26,12.36,12.18,19,16,3.43,1.97,6.38,1.32,10,3,3.16,1.46,5.32,5.28,8,7l10,3c3.25,1.73,5.81,6.14,9,8l9,2c3.48,1.47,6.16,5.42,9,7,4.22,2.35,9.1,1.46,13,4l6,7c5.58,3.11,12.94,1.78,18,5,1.85,1.18,3.67,4.09,6,5,4.57,1.79,7.95.86,12,3,2.99,1.58,5.54,5.75,9,7,5.58,2.02,11.12.34,16,3l3,4c5.98,3.88,16.69,4.53,25,3,1.71-2.73,2.54-2.5,3-7,2.75-4.44,2-21.74,2-29v-335c0-27.17,3.69-63.17-1-88-1.57-8.32,3.5-15.45-5-19-2.07-1.66-4.16-1.91-8-2Z"/>
  <path class="cls-1" d="M2452.05,2059.88c-13.05,14.02-2.18,14-6,32-1.65,7.77,0,16.02,0,25v385c0,13.3-1.52,25.82,1,36,15.74,4.28,19.32-2.28,31-6,4.94-1.57,8.32-.54,12-3,3.29-2.2,5.74-6.45,10-8,5.37-1.95,10.64-.41,15-3,3-1.78,5.57-5.51,9-7,69.47-30.25,127.96-67.53,179-116v-2l-3-1c-4.72-2.87-29.3-3-38-3l-30-1c-11.67,2.48-44.99,2.9-55,1-8.39-1.6-19.48,2.14-25-2-8.76-9.82.33-36.83-3-52-1.42-6.45,1.76-13.95,0-22-2.08-9.5,0-23.75,0-38,0-22.67-3.23-48.08,1-67h2c6.29-4.72,25.97-2,36-2h353c10.29,0,23.39-.96,32,1,9.01,2.05,19.02-2.86,27-2,16.36,1.77,34.6,2.06,55,2,8.58-.02,12.91-2.3,20-1,4.83,11.87-19.2,45.05-25,56-21.9,41.34-49.39,78.01-76,115-11.68,16.24-37.96,30.92-38,57,22.29,20.21,44.56,39.79,69,58l11,12c9.5,7.16,17.74,13.59,28,20,11.47,7.17,19.66,25.92,36,27,11.09-9.61,19.15-20.12,28-32l9-8c4.46-5.92,7.56-11.9,12-18l8-7c5.15-7.06,8-14.73,13-22,7.78-11.32,19.41-21.5,27-33,4.92-7.45,7.09-15.63,12-23,5.01-7.51,13.72-15.03,18-23,1.89-3.51,1.11-6.49,3-10,1.45-2.7,5.45-4.55,7-7l4-12c1.71-2.76,5.28-5.25,7-8,5.35-8.56,6.66-17.98,12-27,22.39-37.84,42.3-78.13,58-123,1.59-4.54,5.98-8.16,8-12,2.86-5.44,1.98-10.43,4-17,1.84-5.98,6.1-11.17,8-17l2-15c1.56-4.95,6.29-8.48,8-13,1-6,2-12,3-18,3.69-7.74,13.28-29.92,7-40-.89-2.68-1.03-2.59-3-4-6.87-5.15-49.25-2-62-2h-821Z"/>
  <path class="cls-2" d="M2403.05,3938.88c12.39,3.65,35.39-2.69,52,1,12.05,2.68,24.78,6.16,35,9h17c5.38,1.18,14.25,1.91,19,3,4.03,8.87-.34,12.94,2,24,3.37,15.92,1,38.22,1,56,0,14.35,1.71,32.43-1,45-2.48,11.53,2.6,21.85-1,31-25.44,11.4-81.87-12.87-91,19-2.76,9.65,3,15.84,6,20,10.93,15.12,27.09,22.12,40,35,5.03,5.02,10.09,7.62,16,12,5.19,3.85,8.13,10.92,13,15,37.13,31.07,64.76,70.01,78,125l1,23c3.79,16.96,4.12,21.51,0,38l-1,24c-1.36,6.06-1.66,13.76-4,20-1.43,3.81-5.64,8.17-7,12l-2,12c-1.63,3.71-5.91,6.7-8,10-4.21,6.64-6.42,13.66-11,20-10.58,14.66-41.31,36.27-59,44l-13,3c-3.39,1.45-5.97,5.47-9,7l-26,4c-5.62,2.03-10.58,6.4-17,8l-47,1-67-1c-11.76-2.9-24.27-6.31-36-9l-29-1c-5.03-1.21-9.01-4.36-13-6l-19-4c-.94-3.2-1.74-3.5-2-8-3.89-6.23-2-33.73-2-44,.33-21.66.67-43.34,1-65-2.91-13.73-.99-38.95,2-52,2.54-1.37,3.5-1.92,8-2,5.05,4.39,14.41,1.84,22,4,6.51,1.86,14.71,5.26,22,7,10.97,2.62,23.69.79,34,3h30c10.07,2.26,22.89,4.56,33,0,8.62-3.89,11.79-14.58,18-21,.02-5.5.94-13.01-1-17-3.56-7.31-10.4-11.67-16-17-10.07-9.58-18.87-22.73-30-31-3.85-2.86-8.08-4.15-12-7-5.45-3.96-9.56-10.99-15-15-3.85-2.84-8.82-3.2-13-6l-17-18c-28.08-21.2-44.5-50.86-57-88-1.55-4.61-5.67-8.41-7-13-3.59-12.38-4.21-62.25-1-76,2.24-9.57,7.33-15.87,10-24l2-13c1.13-2.57,4.56-4.68,6-7,2.39-3.86,2.6-8.14,5-12,3.74-6.02,9.87-11.38,14-17l4-7c11.27-9.64,24.21-15.6,37-24,3.2-2.1,5.03-6.32,9-8l11-2c3.35-1.56,5.81-5.74,10-7,8.85-2.66,16.62-.6,26-3,9.18-2.35,18.46-6.62,29-9,6.45-1.46,16.19,1.98,21-1Z"/>
  <path class="cls-2" d="M3502.05,3938.88c4.59,1.38,12.23-.37,18,1,10.71,2.55,20.65,6.41,31,9,11.07,2.77,21.9.18,32,4,3.13,1.18,6.87,4.81,10,6,4.64,1.77,9.13.69,13,3,3.76,2.24,7.01,6.91,11,9,8.66,4.55,18.02,5.77,26,11,2.47,1.62,4.58,5.4,7,7l11,4c38.18,25.31,68.66,62.66,94,101l4,12c4.47,8.48,12.1,18.67,16,28l4,21c1.77,4.28,5.51,9.12,7,14,1,8,2,16,3,24,21,76.68-6.57,168.48-39,217-2.5,3.74-2.61,8.18-5,12-5.06,8.09-13.38,14.57-19,22-7.46,9.87-14.11,18.53-24,26-14.03,10.6-26.36,29.65-42,39l-10,3c-7.86,4.65-16.42,12.28-25,16-3.93,1.7-7.36.97-11,3-2.25,1.25-4.41,4.86-7,6l-21,5c-4.25,1.82-7.83,5.65-13,7l-17,1c-7.15,2.06-14.25,6.98-22,9-11.09,2.9-53.81,2.53-65,0h-36c-7.2-1.88-13.78-6.79-21-9l-18-2c-3.67-1.16-6.71-4.73-10-6l-19-4c-2.95-1.49-5.95-5.75-9-7l-14-3c-8.06-4.17-16.38-12.23-24-17-3.81-2.38-8.28-2.49-12-5-36.81-24.85-71.93-67.2-95-106-3.58-6.02-3.78-12.77-7-19-4.58-8.86-10.85-18.72-14-29-1-6.33-2-12.67-3-19-1.09-2.74-4.92-5.26-6-8l-1-15c-2.66-11.67-3-26.64-3-42v-21c-1.43-6.65-1.5-19.35,0-26l1-30c2.3-9.47,6.37-18.2,9-26,1-5.67,2-11.33,3-17,15.2-44.91,43.26-81.18,70-115,4.11-5.2,12.89-6.63,17-12,8.24-10.77,20.77-21.45,32-29,8.38-5.63,18.24-6.74,27-12,3.16-1.9,5.74-6.31,9-8l13-3c2.57-1.16,4.65-4.61,7-6,3.13-1.85,6.04-.57,10-2,5.4-1.96,10.35-7.28,16-9l29-3c9.98-2.5,21.32-6.37,31-9,12.69-3.45,41.52,4.89,51-1Z"/>
  <path class="cls-2" d="M57.05,3951.88c48.59-.14,100.82,1,151,1l34-1c3.6.77,11.84,2.08,17,1,6.03-1.26,21.47-1.04,27,0,11.91,2.25,52.41-4.59,58,2,5.78,7.6,4,28.76,4,41v29c-1.48,6.81-3.85,18.24-2,27,2.99,14.13,3.57,42.48-1,54-10.58,4.5-28.48.88-41,1-23.7.23-56.63,4.99-80,0-7.71-1.65-33.24.74-36,4-3.48,4.51-.12,12.07,0,19,.23,12.89-6.19,39.78,6,44,7.75,5.75,29.35.93,41,2,21.35,1.96,46.99,1,70,1,13.27,0,27.88-.65,37,3,4.77,8.41,2,24.48,2,38v65c2.06,9.72,1.1,25.65-1,34-41.05,12.73-107.85-3.95-152,6-6.76,11.99-3,33.9-3,52l-2,106c0,15.92,5.6,57.73-6,63h-22c-4.64-2.84-30.53-1.17-36,0l-28-1c-14.2,3.04-49.8,3.05-64,0-6.72-1.44-16.98,2.09-22-1-2.93-.95-3.51-1.76-5-4-3.67-4.91-3-25.21-3-34v-386c1.88-8.7,1.8-25.54,0-34l1-93c0-9.84-2.61-28.86,2-35,9.92-9.05,42.63,3,54-4Z"/>
  <path class="cls-2" d="M404.05,3951.88c9.39.21,22.44,3.35,33,1,2.46-.55,7.98-1.61,12-1,7.09,1.08,13.18,1.61,20,0l23,2c20.81-4.6,47.38-2.04,68,0,4.22.42,9.29-1.85,14-1,8.75,15.24,4,64.39,4,90v221c.14,6.85,1.41,15.45,0,22-2.23,10.35-.97,29.23,1,38l1,19c7.44,26.45,23.45,46,58,46h17c19.76-4.97,35.67-25.78,41-45,4.35-15.69,1.01-50.33,1-69-.05-64.93-.95-142.76-1-212l1-79c0-11.6-1.79-25.06,5-30,4.52-3.4,31.72-1,42-1,32.96,0,61.41,0,93,0,11.64,0,32.01-3.4,39,1,16.28,5.76,4.54,31.26,8,50,2.13,11.53-3.14,32.45,0,47,2.46,11.41,0,24.8,0,38v150c0,10.92-1.04,24.77,1,34v29c0,25.04-.19,48.48-5,68-3.01,12.21-.8,22.87-4,35-1.15,4.35-4.52,7.58-6,11l-4,18c-1.53,3.56-5.22,6.68-7,10l-5,15c-21.44,33.55-50.07,61.16-88,78l-17,4c-6.42,2.66-13.28,6.85-21,9l-20,2c-5.18,1.59-10.24,5.55-16,7l-41,1c-12.99,0-26.32-1.59-38-1-12.36.62-25.29,1.35-37-2-4.28-1.22-8.9-4.78-13-6-9.41-2.81-19.66-.54-28-4-3.14-1.3-6.86-4.69-10-6-5.03-2.1-10.64-1.29-15-4-1.57-.97-3.29-4.14-5-5-4.92-2.49-10.67-1.2-15-4-33.72-21.79-60.42-52.06-79-89-2.52-5-1.25-10.25-3-16-3.06-10.04-7.31-18.92-10-31l-2-41c-2.75-11.17-4.81-26.58-3-39l-1-21c.91-3.93,2.18-8.07,2-14-.62-20.24-1-44.16-1-66,0-10.32-.89-23.35,1-32l-2-52c1.82-8.36-1.79-19.56,0-28,2.91-13.72,3.02-40.3,0-54-2.18-9.87-.78-27.68,1-36l-1-16c2.47-11.54,1.25-26.34,4-37,1.46-.85,2.87-1.81,4-3,2.33-.2,2.83-.19,4-1Z"/>
  <path class="cls-2" d="M1134.05,3951.88c59.35.53,117.38.97,179,1,.96,1.77,1.26,1.68,2,4,5.21,6.94.29,17.32,2,26,3.85,19.49-4.57,48.97,0,71,1.45,6.97.03,12.2,0,21v227c0,23.06-1.2,46.9,2,68,1.05,6.91-2.27,12.06,0,18,2.28,1.22,2.25,1.64,6,2,8.2,5.06,34.76.85,47,1,20.43.26,45.32.98,67,1,15.39.02,30.18-1.68,43,1,1.22,2.28,1.64,2.25,2,6,5.93,9.4-2.42,26.47,0,38,1.23,5.87.13,12.63-1,18l2,19c.22,10.06-2.6,20.54-1,31,1.05,6.85,1.95,25.31-1,30-2.47,7.71-9.18,9.4-20,9-5.02-3.1-19.84-1.14-27-1-21.02.42-42.48-.15-65,0-16,.11-44.91-1.54-60,2-14.57,3.42-41.66-.97-56-1-43.5-.09-83.99-.09-122,0-8.62-13.3-6-30.67-6-52,.33-37,.67-74,1-111-.33-69.33-.67-138.67-1-208v-65c0-10.95-.99-24.74,1-34v-35c0-27.41-.79-57.23,1-83,1.76-1.08,3.62-2.52,5-4Z"/>
  <path class="cls-2" d="M1512.05,3951.88c15.82.06,34.41.21,49,1,9.3.51,17.79-1.76,26,0,15.38,3.3,34.26-2.72,47,0,18.37,3.92,35.21-3,51,0l1,3c6.06,8.13.96,22.41,2,34,1.71,19.11,1,37.12,1,60v220c0,34.25-4.02,76.11,10,97,6.5,9.69,20.12,15.75,33,19h15c3.97.96,8.93,4.4,15,3,28.08-6.49,39.54-26.25,46-55v-66c4.36-20.08,1-47.94,1-70-.33-49-.67-98-1-147,0-21.42-1.88-46.33,1-66,1.53-10.44-3.89-23.19,2-31,3.99-3.41,35.73-1,46-1h85c14.2,0,31.51-1.44,44,1,8.28,17.66,4,46.45,4,71v301c0,22.99,1.32,47.44-3,67l-1,14c-1.39,4.51-5.31,8.9-7,13l-2,11c-2.05,6.28-6.62,11.38-9,17-1.95,4.6-1.58,8.91-4,13-18.68,31.54-53.45,60.31-87,77l-19,3c-3.38,1.33-6.46,5.67-10,7l-26,3-16,6c-19.3,5.1-76.8,5.55-97,1h-17c-61.95-14.13-117.88-36.36-149-81-3.76-5.39-4.45-12.17-8-18-4.6-7.55-11.49-16.61-15-25l-4-17c-1.92-4.72-5.64-9.71-7-15l-1-34c-3.39-15.79-1-33-1-50v-257c0-14.4-2.37-33.8,0-45v-43c-.38-1.8-1.78-6.65-1-10l3-9c1.26-.65,2.07-1.09,3-2Z"/>
  <path class="cls-2" d="M2644.05,3951.88l29,2c10.44-2.2,31.77-2.96,41-1,4.15.88,10.41-.45,13-1,4.81-1.02,29.72.31,33,1,5.66,1.2,14.9-.13,19-1,6.44-1.36,35.4.74,42,2,1.08,1.76,2.52,3.62,4,5-.11,46.24,0,99.59,0,149,0,15.11-3.9,43.5,7,48,4.32,3.84,13.91,3,22,3h51c7.37,0,17.58,1.15,22-2,5.08-1.58,5.79-4.8,9-8,1.5-44.52,0-97.2,0-145,0-14.73-3.9-43.53,5-50,4.47-3.38,29.95-.99,40-1,32.45-.03,62.79,0,95,0,15.06,0,40.17-4.54,44,6,6.64,8.85-2.04,27.83,0,39,1.54,8.44,0,20.93,0,32v78c0,72.38,1,141.86,1,215v70c0,11.56,1.12,26.14-1,36-1.73,8.06.86,17.09,1,24,.54,26.14,3.49,64.82-2,87-11.04,6.38-34.44,4-53,4-41.88,0-88.96,2.12-125-2-1.55-2.48-3.91-5.9-6-8,.17-27.8,1-58.67,1-88,0-13.12,2.49-26.4,0-38v-23c0-18.88.44-38.72-3-54-3-1.5-6.65-4.1-10-5-7.71-2.08-22.78-.34-29,1l-35-1c-7.75-.01-20.92-3.16-26,0-5.08,1.58-5.79,4.8-9,8,.33,46.33.67,92.67,1,139,0,20.78,2.62,46.08-1,65-14.24,6.7-54.63,9.64-76,5l-30,1c-25.16.03-50.59.64-74-1-1.23-1.87-4.08-3.3-5-5-3.59-6.65-1-23.19-1-32v-86c-.94-5.31-1.62-18.45,0-26v-63c0-60.77,0-117.26,0-179v-128c0-23.93-1.91-50.5,2-69,1.46-.85,2.87-1.81,4-3Z"/>
  <path class="cls-2" d="M4338.05,3957.88v418h-4l-1,3c-5.44,8.04-3.04,20.11-6,31-1.76,6.47-6.15,11.17-8,17l-2,13c-14.47,34.92-48.77,67.27-79,87-3.99,2.6-8.79,2.49-13,5-3.93,2.35-7.02,6.33-12,8l-17,3c-2.56,1.07-5.19,4.09-8,5l-21,2c-15.84,4.57-31.69,12.85-52,9l-13,1-64-1c-7.11-1.67-13.42-4.88-19-7-9.4-3.57-18.89-1.95-29-5-4.41-1.33-8.05-5.65-12-7-5.54-1.89-10.52.5-15-2l-6-7-13-2c-3.05-1.37-4.44-5.27-7-7-8.15-5.51-16.28-8.29-24-14-4.11-3.04-6.57-9.15-10-13l-12-11c-12.08-16.22-25.18-37.66-32-58-1-6.67-2-13.33-3-20-2.53-9.05-5.63-20-8-30-2.58-10.86,1.21-25.33-1-35l1-41c-3.11-14.21,0-40.23,0-58,0-42.2,0-78.73,0-120v-107c0-19.68-1.49-43.51,2-60,3.39-2.14,4.68-3.05,11-3,8.51,5.24,36.3-1.63,46,0,12.16,2.04,33.89,2.59,46,0l46,1c11.38,0,20.29-.93,29,1l4,8v42l1,20c-1,4.7-2.2,14.73-1,21,2.96,15.51,0,50.08,0,70v150c0,57.85-4.61,112.64,44,124,15.69,3.67,31.25-2.66,40-6,4.27-1.63,7.64-.73,11-3,7.37-4.98,9.51-13.88,14-22,1.09-1.96,4.96-4.02,6-6,5.16-9.86,2-59.85,2-76,0-110.8-1.71-213.42,1-321,3.69-2.32,6.09-3.12,13-3,8.22,5.05,25.23-1.73,34,0,9.34,1.84,23,1,34,1h96c4.4,1.28,4.87,4.38,11,5Z"/>
  <path class="cls-1" d="M2399.05,4021.88c-6.23,4.24-18.26,6.2-26,8l-17,1c-5.96,2.22-30.31,21.88-34,27-2.66,3.7-3.35,8.29-6,12-1.49,2.09-5.02,3.36-6,6-4.05,10.97-3.13,57.04,1,67,6.28,15.13,17.43,25.67,26,38,31.95,45.96,82.55,73.61,116,118,3.38,4.49,8.96,8.1,12,13,3.11,5,3.45,11.52,7,16,1.98,2.5,5.57,3.7,7,7,6.58,15.18,6.06,47,1,64-6.84,23-32.69,43.05-55,51l-19,2c-5.05,1.22-11.27,3.83-16,5-6.5,1.61-13.89-1.06-18-2-5.76-1.32-11.97,1.14-16,2-14.23,3.03-54.07-17.85-62-2-1.99,2.16-2.07,4.58-2,9,5.52,3.51,10.96,5.17,19,7h8c4.03,1.08,9.82,3.93,14,5,13.26,3.4,32.01,1,47,1h20c5.14-1.29,11.02-4.52,16-6,8.35-2.48,17.94-.37,25-4,2.78-1.43,5.33-5.33,8-7,25.94-16.18,36.11-22.16,49-52,1.78-4.12,5.72-8.24,7-13v-16c2.02-9.46,2.69-20.55,0-31-8.69-33.77-46.24-79.43-72-97l-10-11c-8.9-8.71-18.02-17.43-27-26-6.09-5.81-13.34-10.87-20-16-4.48-3.45-7.55-9.4-11-14l-8-7c-6.18-8.18-13.22-16.79-19-25-8.83-12.54-16.7-39.53-10-61,1.15-3.69,4.59-6.73,6-10,1.52-3.53.86-7.18,3-10,1.72-2.27,6.14-2.83,8-5,2.15-2.51,3.24-6.2,6-8l7-2c6.57-3.33,10.89-6.98,20-9h16c6.14-1.38,13.63-6.02,22-4,10.65,2.56,26.86,4.7,38,2,1.83-3.83,2.95-5.79,3-12-2.67-2.87-2.72-5.49-7-7-9.34-7.21-35.35-4.11-51-4Z"/>
  <path class="cls-1" d="M3462.05,4021.88c-13.71,9.46-36.82,4.79-54,11-5.29,1.91-9.61,7.7-15,10-57.42,24.49-96.56,68.73-122,125-6.7,14.83-8.17,32.89-12,50v67c.86,3.63,3.13,8.59,4,12,3.44,13.52,3.04,24.4,8,36,1.51,3.54,5.49,6.61,7,10,13.06,29.19,27.91,52.03,52,70l13,16c11.84,8.66,30.56,21.1,44,27l17,4c3.32,1.44,6.68,5.55,10,7,6.01,2.63,14.05.89,21,3,3.98,1.21,8,4.87,12,6,8.04,2.26,54.34,3.16,64,1,9.9-2.21,18.9-5.74,28-8,6.63-1.64,11.69.19,17-2,58.08-24.01,98.45-55.55,129-107,6.22-10.47,6.89-22.36,12-34,2.28-5.19,7.21-11.14,9-17l2-20c.96-3.38,4.11-7.72,5-11v-15c0-20.34-1.48-36.69-5-52-.67-7.33-1.33-14.67-2-22-3.46-10.57-11.12-21.47-16-31-2.82-5.5-2.5-11.17-5-17-2.45-5.71-7.33-13.2-11-19-15.84-25.05-50.58-54.2-76-70-10.04-6.24-21.05-8.35-32-14-2.6-1.34-6.04-4.9-9-6-7.74-2.88-16.63.3-26-2l-25-8h-44Z"/>
  <path class="cls-1" d="M781.05,4022.88c-2.85,2.76-6.13,5.31-9,8-1.65,52.03,0,112.64,0,168,0,23.81,3.34,53.14-1,75l1,9c.55,10.12-2.44,27.54-1,35,.65,3.34,2.07,11.09,1,16-1.46,6.67-1.49,17.05-3,24v14c-1.25,4.48-5.33,8.09-7,12-2.16,5.05-1.49,10.14-4,15-1.17,2.26-4.58,4-6,6-9.08,12.77-8.8,16.37-22,26l-7,8c-4.44,2.85-10.85,1.88-16,4-3.8,1.56-8.15,5.58-12,7-7.16,2.64-14.66-.04-23,2-10.17,2.49-25.33,9.2-40,6-11.42-2.49-24.03-4.66-34-7l-19-1c-4.32-1.35-7.15-5.35-11-7l-15-4-7-8c-3.68-2.55-7.67-3.2-11-6-10.06-8.46-14.86-26.18-22-38-1.2-1.99-4.05-4.67-5-7-2.87-7.06-.09-15.23-2-24-2.8-12.87-2-31.17-2-47v-18c-4.69-21.87,0-47.82,0-72,0-37.41.22-77.23-1-113-.92-27.14,1.86-50.81-1-76-9.53-6.7-12.72-9.01-22,0l1,236c0,57.24-2.61,111.54,20,148,14.88,23.99,38.99,40.13,65,53l23,3c5.02,1.84,9.43,5.99,16,7l13-1c8.03,1.19,21.98,1.64,30,0l21,1c5.15-1.27,10.51-4.54,15-6l20-2c3.25-.93,20.97-7.97,24-10l8-9c14.74-10.01,28.39-21.07,38-36,3.02-4.69,2.61-10.57,5-16,1.52-3.45,5.63-7.28,7-11l2-18c12.03-40.57,7-105.47,7-157l-1-183c-2.2-1.66-2.03-2.84-5-4-2.04-1.88-3.84-2-8-2Z"/>
  <path class="cls-1" d="M2733.05,4022.88c-2.2,2.09-3.69,1.72-5,5-5.16,5.98-2,21.86-2,33-.33,28.33-.67,56.67-1,85,2.52,74.06,0,142.64,0,222,0,23.52-3.25,52.42,1,74,.91,4.64-1.25,10.5-2,14-1.41,6.52,1.04,12.46,2,17,1.76,1.08,3.62,2.52,5,4,5,.19,9.39.11,12-2,9.13-9.83-.08-29.58,3-44,2.94-13.79,1-33.4,1-49v-96c0-12.14-1.9-23.86,0-34,11.19-6.34,14.98-.18,28-2,3.88-.54,10.58-1.48,16-1l10,1c17.98-3.7,52.38-1,78-1h61l24,1c11.22-2.47,29.82-2.97,40-2l5,6c.35,37.5,1,78.87,1,118,0,19.3-2.74,43.6,1,61,2.55,11.87-5.35,34.96,3,42,4.38,3.6,11.18,1.25,16,0,6.44-11.26,5.87-58.57,3-72l1-25c-.95-6.34-1.16-20.77,0-27v-66c-.01-54.43-1-109.86-1-163,0-20.25,0-40.86,0-61,0-12.26,1.23-23.07-1-33-1.76-1.08-3.62-2.52-5-4-4.58-.07-8.7.32-12,1-7.8,12.19-5,39.19-5,59v89c0,18.19.93,38.75-2,54-1.76,1.08-3.62,2.52-5,4l-108-1c-21.07,0-44.43,3.4-61,0h-20c-21.39,0-48.19,2.54-65-1-.96-1.77-1.26-1.68-2-4-2.02-3.29-1.1-11.96-1-17,.24-11.65,1.27-25.86,1-39-.54-26.8,0-59.23,0-89,0-20.34.89-38.8-3-54-3.63-1.73-5.25-2.87-11-3Z"/>
  <path class="cls-1" d="M4234.05,4022.88c-2.44,2.52-4.66,3.16-6,7-3.52,4.73-2,23.19-2,32v225c0,16.31.03,29.19,0,44v17c-1.32,4.78-4.69,10.49-6,16l-1,14c-13.18,35.55-34.47,60.02-71,72-7.81,2.56-15.28.84-24,3-18.29,4.53-41.11,6.33-59,1-11-3.28-23.81-1.33-35-5-27.89-9.14-52.76-30.34-64-56-11.94-27.25-11-65.99-11-106v-230c0-10.49.92-23.51-2-31-1.26-.65-2.07-1.09-3-2l-10,1c-7.27,11.53-5,33.34-5,53v199c-2.7,13.36.03,45.83,3,59v17c.02,11.4.56,23.45,4,33,4.48,12.45,10.96,25.26,18,36,10.39,15.86,39.39,37.39,58,45l24,3c3.67,1.3,8.15,4.9,12,6,10.78,3.08,20.89-2.36,32,0,7.29,1.55,19.8,4.03,29,2,46.21-10.18,86.55-25.2,109-59,2.92-4.39,1.96-8.26,4-14,5.13-14.46,15.14-30.32,19-46v-247c0-27.49,1.95-58.24-1-84l-6-5h-6Z"/>
  <path class="cls-1" d="M273.05,4023.88c-6.45,3.97-42.45.99-53,1-27.57.03-52,1-81,1-10.79,0-24.92,2.12-34,1-4.61-.57-8.04-1.87-13-1-1.08,1.76-2.52,3.62-4,5-1.48,35.59,0,79.15,0,118,0,19.92-2.86,44.99,1,63l-2,34c2.57,11.98,1,29.27,1,43v165c0,10.86-.96,27.08,12,24,12.95-3.08,8-39.08,8-55,0-27.59,0-54.04,0-81,0-14.35-1.91-35.08,0-46,2.13-12.18-4.05-30.88,4-37,7.87-5.87,22.56,1.45,34-1,8.09-1.73,32.49-1.83,41,0l52-1c11.97.02,27,2.88,37-1,14.36-25-23.38-12.5-40-16-12.44-2.62-39.32-2.13-53,1-9.62,2.2-24.83-.21-33-2-5.86-1.29-15.69.07-20,1l-16-1c-9.66-14.88-6-37.9-6-63,0-45.91-.06-83.51,0-126,3.87-3.04,3.91-5.65,11-6,7.65-4.68,28.55,2.19,39,0,33.97-7.13,74.89,5.06,107-2,7.34-1.61,13.67,1.18,20,0,2.1-3.59,3.04-5.57,3-12-1.68-1.27-2.32-2.73-4-4-2.52-2.02-6.21-2.1-11-2Z"/>
  <path class="cls-1" d="M1220.05,4023.88c-2.15,2.31-4.69,4.85-7,7-1.07,16.59,0,39.37,0,59v179l1,15c-2.27,11.14-1,27.15-1,40v79c0,21.82-3.3,51.19,0,67,13.75,8.65,28.34,1.02,47,5,13.49,2.88,32.71,1,48,1,18.09,0,40.77,2.43,57-1l15,1c18.05.23,37.6.97,53-2,1.98-3.35,3.55-4.75,4-10-1.11-1.38-1.49-2.87-2-5-2.87-.91-4.65-3.25-7-4-.48-.15-37.52-.39-39,0-4.04,1.07-8.95,4.6-16,3-10.53-2.39-26.48-2-40-2-30.42,0-64.32,2.25-93-1-1.55-2.48-3.91-5.9-6-8v-372c0-15.47,1.62-34.27-1-48-3.76-2.2-6.24-3.08-13-3Z"/>
  <path class="cls-1" d="M1598.05,4023.88c-2.56,2.39-4.6,2.16-6,6-3.8,5.69-1,35.45-1,47-.33,39-.67,78-1,117,0,84.76-7.46,178.39,27,229l8,7c5.38,5.43,9.78,12.49,16,17,2.59,1.88,5.38,2.16,8,4,3.2,2.24,6.05,6.5,10,8l12,2c4.28,1.78,7.33,6.65,12,8l15,1c4.37,1.41,9.29,4.74,14,6,13.33,3.56,32.86,1,48,1h21c4.42-1.19,9.8-4.62,14-6l22-4c4.47-1.85,9.45-6.38,14-8,4.86-1.73,8.3-.53,12-3,7.79-5.19,13.62-14.43,21-20,7.87-5.94,16.02-12.36,21-21l3-15c1.58-3.89,5.77-7.89,7-12,1.98-6.62.31-11.7,3-17,1.61-3.17,5.21-6.66,6-11l-1-9c7.15-33.15,3-77.24,3-117v-132c0-23.59,1.51-50.1-1-72l-7-6-10,1c-6.13,10.6-4,26.37-4,44,0,26.04,0,43.45,0,71v101c0,16.06,2.34,36.81-1,51-1.77,7.54.82,17.93,2,24,1.45,7.46-3.42,32.7-5,39-1.89,7.52.4,13.65-2,20-4.62,12.23-14.59,32.74-22,43-9.66,13.38-35.2,27.94-53,33l-20,1c-10.52,2.88-29.53,9.98-46,6-9.96-2.41-23.52-4.4-34-7l-13-1c-4.51-1.42-7.57-5.32-12-7l-13-3c-3.6-1.63-5.19-5.74-8-8-11.53-9.28-23.85-17.56-30-32l-2-10c-2.03-4.88-6.32-9.41-8-15-6.99-23.3-3-63.57-3-92v-225c0-11.92,2.05-26.94-5-32-2.52-2.02-6.21-2.1-11-2Z"/>
  <path class="cls-2" d="M3474.05,4043.88c29.52-.49,55.49,4.03,77,11,5.59,1.81,11,.84,16,3,3.95,1.7,6.54,5.93,10,8l12,4c29.25,19.26,52.06,41.24,71,71,1.59,2.5,5.62,4.58,7,7,1.67,5.67,3.33,11.33,5,17,21.96,37.43,24.15,113.63,7,159-1.61,4.27-6.38,8-8,12-2.48,6.12-1.86,11.84-5,17-7.71,12.65-19.38,21.6-28,33-29.29,38.72-75.02,63.17-135,71-5.97.78-16.36-2.61-24-1-2.73.58-9.72,2.07-14,1-6.2-1.55-13.56-4.47-20-6l-20-1c-4.54-1.61-9.55-6.11-14-8-11.27-4.77-21.16-6.1-31-12-6.28-3.77-11.2-10.72-17-15-4.79-3.53-10.24-5.46-15-9-5.99-4.46-10.47-11.98-15-18-4.37-5.8-11.68-10.2-16-16-5.05-6.78-7.16-14.59-12-22-1.6-2.44-5.47-4.58-7-7l-2-9c-1.7-4.45-6.24-8.71-8-13-5.3-12.88-2.06-30.87-6-45-.91-3.28-4.08-7.61-5-11-4.46-16.48,5.06-48.06,8-59,2.92-10.86,1.01-21.56,5-31,.94-2.23,4-4.18,5-6,5.67-10.27,7.83-19.7,14-29,21.77-32.82,58.07-66.77,96-83,11.65-4.98,25.63-7.21,38-10,10.3-2.33,23.41,1.93,31-3Z"/>
  <path class="cls-1" d="M3477.05,4121.88c-5.54,3.63-15.25,5.44-22,7l-14,1c-3.07,1.25-4.45,5.36-7,7l-16,4-6,7c-3.33,2.41-7.52,2.61-11,5-7.41,5.08-19.33,25.62-25,34-2.19,3.24-6.46,5.94-8,10-2.1,5.55-1.15,10.35-3,16-1.85,5.67-5.47,11.52-7,18-7.18,30.5,9.94,74.57,21,91l8,7c3.8,5.05,7.05,13.21,12,17,3.11,2.38,6.7,2.74,10,5,6.47,4.43,16.48,15.41,24,18l14,1c5.69,1.43,10.02,5.37,15,7,6.18,2.02,34.23,2.94,42,1,50.76-12.69,82.62-42.79,102-87,7.83-17.85,7.59-59.44,1-79-1.44-4.27-5.49-7.12-7-11l-2-9-7-6-2-10c-7-7.67-14-15.33-21-23-3.13-2.26-6.87-2.74-10-5l-5-6-15-5c-3.25-1.92-6.29-6.67-10-8l-17-1c-2.17-.6-5.12-3.31-7-4-7.43-2.72-17.28-2.04-27-2Z"/>
</svg>