<?xml version="1.0" encoding="UTF-8"?>
<svg id="Layer_1" data-name="Layer 1" xmlns="http://www.w3.org/2000/svg" viewBox="0 0 430.42 441.8">
  <defs>
    <style>
      .cls-1, .cls-2, .cls-3, .cls-4, .cls-5 {
        fill-rule: evenodd;
      }

      .cls-1, .cls-6, .cls-4, .cls-5 {
        fill: #fff;
      }

      .cls-7, .cls-8, .cls-9 {
        fill: none;
      }

      .cls-2 {
        fill: #3985c6;
      }

      .cls-10 {
        fill: #3f84bc;
      }

      .cls-8, .cls-3, .cls-4, .cls-5 {
        stroke-miterlimit: 10;
      }

      .cls-8, .cls-5 {
        stroke: #3499cc;
      }

      .cls-6, .cls-9 {
        stroke: #3f84bc;
        stroke-linecap: round;
        stroke-linejoin: round;
      }

      .cls-3 {
        fill: #3b84c5;
      }

      .cls-3, .cls-4 {
        stroke: #fff;
      }
    </style>
  </defs>
  <path class="cls-2" d="M144.07.09h4.07c.82.18,1.86.36,2.68.29,4.16-.35,9.18-.29,13.79-.29h112.62c.98.21,2.7.38,3.97.19,1.17-.17,3.37-.48,4.66-.1,1.48.43,1.93,1.46,2.98,2.23.95.7,2.06,1.5,2.78,2.42.31.4.59.86.99,1.16,1.43,1.06,2.77,2.49,3.87,3.87.26.33.75.52,1.09.77,1.11.82,2.02,2.11,2.98,3.1l1.69,1.45c.62.8,1.48,1.36,2.08,2.13.21.27.33.58.6.77,1.28.94,2.51,2.04,3.47,3.29l1.69,1.45c1.08,1.18,2.06,2.34,3.37,3.29.27.2.39.51.6.77.51.65,1.4,1.14,1.98,1.74.41.42.71,1,1.19,1.35.81.59,1.3,1.46,2.08,2.03,1.72,1.27,3.37,2.96,4.66,4.65.64.84,1.83,1.29,2.48,2.13.61.79,1.38,1.53,2.18,2.13.7.52,1.16,1.3,1.89,1.84l2.58,2.71c1.02.76,1.78,1.74,2.68,2.61l3.27,3c8.38,8.25,16.78,16.47,25.2,24.68,1.56,1.52,3,3.24,4.76,4.55l1.09,1.26c.84.62,1.37,1.53,2.18,2.13.51.37,1.11.77,1.49,1.26.85,1.09,1.89,2.04,2.88,3l.69.48c.19.23.21.53.4.77l1.79,1.45.5.68c1.74,1.31,3.93,3.42,5.26,5.13.83,1.06,2.04,1.26,2.48,2.81.32,1.12.12,1.93.1,3-.05,1.96,0,4.35,0,6.58v88.07c.03,13.93.07,27.87.1,41.81-.23.82-.94,1.16-1.39,1.74-.87,1.13-1.96,1.92-2.98,2.9-.41.39-.74,1.02-1.19,1.35-.47.36-1.03.7-1.39,1.16-.9,1.16-2.11,2-3.18,3l-1.49,1.74c-.47.35-1.03.7-1.39,1.16-1.05,1.36-2.47,2.75-3.87,3.77-.95.7-1.53,1.94-2.48,2.61-.25.18-.54.21-.79.39-.3.21-.42.64-.69.87-1.71,1.42-2.96,3.3-4.76,4.65-.55.41-.93,1.05-1.39,1.55l-1.49,1.16c-.98.95-1.8,2.05-2.78,3-2.45,2.39-5.34,4.54-7.44,7.26-.65.85-1.7,1.48-2.48,2.23l-2.18,2.32c-.28.2-.68.32-.89.58-1.34,1.64-3.05,2.9-4.46,4.45-2.88,3.16-6.17,5.92-9.23,8.9-.32.31-.52.71-.79,1.06-.2.26-.52.38-.79.58-.83.61-1.65,1.6-2.28,2.42-.46.6-1.16,1-1.79,1.45-.51.37-.8.95-1.19,1.45l-.79.58c-.5.48-.94,1.23-1.49,1.65-.38.29-.9.5-1.19.87-.65.83-1.75,2.19-2.58,2.81-.31.23-.66.38-.89.68-1,1.28-2.36,2.51-3.67,3.48l-.5.68c-.72.79-1.51,1.36-2.18,2.23l-1.39,1.16c-1.37,1.34-2.62,2.69-4.17,3.87-.3.23-.46.67-.69.97-.65.84-2.07,2.01-2.88,2.81-3.06,2.98-6.17,5.92-9.23,8.9l-1.69,1.84c-.48.35-1.03.6-1.39,1.06-.34.44-.8,1.18-1.29,1.45-.76.42-2.48.19-3.57.19h-138.31c-.76,0-1.8.11-2.28-.19-.71-.23-.85-.78-1.29-1.26-.88-.97-1.96-1.65-2.78-2.71-.69-.89-1.79-1.51-2.58-2.32-1.44-1.47-2.8-3.01-4.27-4.45-1.09-1.06-2.24-2.08-3.47-3-.19-.14-.24-.41-.4-.58-.85-.93-1.74-1.75-2.58-2.71-.3-.35-.86-.55-1.19-.87-1.6-1.55-3.26-3.11-4.66-4.84-.21-.26-.62-.38-.89-.58-.67-.49-1.1-1.23-1.79-1.74l-.79-.97c-1.07-1.05-2.13-2.11-3.37-3-.95-.68-1.66-1.89-2.48-2.71-.4-.4-.82-.72-1.29-1.06-1.19-.88-2.13-2.25-3.18-3.29l-1.49-1.26c-.22-.29-.35-.6-.6-.87-1.16-1.24-2.82-2.14-3.87-3.48-.58-.75-1.41-1.3-1.98-2.03-.11-.13-.07-.29-.2-.39-.7-.54-1.41-.99-1.98-1.65-1.96-2.24-4.12-4.62-6.55-6.39l-1.59-1.84c-2.95-2.18-5.24-5.11-7.84-7.65-.84-.82-1.71-1.52-2.68-2.23-.37-.27-.58-.73-.89-1.06l-1.79-1.65c-.24-.31-.39-.74-.69-.97-.24-.18-.6-.26-.79-.48-.37-.42-.6-.87-.99-1.26-4.28-4.18-8.63-8.29-12.9-12.48-4.3-4.23-8.58-8.47-12.9-12.68-.25-.25-.6-.37-.89-.58-1.15-.85-2.14-2.22-2.98-3.39-.15-.2-.51-.42-.6-.68l.1-2.42c-.17-1.28,0-3.43,0-5.03v-123.68c0-1.35-.11-2.98.1-4.16l-.1-1.16c.04-1.16.12-2.53.5-3.39.36-.82,1.37-1.42,1.98-2.03,1.13-1.13,2.23-2.27,3.37-3.39.71-.69,1.68-1.24,2.28-2.03.99-1.3,2.29-2.2,3.37-3.39,1.14-1.25,2.29-2.46,3.67-3.48.59-.44.92-1.27,1.49-1.74.76-.63,2-1.47,2.58-2.23.28-.36.43-.8.79-1.06,1.39-1.03,2.47-2.28,3.67-3.48,1.27-1.26,2.65-2.35,3.77-3.77.67-.85,1.84-1.41,2.58-2.23,1.49-1.63,3.07-3.42,4.86-4.74l1.89-2.03c.37-.34.88-.57,1.19-.97.26-.33.46-.72.79-.97.24-.18.52-.25.69-.48.8-1.03,1.75-1.81,2.68-2.71.93-.91,1.71-1.83,2.78-2.61.34-.25.54-.63.79-.97.64-.83,2.01-1.97,2.88-2.61.3-.22.46-.57.69-.87.59-.77,1.45-1.35,2.08-2.13.38-.47,1.09-.89,1.59-1.26.67-.5,1.14-1.29,1.89-1.84,1.42-1.06,2.35-2.82,3.77-3.87,1.24-.92,2.21-2.1,3.27-3.19,1.07-1.09,2.33-1.98,3.27-3.19.44-.57,1.22-.91,1.69-1.45.47-.54.91-1.32,1.49-1.74.33-.24.75-.36.99-.68.94-1.21,2.14-2.37,3.37-3.29.31-.23.39-.74.69-.97.45-.34.95-.53,1.29-.97.53-.68,1.1-1.43,1.79-1.94.31-.23.66-.38.89-.68.36-.47.72-1,1.19-1.35.65-.49,1.09-1.12,1.69-1.65l.4-.19c2.24-2.56,4.81-4.88,7.24-7.26,1.05-1.02,2.16-1.94,3.08-3.1.54-.68,1.55-1.06,2.08-1.74,1.52-1.92,3.47-3.66,5.36-5.23.6-.5,1.16-1.6,1.79-2.03.61-.41,1.4-.52,1.98-.97Z"/>
  <path class="cls-5" d="M208.57,14.41c-.36.21-1.25.1-1.79.1h-4.27c-1.81.04-3.2.51-4.66.87l-4.46.19c-1.01.25-2.11.52-3.27.77-1.39.31-2.66-.16-3.97.19-.66.18-1.36.59-2.08.77-.83.21-1.64.01-2.38.29-.44.16-.87.55-1.39.68h-1.89c-.78.18-1.47.57-2.18.77-.88.25-1.77.1-2.68.39-.49.15-.84.62-1.29.77l-1.89.1-1.29.77-1.79.29c-.36.15-.73.55-1.09.68l-1.98.19c-.34.12-.6.53-.89.68-.52.26-1.17.1-1.79.29-.57.18-.96.71-1.49.87l-1.79.1c-.22.1-.4.45-.6.58-.39.25-.93.19-1.39.39-.4.17-.71.61-1.09.77l-1.79.29c-.23.11-.48.45-.69.58-.41.25-.9.19-1.39.39-.35.15-.66.53-.99.68l-1.29.29c-.26.11-.47.45-.69.58-.43.26-.98.22-1.39.48-.19.12-.39.47-.6.58l-1.49.29c-.21.09-.32.37-.5.48-.44.29-1.04.28-1.49.58-.15.1-.17.37-.3.48-.44.38-1.25.18-1.79.48-.74.41-1.47,1.13-2.18,1.55l-1.09.29c-.76.38-1.59,1.1-2.28,1.55-.3.2-.63.13-.99.29-.56.25-1.24.71-1.79,1.06-.3.2-.58.59-.89.77l-.89.29c-.7.44-1.39,1.12-2.08,1.55-.31.19-.71.17-.99.39l-.5.68-1.19.39c-.65.41-1.18,1.14-1.79,1.55-.36.24-.84.25-1.19.48-1.03.69-1.95,1.74-2.98,2.42-.33.22-.7.24-.99.48-.85.72-1.64,1.7-2.58,2.32-.99.65-1.93,1.15-2.88,1.84l-.99,1.06c-.6.44-1.19.91-1.69,1.45-.16.17-.21.44-.4.58-.4.29-.98.28-1.39.58-.35.25-.44.8-.69,1.16-.31.44-.83.65-1.29.97l-.99,1.16c-2.88,2.06-5.48,4.69-7.64,7.45-.27.34-.81.45-1.09.77-.71.81-1.32,1.66-1.98,2.52l-1.09.97c-.25.26-.37.58-.6.87-.37.48-.99.81-1.39,1.26-.47.53-.67,1.27-1.09,1.84-.58.79-1.5,1.44-2.08,2.23-.49.66-.8,1.38-1.29,2.03-.48.64-1.22,1.21-1.69,1.84-1.07,1.43-1.83,3-2.88,4.45-.33.46-.9.85-1.19,1.35-2.97,5.21-6.34,9.93-8.93,15.58-.18.38-.62.61-.79.97l-.3,1.35c-.13.32-.53.57-.69.87-.19.36-.13.77-.3,1.16-.42.96-1.24,2.12-1.69,3.1-.19.42-.11.79-.3,1.26-.14.35-.54.62-.69.97l-.3,1.35c-.46,1.08-1.23,2.32-1.69,3.39l-.4,1.84c-.16.37-.55.79-.69,1.16l-.1,1.06c-.14.39-.64.61-.79.97l-.4,2.61c-.13.3-.48.66-.6.97-.3.76-.2,1.48-.5,2.23-.1.26-.4.58-.5.87l-.2,1.55-.79,1.65-.3,2.42c-.25.98-.63,1.97-.89,3l-.1,1.65c-.21.8-.68,1.52-.79,2.52-.15,1.37-.48,2.35-.79,3.39l-.2,1.94c-.14.56-.29,1.7-.1,2.03-.15,2.21-1.56,4.55-.99,7.06.33,1.44-.52,3.45-.79,4.55l-.2,13.06.2,9.58c.08.23.42.54.5.77.15.45.11,1.28.2,1.65l.1,4.35c.28,1.19.61,2.42.89,3.58.27,1.09.07,2.22.3,3.19v1.65c.09.32.39.74.5,1.06.32,1.01.12,1.91.4,3,.19.76.58,1.53.79,2.23l.2,1.94c.2.67.58,1.53.79,2.23.27.86.1,1.72.4,2.52.13.34.47.82.6,1.16l.3,2.13c.15.41.54.89.69,1.35l.4,1.74c.1.22.41.45.5.68l.3,2.13c.48,1.24,1.28,2.86,1.79,4.06l.3,1.55c.47,1.07,1.22,2.34,1.69,3.39l.2.97c.14.36.56.71.69,1.06.21.56.08,1.05.3,1.55.24.55.77,1.08.99,1.65.42,1.05.67,1.77,1.19,2.71.15.27.48.57.6.87,1.1,2.76,2.5,5.25,3.97,7.65.57.94.77,1.91,1.39,2.81.46.67,1.16,1.43,1.59,2.13.71,1.15,1.16,2.25,1.89,3.39.32.5.91.94,1.19,1.45l.3.97c.41.63,1.14,1.14,1.59,1.74.55.75.84,1.59,1.39,2.32,1.87,2.51,3.85,4.95,5.75,7.45.51.66,1.41,1.15,1.89,1.84.5.71.69,1.53,1.29,2.13.41.42,1.03.69,1.39,1.16,1.49,1.95,3.32,3.53,5.06,5.23.94.92,1.71,1.91,2.78,2.71.44.32.76.92,1.09,1.35.63.81,1.64,1.51,2.48,2.13,1.12.82,1.93,2.2,3.08,3,.27.19.62.2.89.39l1.09,1.26c.38.26.82.32,1.19.58.66.48,1.1,1.38,1.79,1.84.29.19.62.19.89.39l1.09,1.26c.4.22.84.15,1.19.39.17.11.17.32.3.48.11.14,1.42,1.24,1.59,1.35.31.2.68.19.99.39,1.41.9,2.7,2.14,4.07,3.1l1.39.68c.57.4,1.09,1.06,1.69,1.45l1.39.48c.71.44,1.38,1.12,2.08,1.55.85.52,1.75.72,2.58,1.26.2.13.38.45.6.58l1.19.39.4.58,1.49.48.4.48,1.59.58c.62.4,1.34.98,1.98,1.35.44.25,1.02.14,1.49.39.2.11.4.46.6.58l1.29.39c.27.16.52.54.79.68l1.09.29c.4.23.74.68,1.19.87l1.09.19c.33.14.64.56.99.68.48.17.87.02,1.29.19.3.12.59.45.89.58.7.29,1.39.3,1.98.68.13.08.24.32.4.39l1.59.29c.31.14.65.53.99.68.63.26,1.23.29,1.79.58.21.11.46.4.69.48l1.79.1c.44.13.68.6,1.09.77l1.49.29c.29.12.52.46.79.58.63.28,1.38.16,2.08.39.4.13.84.45,1.19.58.69.26,1.29.1,2.08.29.71.17,1.18.58,1.79.77l2.18.29c.45.14.78.54,1.29.68l1.29.1c1.4.38,2.79.73,4.27,1.06h1.79c.52.13.9.52,1.39.68.97.32,2.09,0,3.18.29l1.39.68h1.69c.43.06,1.1.2,1.49.29h1.89c2.37.51,4.72.44,7.14.97h5.26c1.21.26,2.64-.09,3.97.19.3.06.94.16,1.39.1.45-.07,1.39-.23,1.98-.1,1.26.29,2.91.29,4.17,0,1.43-.33,3.47.11,4.86-.19h5.66c2.17-.48,4.38-.52,6.45-.97,1.66-.36,3.19.17,4.76-.19.83-.19,1.51-.58,2.28-.77l2.98-.29,1.49-.68h1.98c1.04-.25,2.08-.63,3.08-.87.95-.23,1.8-.06,2.68-.39.29-.11.52-.47.79-.58l1.89-.19c.47-.17.88-.63,1.39-.77,1-.29,1.97-.09,2.88-.39.55-.18,1.02-.61,1.59-.77l1.59-.1c.34-.11.6-.53.89-.68l1.79-.39c.35-.15.63-.54.99-.68l1.89-.19c.27-.12.52-.46.79-.58.54-.23,1.12-.19,1.59-.48.22-.14.43-.48.69-.58l1.59-.19c.37-.16.63-.62.99-.77.52-.23,1.14-.11,1.59-.39.26-.16.48-.55.79-.68l1.39-.1c.42-.14.72-.62,1.09-.77.44-.18.84-.06,1.19-.29.3-.19.52-.64.89-.77l1.19-.19c.26-.11.46-.44.69-.58.47-.28,1.04-.29,1.49-.58.16-.1.32-.4.5-.48.54-.27,1.12-.18,1.59-.48l.3-.39c.39-.25.91-.23,1.29-.48.2-.13.38-.45.6-.58l1.09-.29c.2-.12.4-.45.6-.58.45-.29,1.04-.29,1.49-.58,1.19-.77,2.48-1.69,3.67-2.42l1.19-.39c.63-.38,1.18-1.06,1.79-1.45l1.39-.48c1.61-1.04,3.16-2.44,4.76-3.48.31-.2.69-.18.99-.39.61-.4,1.1-1.13,1.69-1.55.69-.49,1.43-.76,2.08-1.26.2-.16.21-.51.4-.68.22-.2.64-.21.89-.39l.3-.39.79-.29.79-.87c.37-.26.83-.32,1.19-.58l1.39-1.45c1.72-1.26,3.19-2.76,4.96-3.97l.99-1.16c1.01-.9,1.98-1.8,3.08-2.61l1.39-1.74c.97-.73,1.46-1.4,2.28-2.23,1.21-1.2,2.41-2.21,3.47-3.58l1.39-1.26c.37-.5.59-.99.99-1.45l.4-.19c.23-.21.3-.52.5-.77l.99-.87c1.17-1.54,2.31-3,3.47-4.55.32-.42.88-.74,1.19-1.16.52-.71.77-1.54,1.29-2.23l.79-.58c1.07-1.4,1.86-2.88,2.88-4.35.26-.38.74-.68.99-1.06.58-.89.89-1.81,1.49-2.71,1.1-1.64,2.31-3.36,3.37-5.03l.6-1.45c2.23-3.35,4.05-6.97,5.66-10.94.16-.39.58-.73.79-1.06.28-.45.24-.96.5-1.45.1-.18.4-.38.5-.58.21-.47.12-.93.3-1.45.18-.52.61-.98.79-1.45l.2-1.16c.13-.33.54-.51.69-.77l.3-1.35c.25-.58.76-1.13.99-1.74l.2-1.26c.48-1.28,1.25-2.86,1.69-4.16l.3-1.74c.13-.36.48-.79.6-1.16l.1-1.16c.2-.65.68-1.22.89-1.84.22-.65.1-1.23.3-1.94.22-.78.58-1.51.79-2.32l.3-2.32c.19-.6.6-1.28.79-1.94l.1-1.84c.14-.49.55-.91.69-1.45l.2-2.61c.21-.8.58-1.73.79-2.52l.3-3.58v-1.65c.26-.98.53-2.23.79-3.39l.1-4.45c.75-3.1.89-6.72.89-10.55,0-1.53.21-3.48-.1-4.84v-3.87c-.23-.98-.37-2-.6-3v-1.55c-.21-.9-.3-1.93-.3-3v-1.94c-.13-.54-.02-1.28-.2-1.94-.09-.34-.39-.69-.5-.97-.15-.38-.12-1.09-.2-1.45-.28-1.21.18-2.56-.1-3.68-.25-.97-.65-2-.89-2.81l-.3-2.9c-.11-.32-.49-.58-.6-.87-.3-.83.03-2.07-.2-2.9-.23-.83-.65-1.72-.89-2.61l-.2-1.94-.69-1.55-.2-1.65c-.14-.36-.54-.71-.69-1.06l-.5-2.61c-.12-.3-.48-.66-.6-.97l-.2-1.55c-.42-1.33-1.15-2.9-1.69-4.16l-.3-1.45c-.46-1.2-1.29-2.53-1.79-3.68-.21-.48-.19-.89-.4-1.35-.13-.29-.48-.58-.6-.87l-.2-1.16c-.15-.39-.53-.79-.69-1.16l-.4-1.35c-.21-.34-.62-.67-.79-1.06-.17-.39-.08-.83-.3-1.16-.1-.15-.41-.32-.5-.48-.2-.38-.12-.76-.3-1.16-.18-.41-.61-.77-.79-1.16-.18-.38-.1-.7-.3-1.06-2.07-3.83-4.36-7.78-6.75-11.32-.21-.31-.2-.66-.4-.97-.4-.63-.98-1.25-1.39-1.84-.6-.87-.89-1.77-1.49-2.61-.19-.27-.6-.49-.79-.77-1.71-2.5-3.37-4.85-5.16-7.26-.31-.42-.88-.73-1.19-1.16-1.79-2.42-3.74-4.58-5.56-6.97l-1.49-1.35c-.21-.27-.33-.58-.6-.77-.35-.25-.74-.35-.99-.68-.27-.35-.42-.71-.69-1.06l-.79-.68c-.2-.27-.2-.59-.4-.87-.24-.33-.75-.43-1.09-.68l-1.09-1.16c-.16-.12-.34-.07-.5-.19-.47-.35-.76-1.13-1.19-1.55-1-.97-2.24-1.78-3.37-2.61-.59-.43-1.04-1.16-1.49-1.74-.23-.3-.68-.45-.99-.68-.38-.28-.63-.78-.99-1.06-1.13-.89-2.29-1.65-3.47-2.52-1.21-.88-2.24-2.14-3.47-3-.52-.37-1.17-.5-1.69-.87-.23-.16-.3-.49-.5-.68-.58-.55-1.42-.79-2.08-1.26l-.6-.68c-.82-.58-1.75-.87-2.58-1.45-.62-.43-1.24-1.14-1.89-1.55l-.99-.29-.3-.39c-.35-.25-.74-.33-1.09-.58l-.6-.68-1.19-.29c-.21-.12-.31-.45-.5-.58-.3-.21-.69-.19-.99-.39-.3-.19-.58-.58-.89-.77-.83-.51-1.65-.76-2.48-1.26-.21-.13-.47-.48-.69-.58-.42-.19-.84-.06-1.19-.29-.64-.41-1.46-1.23-2.18-1.55l-1.29-.29c-.39-.17-.61-.61-.99-.77-.45-.2-.91-.14-1.29-.39-.26-.17-.48-.54-.79-.68l-1.09-.19c-.4-.16-.62-.61-.99-.77l-1.19-.19-.6-.68-1.39-.29c-.2-.1-.4-.46-.6-.58-.46-.29-1.05-.26-1.59-.48-.3-.13-.59-.46-.89-.58l-1.98-.39c-.27-.14-.5-.55-.79-.68l-1.29-.29c-.25-.16-.39-.55-.69-.68-.57-.24-1.1.12-1.79-.1-.44-.14-.76-.6-1.19-.77l-1.89-.39c-.3-.11-.59-.47-.89-.58-.78-.29-1.75-.07-2.58-.39-.27-.11-.52-.46-.79-.58-.42-.18-.79-.05-1.29-.19l-1.59-.77-2.18-.29c-.41-.15-.82-.54-1.29-.68l-2.68-.39c-.58-.18-1.13-.62-1.69-.77-.88-.24-1.49.25-2.38,0-.55-.15-1.02-.6-1.59-.77l-2.38-.29c-.63-.16-1.2-.53-1.79-.68h-1.19c-.64-.14-1.62-.27-2.28-.29-.65-.02-1.07.17-1.79,0l-2.08-.68-3.97-.19c-.84-.19-1.73-.48-2.48-.68-.6-.15-1.35-.08-1.89-.19-6.48-.03-12.97-.06-19.45-.1Z"/>
  <path class="cls-3" d="M213.13,29.99c5.3-.06,11.33-.09,15.68.87l5.66.29c.58.16,1.14.53,1.79.68l2.38.1c.23.05.6.18.89.19h1.69c.74.18,1.51.58,2.28.77l2.18.19c.48.17.97.62,1.49.77l2.38.1c.53.15.93.62,1.49.77.94.26,1.74.1,2.58.39.47.16.93.53,1.49.68l1.79.19c.41.15.82.54,1.29.68.59.18,1.07.08,1.59.29.55.23,1.13.68,1.79.87l1.59.1c.36.12.64.53.99.68l1.39.29c.34.17.59.64.99.77l1.39.1c.36.14.46.62.79.77l1.49.19c.4.15.62.63.99.77l1.59.29c.3.13.51.54.79.68l1.29.19c.3.12.44.52.69.68l1.29.29c.89.37,1.82,1.22,2.68,1.65.48.24,1.01.15,1.49.39.23.11.47.45.69.58l1.19.39.5.58c.3.2.65.12.99.29.28.14.53.52.79.68l1.19.39c2.34,1.47,4.76,3.05,7.04,4.55.36.24.84.25,1.19.48.51.34.89.91,1.39,1.26.34.23.74.26,1.09.48.62.4,1.16,1.06,1.79,1.45.32.2.68.18.99.39,1.05.71,1.95,1.79,2.98,2.52.76.54,1.52.91,2.28,1.45.99.7,1.7,1.89,2.68,2.61,2.9,2.14,5.31,4.5,7.84,6.97,2.81,2.75,5.62,5.37,8.04,8.52.94,1.22,2.27,2.21,3.18,3.48.21.29.19.66.4.97.44.66,1.33,1.07,1.79,1.74,1.94,2.84,4.02,5.52,5.95,8.32l.3.77c.19.28.6.48.79.77.47.72.62,1.58,1.09,2.32.52.82,1.5,1.87,1.89,2.71l.2.87c.7,1.31,1.77,2.54,2.48,3.87.31.58.28,1.24.6,1.84.72,1.35,2.05,3,2.58,4.45l.2,1.26c.12.28.44.53.6.77.28.45.23,1.06.5,1.55.16.31.55.63.69.97l.2,1.16c.14.28.57.57.69.87l.4,1.84c.15.35.55.7.69,1.06l.3,1.65c.12.27.48.58.6.87l.2,1.26c.24.77.76,1.6.99,2.32l.2,1.45c.15.38.56.65.69,1.06l.3,1.94c.24.61.6,1.25.79,2.03l.3,2.42c.12.35.48.62.6.97l.3,3c.11.35.47.65.6.97l.3,2.61c.21.83.57,1.73.79,2.61v1.74c.19.86.27,2.03.4,2.81l-.1.87c.12.55.46.99.6,1.45v1.16c.19.84.25,1.7.2,2.52l-.2.1c-.46.33-.8-.02-1.39.1-2.46.47-5.43-.34-7.94.1-1.62.28-3.29,0-5.36,0h-11.21c-1.67,0-3.77-.21-5.26.1-.27.06-.45-.08-.6-.1-.88-.13-2.26-.07-2.98.1-.43.1-.89-.07-1.19-.1-1.16-.11-2.57.04-3.57.1-.9.05-1.97-.26-2.68.19-.71.46-.73,2.16-.6,3.39.19,1.71.1,4.17.1,6.19,0,.84-.15,1.71,0,2.32.22.92.09,4.63-.1,5.42-.19.83.24,2.31,0,3.29-.28,1.15,0,2.8.6,3.19.72.52,2.12.19,3.18.19h8.04c10.43,0,20.72.02,30.76,0,.08.14.18.28.3.39l.1,2.9c-.22.91-.56,1.81-.79,2.81v1.74c-.16.67-.24,1.55-.4,2.23-.04.16.11.84,0,1.26-.18.7-.51,1.49-.69,2.23-.23.94-.03,1.67-.3,2.52-.17.55-.54,1.15-.69,1.74l-.2,2.32c-.18.59-.62,1.06-.79,1.74l-.3,2.81c-.11.3-.48.67-.6.97l-.3,1.94c-.18.46-.64.86-.79,1.35l-.1,1.26c-.14.46-.53.88-.69,1.35-.29.85-.25,1.64-.6,2.42-.14.33-.47.68-.6,1.06l-.2,1.16c-.12.29-.48.58-.6.87-.16.4-.06.66-.2,1.06-.22.63-.64,1.27-.89,1.84-.22.5-.17.96-.4,1.45-.42.91-1.3,2.21-1.69,3.1l-.2,1.16c-.22.57-1.04,1.76-1.39,2.32-.34.54-.34,1.28-.69,1.84-.53.85-1.31,1.96-1.69,2.9l-.2.87c-.47.71-1.23,1.48-1.69,2.23-.26.43-.24.95-.5,1.35-.4.64-.98,1.31-1.39,1.94-.25.38-.24.88-.5,1.26-.48.7-1.27,1.37-1.69,2.13-.49.88-.82,1.78-1.39,2.61-.65.95-1.61,1.78-2.28,2.71-.28.39-.31.96-.6,1.35l-.6.48c-.82,1.07-1.57,2.13-2.38,3.19l-.69.58c-.5.68-.78,1.45-1.29,2.13-.6.8-1.57,1.44-2.18,2.23-.57.74-1.12,1.48-1.79,2.13l-1.79,1.65c-.87,1.12-2.15,2.75-3.27,3.58-.46.34-.91.65-1.29,1.06-1.49,1.63-2.96,3.12-4.76,4.45l-1.59,1.74c-.58.42-1.13.73-1.69,1.16l-.69.97c-.39.29-.85.32-1.29.58-.52.31-.9.91-1.39,1.26-.25.18-.56.2-.79.39-.56.45-.9,1.23-1.49,1.65-.65.47-1.42.71-2.08,1.16-1.12.77-2.14,1.89-3.27,2.61-.38.24-.84.24-1.19.48-.53.37-.95,1.12-1.49,1.45l-1.19.29-.5.58c-.31.2-.68.19-.99.39-.38.23-.65.68-1.09.87-.28.12-.55.04-.79.19-.69.43-1.4,1.11-2.08,1.55l-1.89.68c-.52.31-.92.85-1.39,1.16-.36.24-.83.12-1.29.29-.44.17-.62.68-.99.87-.38.2-.86.08-1.19.29-.25.16-.39.56-.69.68l-1.29.19c-.68.33-1.55,1.14-2.18,1.55-.45.29-.88.07-1.49.29-.4.15-.52.7-.89.87-.38.17-.93-.07-1.39.1-.4.14-.59.72-.99.87-.56.22-1.08-.02-1.69.19-.25.09-.47.45-.69.58-.39.23-.86.17-1.29.39-.28.14-.49.55-.79.68l-1.79.19c-.37.14-.73.53-1.09.68l-1.79.48c-.23.13-.44.48-.69.58l-2.28.19c-.28.11-.6.46-.89.58-.74.31-1.53.25-2.28.58-.35.15-.56.56-.99.68-.63.18-1.34-.07-1.89.1-.93.29-2.04.7-3.08.97l-1.79.19c-.38.14-.69.56-1.09.68l-2.38.1c-.37.09-.96.2-1.29.39-.07.04-.2.26-.3.29l-1.69.1c-.67.15-1.59.16-2.38.39-.46.13-.95.45-1.49.58l-3.18.1c-.36.08-.97.18-1.39.19h-1.89c-.5.14-.93.54-1.49.68l-3.18.1c-2.07.03-4.56-.02-6.45.39h-2.08c-2.21.48-5.54.38-7.74-.1-1.12-.24-2.58.01-3.47-.19l-6.15-.1c-1.21-.27-2.17-.51-3.37-.77l-5.46-.29c-1.13-.28-2.65-.67-3.87-.97h-1.39c-.65-.17-1.24-.6-1.98-.77l-2.38-.1c-.51-.15-.94-.62-1.49-.77-1.05-.3-2.2-.06-3.18-.39-.5-.17-.96-.63-1.49-.77h-1.59c-.47-.14-.84-.61-1.29-.77l-1.49-.19c-.63-.19-1.15-.67-1.79-.87-.65-.21-1.36.05-2.08-.19-.29-.1-.47-.44-.69-.58l-1.79-.58c-.2-.1-.47-.39-.69-.48l-1.98-.29c-.48-.2-.9-.67-1.39-.87l-1.19-.19c-.26-.14-.48-.56-.79-.68l-1.29-.19c-.22-.11-.4-.46-.6-.58-.37-.23-.83-.12-1.29-.29-.43-.16-.77-.63-1.19-.77-.51-.18-.99-.04-1.39-.29l-.5-.58-1.39-.48c-.3-.17-.55-.53-.89-.68-1-.42-2.2-.7-3.08-1.26-.18-.11-.29-.38-.5-.48l-1.49-.48c-.16-.14-.2-.46-.4-.58l-1.29-.29c-.19-.12-.23-.46-.4-.58l-1.19-.39c-.71-.43-1.47-1.1-2.18-1.55l-1.09-.39-.6-.68c-.84-.55-1.81-.83-2.68-1.35-.58-.35-1.04-.98-1.59-1.35-.4-.28-1-.29-1.39-.58-.43-.32-.99-1.12-1.49-1.45-1.25-.84-2.51-1.47-3.77-2.32l-1.39-1.55-.89-.29c-.46-.24-.93-.74-1.39-1.06l-2.48-2.52c-.35-.24-.83-.24-1.19-.48l-.5-.68c-.25-.26-.59-.36-.89-.58l-1.59-1.74c-.66-.48-1.49-.91-1.98-1.55-.31-.4-.59-.87-.99-1.16-3.03-2.24-5.46-5.34-7.74-8.32l-2.28-2.13c-.63-.82-1.08-1.66-1.69-2.52-.46-.65-1.31-1.09-1.79-1.74-.91-1.23-1.56-2.54-2.48-3.77-.79-1.07-1.85-2.17-2.58-3.29-.49-.75-.77-1.49-1.29-2.23l-.6-.48c-.56-.81-.74-1.8-1.29-2.61-1.83-2.71-3.39-5.48-4.86-8.61-.67-1.41-1.74-2.87-2.48-4.26-.29-.55-.24-1.14-.5-1.74-.18-.43-.62-.73-.79-1.16l-.2-1.06c-.11-.25-.47-.45-.6-.68-.24-.44-.18-.89-.4-1.35-.15-.33-.56-.62-.69-.97l-.3-1.74c-.47-1.11-1.24-2.52-1.69-3.68l-.3-1.65c-.12-.3-.48-.67-.6-.97l-.4-1.84c-.19-.55-.62-1.07-.79-1.65l-.1-1.35c-.17-.58-.61-1.1-.79-1.65-.26-.76-.07-1.48-.3-2.32-.19-.7-.59-1.34-.79-2.03l-.2-1.84c-.16-.49-.55-.93-.69-1.45l-.1-1.84c-.25-1.04-.64-2.39-.89-3.39-.38-1.48.09-3.23-.3-4.74-.2-.76-.59-1.63-.79-2.42-.36-1.38-.24-3.9,0-5.03l.3-.1c.53-.32,1.21.14,1.89,0,1-.21,2.92-.25,3.97-.1.19.03.56.17.89.1,2.14-.45,5.91-.1,8.33-.1h24.51c.98,0,2.28.21,2.58-.48.38-.55.1-3.78.1-4.94l.1-13.26c0-1.4.35-4.94-.6-5.32-.44-.36-1.36-.09-2.08-.19l-3.47-.1c-.5.11-1.62.24-2.28.1-.79-.17-1.78,0-2.78,0l-5.26-.1h-21.63c-.6.03-1.49.13-2.08,0-1.05-.23-2.19.52-2.58-.39-.16-.24-.12-3.19,0-3.68.09-.36.21-.99.3-1.35v-.97c.11-.3.49-.62.6-.97v-1.55c.33-1.44.21-3.18.6-4.45.18-.61.44-1.36.6-1.94l.2-2.03c.16-.56.54-1.06.69-1.65l.2-2.32.69-1.55.3-2.23c.14-.43.55-.78.69-1.16l.2-1.65c.18-.57.58-1.17.79-1.74.25-.66.22-1.3.5-1.94.13-.3.47-.65.6-.97l.2-1.94c.1-.28.47-.53.6-.77l.4-1.74c.15-.27.55-.45.69-.77l.3-1.65c1.08-2.56,2.54-5.14,3.67-7.65l.2-.97c.12-.28.44-.45.6-.68.42-.62.74-1.45,1.09-2.03l.6-1.74c.4-.66.99-1.3,1.39-1.94.14-.23.08-.41.2-.68.18-.39.58-.72.79-1.06.25-.39.25-.87.5-1.26.42-.66,1.06-1.3,1.49-1.94.26-.38.25-.88.5-1.26.14-.21.46-.38.6-.58.52-.76.75-1.59,1.29-2.32.18-.24.53-.42.69-.68.5-.77.75-1.59,1.29-2.32l.6-.48c1.2-1.6,2.25-3.2,3.37-4.84.73-1.07,1.91-1.89,2.68-2.9.4-.52.6-1.1.99-1.65l1.39-1.26c.97-1.29,2-2.41,2.98-3.68l4.86-4.65c3.57-3.48,7.08-6.92,11.21-9.87.74-.53,1.34-1.41,2.08-1.94,2-1.42,3.98-2.62,6.05-3.97.65-.42,1.25-1.1,1.89-1.55.31-.22.63-.19.99-.39.29-.16.52-.59.79-.77l.79-.29c.22-.13.39-.45.6-.58.81-.53,1.65-.75,2.48-1.26.36-.22.63-.65.99-.87.92-.56,1.96-.76,2.88-1.35.23-.15.42-.44.69-.58l.99-.29c.65-.41,1.43-1.03,2.08-1.45.44-.28.95-.18,1.49-.39.34-.13.6-.51.89-.68l1.39-.48c.21-.14.33-.47.6-.58l1.19-.19c.34-.12.6-.51.89-.68l1.39-.39c.24-.12.44-.47.69-.58l1.19-.19c.4-.13.65-.53.99-.68l1.79-.39c.31-.13.53-.54.79-.68l1.39-.29c.3-.13.53-.54.79-.68l1.79-.29c.36-.13.66-.54.99-.68l2.28-.29c.36-.15.72-.52,1.09-.68.49-.2,1.05-.09,1.59-.29.43-.16.77-.64,1.19-.77l1.69-.1c.73-.2,1.42-.67,2.18-.87.87-.23,1.72-.08,2.48-.39.32-.13.65-.48.99-.58l2.38-.1c.67-.18,1.25-.69,1.98-.87l2.58-.29c.82-.22,1.76-.48,2.68-.68l3.57-.19c.67-.18,1.37-.5,2.18-.68l3.08-.1c1.99-.43,4.1-.46,5.95-.87.77-.17,1.83.04,2.48-.1,1.27-.27,5.04.4,5.85-.1Z"/>
  <path class="cls-4" d="M210.05,51.18c-.81.46-4.72-.09-5.95.19-1.11.25-2.23.51-3.47.77l-3.18.1c-.98.24-1.75.64-2.78.87-1.38.31-2.74-.13-3.97.19l-1.59.68-2.68.39c-.45.15-.86.56-1.29.68h-1.79c-.73.18-1.23.69-1.89.87-.77.21-1.45.02-2.08.29-.38.16-.64.62-.99.77l-2.08.1c-.41.13-.59.64-.99.77l-1.19.1c-.62.17-1.18.56-1.69.77l-1.29.29c-.36.15-.66.53-.99.68-.51.22-1.14.11-1.59.39-.27.17-.44.56-.79.68l-1.39.1c-.53.2-.87.77-1.39.97-.45.17-.93.05-1.29.29l-.5.68c-.44.25-.95,0-1.49.19-.3.11-.53.52-.79.68l-1.19.39-.4.58c-.43.29-.91.08-1.49.29-.26.09-.39.44-.6.58-.37.24-.81.25-1.19.48-.27.16-.52.54-.79.68l-.89.19c-.31.16-.45.62-.79.77-.35.16-.71.08-.99.29l-.4.68-1.49.39-.4.48c-.29.2-.65.24-.89.48l-.2.39c-.35.28-.88.24-1.29.48-.69.42-1.23,1.21-1.89,1.65-.31.2-.68.19-.99.39-.54.33-1.01.86-1.49,1.26-.85.72-1.9.63-2.08,2.03.18.22.22.54.4.77.44.59,1.18.91,1.79,1.35l.99,1.06c.58.43,1.09.82,1.69,1.26.55.4.86,1.14,1.39,1.55,1.37,1.05,2.66,2.07,4.07,3.1.94.69,2.57,3.03,3.87,3.1.73-.49,1.65-.59,2.38-1.06.36-.23.55-.74.89-.97.31-.2.68-.19.99-.39.65-.42,1.22-1.14,1.89-1.55.38-.23.84-.11,1.29-.29.66-.27,1.59-1.26,2.28-1.65l1.39-.29c.27-.14.45-.52.69-.68.31-.2.69-.18.99-.39l.5-.58,1.59-.29c.31-.16.48-.62.79-.77l1.09-.19c.34-.14.59-.53.89-.68l1.49-.29c.34-.15.64-.53.99-.68.45-.19.9-.15,1.29-.39.24-.15.5-.47.79-.58l1.69-.19c.35-.13.66-.53.99-.68l2.18-.58c.27-.14.56-.48.89-.58l1.98-.1c.76-.19,1.41-.67,2.08-.87.67-.2,1.28-.05,1.89-.29.37-.15.73-.54,1.09-.68.67-.25,1.6.09,2.38-.1.5-.12.98-.43,1.39-.58.68-.25,1.64-.24,2.28-.39,1.02-.24,2.05-.02,2.98-.29,1.59-.47,4.36-1.1,6.15-.29.08.82-.09,2.11-.1,3-.02,1.16.23,2.46,0,3.48-.32,1.44.02,3.97.1,5.32l-.1,3.39c.12,2.22.09,4.94.1,7.26.01,2.16-.02,4.21,0,6.19l-.1,2.9c.44,1.97.1,5.06.1,7.26,0,1.65.23,3.75-.1,5.23-.12.52.02,1.37.1,1.74.18.8-.09,1.73-.1,2.42-.02,1.19.25,2.55,0,3.68l.1,7.16c-.44,1.95,0,4.34,0,6.48,0,2.16.02,4.15,0,6.1l-.1,2.13c.24,1.59.26,3.79-.1,5.32-.14.61.1,1.26.2,1.65.09.37-.05.94-.1,1.16-.25,1.09.2,2.26,0,3.29-.31.2-.63.55-.99.68-1.16.41-4.82.1-6.35.1-1.01,0-2.36.14-3.08,0-.45-.09-1.92-.19-2.38-.1-1.42.28-3.78.1-5.46.1l-1.39-.1c-1,.18-3-.04-4.27,0-3.5.1-9.07.1-13.89.1-2.11,0-4.88-.27-6.65,0-.63.1-1.68-.08-2.28-.1-1.45-.05-3.34.18-4.96.1-.6-.03-1.49-.13-2.08,0h-3.77c-2.93,0-5.96-.23-8.63,0-1.46.13-4.37-.52-4.76.48-.37.49-.04,1.38-.2,2.13-.12.56.22,1.38.1,2.03-.07.35-.21,1.14-.1,1.65.17.77-.11,2.06,0,2.81.6,4.14-.57,8.31.1,12.1.08.46-.22,1.02-.3,1.35-.13.55.11.99.2,1.35.88.48,4.14.29,5.75.29h13.49c7.98,0,15.84,0,24.01,0,2.71,0,4.75,0,7.44,0,1.38,0,2.93-.24,4.07,0l2.98-.1c.86.18,2.15.1,3.18.1,3.17,0,6.85-.42,9.62.19,1.17,1.83.6,5.21.6,7.94l.1,16.55c-.03,20.26-.07,40.52-.1,60.77-.31.23-.72.59-.99.87-1.33.03-2.57-.14-3.67-.39l-3.67-.19-1.79-.68c-.94-.25-1.96.1-2.98-.19-.5-.15-.85-.62-1.39-.77-1.01-.29-1.95-.09-2.98-.39-.43-.12-.71-.55-1.09-.68h-1.89c-.51-.13-.65-.45-.99-.68-.53-.34-1.23-.24-1.89-.48-.36-.14-.72-.55-1.09-.68l-2.28-.29c-.34-.16-.5-.64-.89-.77-.5-.17-.92.05-1.29-.19-.3-.2-.38-.64-.79-.77h-1.39c-.6-.17-.76-.77-1.29-.97l-1.29-.19c-.31-.17-.4-.64-.79-.77l-.99-.1c-.38-.13-.59-.49-.89-.68l-1.39-.48c-1.22-.77-2.54-1.58-3.77-2.32l-1.49-.48c-.72-.47-1.52-1.19-2.28-1.65l-.79-.29c-.98-.67-3.08-2.65-4.46-2.71-1.02,1.05-2.21,2-3.37,2.9-.31.24-.51.7-.79.97-.52.48-1.11.83-1.69,1.26l-1.19,1.26c-.53.39-1.03.71-1.49,1.16l-.79.87c-.27.19-.6.2-.89.39-1.1.73-2.51,2.33-3.47,3.29v.87c2.09,1.84,4.51,3.66,6.95,5.13.37.22.79.17,1.19.39.64.35,1.57,1.4,2.18,1.74l.99.29c.36.21.68.6,1.09.77.36.15.69.1.99.29.3.19.58.58.89.77.76.46,1.53.68,2.28,1.16.22.14.43.48.69.58l1.29.19c.27.13.46.53.69.68l1.19.39c.23.14.44.47.69.58l1.49.29c.26.12.38.44.6.58.38.25.84.2,1.29.39.4.17.72.61,1.09.77l1.79.29c.34.14.64.53.99.68.49.2.93.15,1.39.39.25.13.51.47.79.58l1.69.29c.34.17.66.55,1.09.68.72.22,1.35.11,1.98.39.37.16.75.56,1.19.68l1.59.1c.35.13.57.55.89.68l1.49.19c.67.24,1.31.77,2.08.97h2.48c.7.16,1.24.58,1.89.77.75.22,1.45-.01,2.28.19l2.38.87,5.56.29c.3.08.63.39.89.48.82.3,2,.22,2.78.39l5.16.1c3.7.8,9.75,1,13.49.1h1.69c1.39-.3,3.19.15,4.76-.19.85-.18,1.89-.12,2.78-.39.44-.13.8-.47,1.29-.58l1.19.1,4.17-.29c.51-.13.95-.53,1.39-.68l3.08-.39c.47-.14.89-.54,1.29-.68,1.15-.4,2.29.15,3.47-.19.5-.14.93-.59,1.39-.77l1.69-.29c.34-.14.57-.55.89-.68.53-.21,1.26.08,1.89-.1.49-.14.84-.61,1.29-.77l2.08-.39c.28-.14.49-.56.79-.68l1.49-.19c.32-.13.57-.55.89-.68l1.39-.29c.39-.17.7-.63,1.09-.77l1.89-.19c.32-.16.57-.61.89-.77l.89-.19c.35-.14.68-.52.99-.68l1.09-.19c.32-.13.53-.51.79-.68l1.59-.48.6-.68,1.59-.29c.17-.08.34-.39.5-.48.38-.24.81-.25,1.19-.48.21-.13.39-.45.6-.58l.89-.29c.73-.44,1.55-1.09,2.28-1.55l1.19-.39.6-.68c.31-.2.69-.19.99-.39.83-.55,1.72-1.3,2.58-1.84,1.07-.67,2.26-1.2,3.27-1.94l.6-.77c.92-.62,2.17-.95,2.38-2.23-.42-.4-.65-1.09-1.09-1.45-.24-.19-.54-.21-.79-.39l-.79-.87c-1.29-.95-2.37-2.05-3.67-3-.65-.48-1.13-1.28-1.79-1.74-2.07-1.47-4.09-3.15-5.85-4.94h-.6c-.21.23-.44.7-.69.87-.34.23-.77.1-1.19.29-.35.16-.81.53-1.19.77-.29.18-.42.59-.69.77-.75.5-1.64.76-2.38,1.26l-.5.68-1.39.29-.69.87c-.35.23-.78.1-1.19.29-.72.33-1.4,1.11-2.08,1.45l-.99.19c-.4.16-.73.59-1.09.77-.36.18-.67.04-1.09.19-.4.14-.62.64-.99.77l-.99.1c-.52.19-.69.76-1.09.97-.48.25-1.21-.11-1.79.1-.32.11-.36.51-.6.68-.37.27-1.03.09-1.49.29-.4.17-.59.72-.99.87l-2.08.1c-.35.11-.52.53-.79.68l-1.89.39c-.39.15-.67.62-.99.77-.66.32-1.39-.18-2.08,0-.6.16-.92.7-1.49.87l-2.88.29c-.5.14-.86.61-1.29.77-.86.33-1.86-.13-2.68.1-.64.18-1.25.61-1.89.77l-2.38.1c-1.69.36-4.09.55-5.75.19-.68-1.18-.5-3.99-.5-5.81v-70.45c0-1.63-.22-3.68.1-5.13.25-1.16-.53-4.08.6-4.55.91-.55,3.73.14,4.86-.1,1.31-.27,3.02,0,4.56,0h9.92c16.91,0,34.28-.09,51.1-.1.08-.14.18-.28.3-.39,0-4.77,0-10.13,0-15.19,0-2.71.25-5.87-.2-8.03-1.24-.76-2.33-.18-4.07-.48-1.09-.19-3.34,0-4.96,0-3.07,0-5.98,0-9.13,0-11.72,0-23.7,0-36.12,0h-11.21c-1.65,0-4.2.21-5.26-.19-.86-1.49-.5-4.66-.5-6.87v-72c0-2.37-.22-5.23.2-7.06l.3-.1c.32-.21,3.65-.05,4.17.1.75.21,1.77.48,2.58.68,1.32.32,2.54.05,3.77.39l1.79.68h2.28c.5.13.8.48,1.19.68.63.32,1.3.16,2.08.39.65.19,1.2.69,1.89.87l2.18.19c.36.15.66.54,1.09.68l1.39.19c.4.16.72.63,1.09.77l1.89.19c.3.15.54.62.89.77l1.19.19c.23.09.41.37.6.48.45.28.96.26,1.49.48l1.29.77,1.29.29c.26.13.45.54.69.68l1.39.29c.63.31,1.58,1.06,2.18,1.45l1.59.58c.74.42,1.49,1.02,2.18,1.45.31.19.63.13.99.29.35.16,1.12.71,1.49.97.28.2.49.59.79.77.75.46,1.51.66,2.18,1.16.57.42.41.71,1.39.97,1.73.46,3.07-1.47,3.87-2.13.55-.46.97-1.05,1.49-1.55.47-.46,1.14-.67,1.69-1.06l.89-1.06c.29-.19.62-.19.89-.39.19-.14.24-.41.4-.58l2.38-2.13c.84-.6,3.14-2.4,3.27-3.48-.52-.32-.8-.93-1.29-1.26l-.6-.19c-.62-.41-1.17-1.12-1.79-1.55-.83-.58-1.73-.89-2.58-1.45-1.12-.75-2.23-1.79-3.37-2.52l-1.19-.39c-.67-.42-1.41-1.03-2.08-1.45l-1.29-.39-.5-.58c-.3-.2-.65-.12-.99-.29-.31-.16-.51-.6-.79-.77l-.99-.19c-.51-.21-.86-.78-1.39-.97-.39-.14-.69,0-.99-.19-.2-.13-.38-.45-.6-.58l-1.09-.29c-.3-.13-.61-.45-.89-.58-.45-.2-.86-.16-1.29-.39-.35-.18-.69-.64-1.09-.77l-1.39-.1c-.42-.16-.64-.7-1.09-.87l-1.39-.19c-.41-.15-.68-.62-1.09-.77-.48-.18-1.01-.05-1.39-.29-.23-.15-.4-.47-.69-.58l-1.79-.29c-.42-.17-.78-.64-1.19-.77-.69-.22-1.58.14-2.18-.1-.3-.12-.51-.54-.79-.68-.77-.39-1.67-.21-2.58-.48-.52-.15-.87-.63-1.39-.77-.76-.21-1.44.26-2.18,0-.37-.13-.7-.54-1.09-.68l-2.68-.39c-.44-.13-.88-.54-1.29-.68-1.41-.46-2.73.13-4.17-.19-.98-.22-1.74-.64-2.68-.87l-4.86-.19c-.93-.22-1.82-.54-2.88-.77l-14.78-.1Z"/>
  <path class="cls-1" d="M124.33,91.54c-.44.42-1.23.56-1.59,1.06-.21.3-.19.67-.4.97-.6.87-1.64,1.48-2.28,2.32-2.34,3.1-4.75,6.17-6.95,9.39-.31.46-.39.97-.69,1.45-.69,1.08-1.57,2.24-2.28,3.29-.26.38-.25.87-.5,1.26-1.1,1.75-1.97,3.57-2.98,5.52-.8,1.56-1.87,3.11-2.58,4.74l-.5,1.84c-.1.23-.39.46-.5.68-.24.51-.21,1.09-.5,1.55-.11.18-.41.38-.5.58l-.3,1.35c-.53,1.23-1.24,2.84-1.69,4.16-.19.55-.11,1-.3,1.55-.48,1.42-1.06,2.83-1.09,4.84,1.46.89,4.8.58,7.24.58h67.07c.88,0,1.83-.18,2.48-.1,1.71.22,4.65.38,6.35,0,.65-.14,1.39.11,1.89.19.28.05.95-.14,1.19-.19.73-.16,1.44.07,2.08,0,.2-.3.34-.28.4-.77.33-.51.1-1.99.1-2.71v-39.77c0-1.5.27-2.77-1.29-2.81-.53.37-1.4.24-2.08.48-.49.18-.81.62-1.29.77l-1.49.19c-.26.15-.39.55-.69.68l-1.29.19c-.28.14-.49.62-.79.77-.44.23-.99.14-1.39.39-.73.46-1.68,1.2-2.48,1.55-.39.17-.85.08-1.19.29-.2.12-.4.45-.6.58-.88.57-1.82.87-2.68,1.45l-.5.58-.99.29c-.23.15-.2.5-.4.68l-.79.29-.5.58-.6.1c-.25.14-.46.52-.69.68-.37.26-.83.32-1.19.58-.66.47-1.1,1.28-1.69,1.84-.57.53-1.23.37-1.29,1.45.26.14.42.19.89.19.55-.33,2.69.45,3.77.29,1.19-.17,2.57,0,3.97,0,2.11,0,4.42-.13,6.25,0,.13.18.2.17.3.39.35.4.2,3.38.2,4.45,0,2.26-.09,4.66-.1,6.77l.2,3.48c-.13.55-.26,1.36-.4,2.03-1.4.34-4.18.55-5.85.19h-43.36c-1.07,0-2.77.32-2.98-.58.76-.82.94-1.95,1.49-3,.44-.84,1.19-1.64,1.69-2.42.29-.45.3-1.01.6-1.45,1.83-2.75,3.78-5.56,5.75-8.23l.79-.68c.88-1.17,1.81-2.23,2.68-3.39.53-.71,1.25-.89,1.29-2.13-4.19-4.14-9.44-7.24-13.69-11.32h-.79Z"/>
  <path class="cls-1" d="M305.31,91.54c-.55.41-1.24.57-1.79.97l-.99,1.06c-.91.64-1.7,1.2-2.58,1.84-.79.58-1.37,1.59-2.18,2.13l-.89.29-.69.77c-.55.53-1.21,1.05-1.79,1.55-.72.62-3.04,1.86-3.18,2.81-.09.65.63,1.01.89,1.35.27.36.33.78.6,1.16.63.91,1.61,1.71,2.28,2.61,2.12,2.87,4.35,5.75,6.35,8.71.51.75.67,1.64,1.19,2.42.51.77,1.31,1.65,1.69,2.52l.3,1.16c.33.61.85.53.89,1.55-1.02.56-1.05.03-2.28.29-1.23.26-3.63.27-4.86,0h-33.34c-2.61,0-6.44.52-8.83,0-.86-.19-2.83.37-3.18-.29v-16.74c.4-.37.73-.41,1.59-.39.49.3,2.97.1,3.77.1,2.55,0,5-.05,7.04-.48.98-.21,1.91.17,2.78,0,.06-.17.09-.31.1-.58-.56-.49-1.2-.87-1.79-1.35-.33-.27-.49-.77-.79-1.06-.44-.42-1.71-.95-2.28-1.35l-.79-.87-.89-.29c-.69-.42-1.41-1.13-2.08-1.55l-1.19-.39c-.59-.39-1.22-1.19-1.89-1.55-.51-.27-1.11-.19-1.59-.48-.79-.49-1.78-1.3-2.68-1.65-.52-.2-.97-.12-1.39-.39-.28-.18-.55-.55-.89-.68l-1.29-.19-.6-.68-1.49-.19c-.3-.11-.52-.54-.79-.68-.54-.27-2.25-.47-2.78-.39-.52,1.04-.3,2.57-.3,4.16v37.74c0,1.33-.14,2.54.1,3.77,1.24.68,4.45.29,6.45.29h75.01c2.23,0,5,.25,6.65-.39.08-.14.18-.28.3-.39.08-2.47-.83-4.07-1.59-5.81l-.6-2.52c-.1-.23-.4-.46-.5-.68-.26-.58-.18-1.24-.5-1.74-.13-.21-.48-.46-.6-.68l-.2-1.26c-.15-.46-.62-.83-.79-1.26l-.3-1.45c-.15-.35-.54-.7-.69-1.06-.54-1.24-.8-2.3-1.49-3.39-.15-.24-.47-.49-.6-.77-.47-1.07-.62-1.95-1.19-2.9-2.31-3.84-4.51-7.67-7.04-11.32-.43-.62-1.15-1.2-1.59-1.84-.23-.34-.26-.72-.5-1.06-.64-.93-1.62-1.72-2.28-2.61-.33-.44-.41-1.07-.79-1.45-.51-.52-1.15-.97-1.59-1.55-.76-1-1.66-2.58-3.08-2.9Z"/>
  <path class="cls-1" d="M186.14,199.25c-.33.2-1.18.1-1.69.1h-79.38c-2.05,0-4.88-.31-6.45.29-.06.12-.11.2-.2.29-.05.86.27,1.53.5,2.32.15.55,0,.99.2,1.45.16.37.55.79.69,1.16l.3,1.65c.13.29.49.54.6.87l.1,1.35c.23.75.8,1.45,1.09,2.13l.2,1.26c.1.26.46.46.6.68l.4,1.45c.15.34.55.62.69.97l.1.97c.17.56.69.95.89,1.45.18.44.09.77.3,1.16.44.82,1.19,1.77,1.59,2.61.82,1.73,1.38,3.43,2.38,5.03.17.28.52.59.69.87l.3.77.69.58c.53.76.67,1.66,1.19,2.42.85,1.25,1.97,2.51,2.78,3.77.29.46.39.93.69,1.35.29.41.8.76,1.09,1.16.76,1.03,1.32,2.08,2.08,3.1.29.38.82.68,1.09,1.06.84,1.21,1.51,2.33,2.68,3.19.69.51,1.06,1.71,1.89,2.03.19.13.61.13.79,0,.46-.16.55-.52.89-.77.82-.61,1.56-1.23,2.38-1.84.33-.24.49-.72.79-.97.4-.32.96-.39,1.39-.68l1.19-1.26c.64-.46,1.27-.79,1.89-1.26l.6-.77c.42-.29.89-.39,1.29-.68l.89-1.06c.92-.66,1.67-1.28,2.48-2.03.01-1.59-.92-1.74-1.69-2.52l-.69-1.35-.3-.1c-.33-.26-.75-.83-.99-1.16-1.31-1.76-2.83-3.44-4.07-5.23-.26-.37-.24-.88-.5-1.26-.47-.69-1.22-1.31-1.69-2.03-.48-.74-.68-1.58-1.19-2.32-.45-.65-1.04-1.45-1.49-2.13l-.6-1.55c-.42-.74-.88-.85-.89-2.13.24-.13.28-.17.69-.19.37-.21,2.29.1,3.08.1,2.4,0,5.09-.1,7.64-.1h28.77c2.77,0,5.72.15,8.43,0,.98-.05,2.67-.32,3.27.1.6.42.64,3.02.4,4.06-.27,1.14,0,2.46,0,3.97,0,3.32.14,6.56-.4,9.19-.92.41-2.96.58-4.27.29l-1.98.1c-.7-.14-4.14-.16-4.86,0-.9.2-3.51-.02-3.77.39h-.1v.1h.1c.22.57.68.61,1.09.97l1.49,1.65c.51.37,1.06.59,1.59.97l.79.87c.73.49,1.55.68,2.28,1.16.62.41,1.23,1.18,1.89,1.55.34.19.63.13.99.29.31.14.53.51.79.68l.99.29c.32.17.58.59.89.77l.89.19c.35.14.61.52.89.68.42.23.9.14,1.29.39l.6.68c.55.3,1.28.17,1.79.48.18.11.36.4.6.48.45.17.79.08,1.19.29.3.15.55.56.89.68.55.2,1.1.03,1.59.29l.3.39c.59.38,1.66.44,2.48.29.17-.26.25-.24.3-.68.27-.43.2-2.1.2-2.81v-32.42c0-2.63.37-6.11-.1-8.52-.16-.81.35-1.49-.5-1.84-.21-.16-.41-.18-.79-.19Z"/>
  <path class="cls-1" d="M243.29,199.34c-1.29,1.36-.22,1.35-.6,3.1-.16.75,0,1.55,0,2.42v37.26c0,1.29-.15,2.5.1,3.48,1.56.41,1.92-.22,3.08-.58.49-.15.83-.05,1.19-.29.33-.21.57-.62.99-.77.53-.19,1.06-.04,1.49-.29.3-.17.55-.53.89-.68,6.89-2.93,12.7-6.54,17.76-11.23v-.19l-.3-.1c-.47-.28-2.91-.29-3.77-.29l-2.98-.1c-1.16.24-4.46.28-5.46.1-.83-.15-1.93.21-2.48-.19-.87-.95.03-3.56-.3-5.03-.14-.62.17-1.35,0-2.13-.21-.92,0-2.3,0-3.68,0-2.19-.32-4.65.1-6.48h.2c.62-.46,2.58-.19,3.57-.19h35.02c1.02,0,2.32-.09,3.18.1.89.2,1.89-.28,2.68-.19,1.62.17,3.43.2,5.46.19.85,0,1.28-.22,1.98-.1.48,1.15-1.9,4.36-2.48,5.42-2.17,4-4.9,7.55-7.54,11.13-1.16,1.57-3.77,2.99-3.77,5.52,2.21,1.96,4.42,3.85,6.85,5.61l1.09,1.16c.94.69,1.76,1.31,2.78,1.94,1.14.69,1.95,2.51,3.57,2.61,1.1-.93,1.9-1.95,2.78-3.1l.89-.77c.44-.57.75-1.15,1.19-1.74l.79-.68c.51-.68.79-1.43,1.29-2.13.77-1.1,1.93-2.08,2.68-3.19.49-.72.7-1.51,1.19-2.23.5-.73,1.36-1.45,1.79-2.23.19-.34.11-.63.3-.97.14-.26.54-.44.69-.68l.4-1.16c.17-.27.52-.51.69-.77.53-.83.66-1.74,1.19-2.61,2.22-3.66,4.2-7.56,5.75-11.9.16-.44.59-.79.79-1.16.28-.53.2-1.01.4-1.65.18-.58.61-1.08.79-1.65l.2-1.45c.15-.48.62-.82.79-1.26l.3-1.74c.37-.75,1.32-2.9.69-3.87-.09-.26-.1-.25-.3-.39-.68-.5-4.89-.19-6.15-.19h-81.46Z"/>
  <path class="cls-2" d="M238.43,381.18c1.23.35,3.51-.26,5.16.1,1.2.26,2.46.6,3.47.87h1.69c.53.11,1.41.18,1.89.29.4.86-.03,1.25.2,2.32.33,1.54.1,3.7.1,5.42,0,1.39.17,3.14-.1,4.35-.25,1.12.26,2.11-.1,3-2.52,1.1-8.12-1.25-9.03,1.84-.27.93.3,1.53.6,1.94,1.08,1.46,2.69,2.14,3.97,3.39.5.49,1,.74,1.59,1.16.52.37.81,1.06,1.29,1.45,3.68,3.01,6.43,6.77,7.74,12.1l.1,2.23c.38,1.64.41,2.08,0,3.68l-.1,2.32c-.13.59-.17,1.33-.4,1.94-.14.37-.56.79-.69,1.16l-.2,1.16c-.16.36-.59.65-.79.97-.42.64-.64,1.32-1.09,1.94-1.05,1.42-4.1,3.51-5.85,4.26l-1.29.29c-.34.14-.59.53-.89.68l-2.58.39c-.56.2-1.05.62-1.69.77l-4.66.1-6.65-.1c-1.17-.28-2.41-.61-3.57-.87l-2.88-.1c-.5-.12-.89-.42-1.29-.58l-1.89-.39c-.09-.31-.17-.34-.2-.77-.39-.6-.2-3.26-.2-4.26l.1-6.29c-.29-1.33-.1-3.77.2-5.03.25-.13.35-.19.79-.19.5.42,1.43.18,2.18.39.65.18,1.46.51,2.18.68,1.09.25,2.35.08,3.37.29h2.98c1,.22,2.27.44,3.27,0,.86-.38,1.17-1.41,1.79-2.03,0-.53.09-1.26-.1-1.65-.35-.71-1.03-1.13-1.59-1.65-1-.93-1.87-2.2-2.98-3-.38-.28-.8-.4-1.19-.68-.54-.38-.95-1.06-1.49-1.45-.38-.27-.88-.31-1.29-.58l-1.69-1.74c-2.79-2.05-4.42-4.92-5.66-8.52-.15-.45-.56-.81-.69-1.26-.36-1.2-.42-6.02-.1-7.35.22-.93.73-1.54.99-2.32l.2-1.26c.11-.25.45-.45.6-.68.24-.37.26-.79.5-1.16.37-.58.98-1.1,1.39-1.65l.4-.68c1.12-.93,2.4-1.51,3.67-2.32.32-.2.5-.61.89-.77l1.09-.19c.33-.15.58-.56.99-.68.88-.26,1.65-.06,2.58-.29.91-.23,1.83-.64,2.88-.87.64-.14,1.61.19,2.08-.1Z"/>
  <path class="cls-2" d="M5.66,382.44c4.82-.01,10,.1,14.98.1l3.37-.1c.36.07,1.17.2,1.69.1.6-.12,2.13-.1,2.68,0,1.18.22,5.2-.44,5.75.19.57.74.4,2.78.4,3.97v2.81c-.15.66-.38,1.77-.2,2.61.3,1.37.35,4.11-.1,5.23-1.05.44-2.83.08-4.07.1-2.35.02-5.62.48-7.94,0-.76-.16-3.3.07-3.57.39-.35.44-.01,1.17,0,1.84.02,1.25-.61,3.85.6,4.26.77.56,2.91.09,4.07.19,2.12.19,4.66.1,6.95.1,1.32,0,2.77-.06,3.67.29.47.81.2,2.37.2,3.68v6.29c.2.94.11,2.48-.1,3.29-4.07,1.23-10.7-.38-15.08.58-.67,1.16-.3,3.28-.3,5.03l-.2,10.26c0,1.54.56,5.59-.6,6.1h-2.18c-.46-.28-3.03-.11-3.57,0l-2.78-.1c-1.41.29-4.94.29-6.35,0-.67-.14-1.68.2-2.18-.1-.29-.09-.35-.17-.5-.39-.36-.47-.3-2.44-.3-3.29v-37.36c.19-.84.18-2.47,0-3.29l.1-9c0-.95-.26-2.79.2-3.39.98-.88,4.23.29,5.36-.39Z"/>
  <path class="cls-2" d="M40.09,382.44c.93.02,2.23.32,3.27.1.24-.05.79-.16,1.19-.1.7.1,1.31.16,1.98,0l2.28.19c2.06-.45,4.7-.2,6.75,0,.42.04.92-.18,1.39-.1.87,1.47.4,6.23.4,8.71v21.39c.01.66.14,1.5,0,2.13-.22,1-.1,2.83.1,3.68l.1,1.84c.74,2.56,2.33,4.45,5.75,4.45h1.69c1.96-.48,3.54-2.49,4.07-4.35.43-1.52.1-4.87.1-6.68,0-6.28-.09-13.82-.1-20.52l.1-7.65c0-1.12-.18-2.43.5-2.9.45-.33,3.15-.1,4.17-.1,3.27,0,6.09,0,9.23,0,1.16,0,3.18-.33,3.87.1,1.62.56.45,3.03.79,4.84.21,1.12-.31,3.14,0,4.55.24,1.1,0,2.4,0,3.68v14.52c0,1.06-.1,2.4.1,3.29v2.81c0,2.42-.02,4.69-.5,6.58-.3,1.18-.08,2.21-.4,3.39-.11.42-.45.73-.6,1.06l-.4,1.74c-.15.34-.52.65-.69.97l-.5,1.45c-2.13,3.25-4.97,5.92-8.73,7.55l-1.69.39c-.64.26-1.32.66-2.08.87l-1.98.19c-.51.15-1.02.54-1.59.68l-4.07.1c-1.29,0-2.61-.15-3.77-.1-1.23.06-2.51.13-3.67-.19-.42-.12-.88-.46-1.29-.58-.93-.27-1.95-.05-2.78-.39-.31-.13-.68-.45-.99-.58-.5-.2-1.06-.13-1.49-.39-.16-.09-.33-.4-.5-.48-.49-.24-1.06-.12-1.49-.39-3.35-2.11-5.99-5.04-7.84-8.61-.25-.48-.12-.99-.3-1.55-.3-.97-.73-1.83-.99-3l-.2-3.97c-.27-1.08-.48-2.57-.3-3.77l-.1-2.03c.09-.38.22-.78.2-1.35-.06-1.96-.1-4.27-.1-6.39,0-1-.09-2.26.1-3.1l-.2-5.03c.18-.81-.18-1.89,0-2.71.29-1.33.3-3.9,0-5.23-.22-.96-.08-2.68.1-3.48l-.1-1.55c.24-1.12.12-2.55.4-3.58.14-.08.28-.18.4-.29.23-.02.28-.02.4-.1Z"/>
  <path class="cls-2" d="M112.52,382.44c5.89.05,11.65.09,17.76.1.1.17.12.16.2.39.52.67.03,1.68.2,2.52.38,1.89-.45,4.74,0,6.87.14.67,0,1.18,0,2.03v21.97c0,2.23-.12,4.54.2,6.58.1.67-.23,1.17,0,1.74.23.12.22.16.6.19.81.49,3.45.08,4.66.1,2.03.02,4.5.09,6.65.1,1.53,0,2.99-.16,4.27.1.12.22.16.22.2.58.59.91-.24,2.56,0,3.68.12.57.01,1.22-.1,1.74l.2,1.84c.02.97-.26,1.99-.1,3,.1.66.19,2.45-.1,2.9-.24.75-.91.91-1.98.87-.5-.3-1.97-.11-2.68-.1-2.09.04-4.21-.01-6.45,0-1.59.01-4.46-.15-5.95.19-1.45.33-4.13-.09-5.56-.1-4.32,0-8.33,0-12.1,0-.86-1.29-.6-2.97-.6-5.03l.1-10.74-.1-20.13v-6.29c0-1.06-.1-2.39.1-3.29v-3.39c0-2.65-.08-5.54.1-8.03.17-.1.36-.24.5-.39Z"/>
  <path class="cls-2" d="M150.03,382.44c1.57,0,3.41.02,4.86.1.92.05,1.77-.17,2.58,0,1.53.32,3.4-.26,4.66,0,1.82.38,3.49-.29,5.06,0l.1.29c.6.79.1,2.17.2,3.29.17,1.85.1,3.59.1,5.81v21.29c0,3.31-.4,7.37.99,9.39.65.94,2,1.52,3.27,1.84h1.49c.39.09.89.43,1.49.29,2.79-.63,3.92-2.54,4.56-5.32v-6.39c.43-1.94.1-4.64.1-6.77-.03-4.74-.07-9.48-.1-14.23,0-2.07-.19-4.48.1-6.39.15-1.01-.39-2.24.2-3,.4-.33,3.55-.1,4.56-.1h8.43c1.41,0,3.13-.14,4.37.1.82,1.71.4,4.5.4,6.87v29.13c0,2.23.13,4.59-.3,6.48l-.1,1.35c-.14.44-.53.86-.69,1.26l-.2,1.06c-.2.61-.66,1.1-.89,1.65-.19.44-.16.86-.4,1.26-1.85,3.05-5.3,5.84-8.63,7.45l-1.89.29c-.34.13-.64.55-.99.68l-2.58.29-1.59.58c-1.92.49-7.62.54-9.62.1h-1.69c-6.15-1.37-11.7-3.52-14.78-7.84-.37-.52-.44-1.18-.79-1.74-.46-.73-1.14-1.61-1.49-2.42l-.4-1.65c-.19-.46-.56-.94-.69-1.45l-.1-3.29c-.34-1.53-.1-3.19-.1-4.84v-24.87c0-1.39-.24-3.27,0-4.35v-4.16c-.04-.17-.18-.64-.1-.97l.3-.87c.12-.06.21-.11.3-.19Z"/>
  <path class="cls-2" d="M262.34,382.44l2.88.19c1.04-.21,3.15-.29,4.07-.1.41.09,1.03-.04,1.29-.1.48-.1,2.95.03,3.27.1.56.12,1.48-.01,1.89-.1.64-.13,3.51.07,4.17.19.11.17.25.35.4.48-.01,4.47,0,9.64,0,14.42,0,1.46-.39,4.21.69,4.65.43.37,1.38.29,2.18.29h5.06c.73,0,1.74.11,2.18-.19.5-.15.57-.46.89-.77.15-4.31,0-9.41,0-14.03,0-1.43-.39-4.21.5-4.84.44-.33,2.97-.1,3.97-.1,3.22,0,6.23,0,9.43,0,1.49,0,3.99-.44,4.37.58.66.86-.2,2.69,0,3.77.15.82,0,2.03,0,3.1v7.55c0,7,.1,13.73.1,20.81v6.77c0,1.12.11,2.53-.1,3.48-.17.78.08,1.65.1,2.32.05,2.53.35,6.27-.2,8.42-1.1.62-3.42.39-5.26.39-4.16,0-8.83.21-12.4-.19-.15-.24-.39-.57-.6-.77.02-2.69.1-5.68.1-8.52,0-1.27.25-2.55,0-3.68v-2.23c0-1.83.04-3.75-.3-5.23-.3-.15-.66-.4-.99-.48-.77-.2-2.26-.03-2.88.1l-3.47-.1c-.77,0-2.08-.31-2.58,0-.5.15-.57.46-.89.77l.1,13.45c0,2.01.26,4.46-.1,6.29-1.41.65-5.42.93-7.54.48l-2.98.1c-2.5,0-5.02.06-7.34-.1-.12-.18-.4-.32-.5-.48-.36-.64-.1-2.24-.1-3.1v-8.32c-.09-.51-.16-1.79,0-2.52v-6.1c0-5.88,0-11.35,0-17.32v-12.39c0-2.32-.19-4.89.2-6.68.14-.08.28-.18.4-.29Z"/>
  <path class="cls-2" d="M430.42,383.02v40.45h-.4l-.1.29c-.54.78-.3,1.95-.6,3-.17.63-.61,1.08-.79,1.65l-.2,1.26c-1.44,3.38-4.84,6.51-7.84,8.42-.4.25-.87.24-1.29.48-.39.23-.7.61-1.19.77l-1.69.29c-.25.1-.51.4-.79.48l-2.08.19c-1.57.44-3.14,1.24-5.16.87l-1.29.1-6.35-.1c-.71-.16-1.33-.47-1.89-.68-.93-.35-1.87-.19-2.88-.48-.44-.13-.8-.55-1.19-.68-.55-.18-1.04.05-1.49-.19l-.6-.68-1.29-.19c-.3-.13-.44-.51-.69-.68-.81-.53-1.62-.8-2.38-1.35-.41-.29-.65-.89-.99-1.26l-1.19-1.06c-1.2-1.57-2.5-3.64-3.18-5.61l-.3-1.94c-.25-.88-.56-1.94-.79-2.9-.26-1.05.12-2.45-.1-3.39l.1-3.97c-.31-1.38,0-3.89,0-5.61,0-4.08,0-7.62,0-11.61v-10.35c0-1.9-.15-4.21.2-5.81.34-.21.46-.3,1.09-.29.84.51,3.6-.16,4.56,0,1.21.2,3.36.25,4.56,0l4.56.1c1.13,0,2.01-.09,2.88.1l.4.77v4.06l.1,1.94c-.1.45-.22,1.43-.1,2.03.29,1.5,0,4.85,0,6.77v14.52c0,5.6-.46,10.9,4.37,12,1.56.35,3.1-.26,3.97-.58.42-.16.76-.07,1.09-.29.73-.48.94-1.34,1.39-2.13.11-.19.49-.39.6-.58.51-.95.2-5.79.2-7.35,0-10.72-.17-20.65.1-31.06.37-.22.6-.3,1.29-.29.82.49,2.5-.17,3.37,0,.93.18,2.28.1,3.37.1h9.53c.44.12.48.42,1.09.48Z"/>
  <path class="cls-1" d="M238.03,389.22c-.62.41-1.81.6-2.58.77l-1.69.1c-.59.21-3.01,2.12-3.37,2.61-.26.36-.33.8-.6,1.16-.15.2-.5.32-.6.58-.4,1.06-.31,5.52.1,6.48.62,1.46,1.73,2.48,2.58,3.68,3.17,4.45,8.19,7.12,11.51,11.42.34.43.89.78,1.19,1.26.31.48.34,1.11.69,1.55.2.24.55.36.69.68.65,1.47.6,4.55.1,6.19-.68,2.23-3.24,4.17-5.46,4.94l-1.89.19c-.5.12-1.12.37-1.59.48-.65.16-1.38-.1-1.79-.19-.57-.13-1.19.11-1.59.19-1.41.29-5.36-1.73-6.15-.19-.2.21-.21.44-.2.87.55.34,1.09.5,1.89.68h.79c.4.1.97.38,1.39.48,1.32.33,3.18.1,4.66.1h1.98c.51-.12,1.09-.44,1.59-.58.83-.24,1.78-.04,2.48-.39.28-.14.53-.52.79-.68,2.57-1.57,3.58-2.14,4.86-5.03.18-.4.57-.8.69-1.26v-1.55c.2-.92.27-1.99,0-3-.86-3.27-4.59-7.69-7.14-9.39l-.99-1.06c-.88-.84-1.79-1.69-2.68-2.52-.6-.56-1.32-1.05-1.98-1.55-.44-.33-.75-.91-1.09-1.35l-.79-.68c-.61-.79-1.31-1.63-1.89-2.42-.88-1.21-1.66-3.83-.99-5.9.11-.36.46-.65.6-.97.15-.34.08-.69.3-.97.17-.22.61-.27.79-.48.21-.24.32-.6.6-.77l.69-.19c.65-.32,1.08-.68,1.98-.87h1.59c.61-.13,1.35-.58,2.18-.39,1.06.25,2.66.46,3.77.19.18-.37.29-.56.3-1.16-.26-.28-.27-.53-.69-.68-.93-.7-3.51-.4-5.06-.39Z"/>
  <path class="cls-1" d="M77.5,389.31c-.28.27-.61.51-.89.77-.16,5.04,0,10.9,0,16.26,0,2.3.33,5.14-.1,7.26l.1.87c.05.98-.24,2.67-.1,3.39.06.32.21,1.07.1,1.55-.14.65-.15,1.65-.3,2.32v1.35c-.12.43-.53.78-.69,1.16-.21.49-.15.98-.4,1.45-.12.22-.45.39-.6.58-.9,1.24-.87,1.58-2.18,2.52l-.69.77c-.44.28-1.08.18-1.59.39-.38.15-.81.54-1.19.68-.71.26-1.45,0-2.28.19-1.01.24-2.51.89-3.97.58-1.13-.24-2.38-.45-3.37-.68l-1.89-.1c-.43-.13-.71-.52-1.09-.68l-1.49-.39-.69-.77c-.37-.25-.76-.31-1.09-.58-1-.82-1.47-2.53-2.18-3.68-.12-.19-.4-.45-.5-.68-.29-.68,0-1.47-.2-2.32-.28-1.25-.2-3.02-.2-4.55v-1.74c-.47-2.12,0-4.63,0-6.97,0-3.62.02-7.47-.1-10.94-.09-2.63.18-4.92-.1-7.35-.95-.65-1.26-.87-2.18,0,.03,7.61.07,15.23.1,22.84,0,5.54-.26,10.79,1.98,14.32,1.48,2.32,3.87,3.88,6.45,5.13l2.28.29c.5.18.94.58,1.59.68l1.29-.1c.8.12,2.18.16,2.98,0l2.08.1c.51-.12,1.04-.44,1.49-.58l1.98-.19c.32-.09,2.08-.77,2.38-.97l.79-.87c1.46-.97,2.82-2.04,3.77-3.48.3-.45.26-1.02.5-1.55.15-.33.56-.7.69-1.06l.2-1.74c1.19-3.93.69-10.21.69-15.19l-.1-17.71c-.22-.16-.2-.27-.5-.39-.2-.18-.38-.19-.79-.19Z"/>
  <path class="cls-1" d="M271.17,389.31c-.22.2-.37.17-.5.48-.51.58-.2,2.12-.2,3.19l-.1,8.23c.25,7.17,0,13.8,0,21.48,0,2.28-.32,5.07.1,7.16.09.45-.12,1.02-.2,1.35-.14.63.1,1.21.2,1.65.17.1.36.24.5.39.5.02.93.01,1.19-.19.91-.95,0-2.86.3-4.26.29-1.34.1-3.23.1-4.74v-9.29c0-1.17-.19-2.31,0-3.29,1.11-.61,1.49-.02,2.78-.19.38-.05,1.05-.14,1.59-.1l.99.1c1.78-.36,5.2-.1,7.74-.1h6.05l2.38.1c1.11-.24,2.96-.29,3.97-.19l.5.58c.03,3.63.1,7.63.1,11.42,0,1.87-.27,4.22.1,5.9.25,1.15-.53,3.38.3,4.06.43.35,1.11.12,1.59,0,.64-1.09.58-5.67.3-6.97l.1-2.42c-.09-.61-.12-2.01,0-2.61v-6.39c0-5.27-.1-10.63-.1-15.77,0-1.96,0-3.95,0-5.9,0-1.19.12-2.23-.1-3.19-.17-.1-.36-.24-.5-.39-.45,0-.86.03-1.19.1-.77,1.18-.5,3.79-.5,5.71v8.61c0,1.76.09,3.75-.2,5.23-.17.1-.36.24-.5.39-3.57-.03-7.14-.06-10.72-.1-2.09,0-4.41.33-6.05,0h-1.98c-2.12,0-4.78.25-6.45-.1-.1-.17-.12-.16-.2-.39-.2-.32-.11-1.16-.1-1.65.02-1.13.13-2.5.1-3.77-.05-2.59,0-5.73,0-8.61,0-1.97.09-3.75-.3-5.23-.36-.17-.52-.28-1.09-.29Z"/>
  <path class="cls-1" d="M420.1,389.31c-.24.24-.46.31-.6.68-.35.46-.2,2.24-.2,3.1v21.77c0,1.58,0,2.82,0,4.26v1.65c-.13.46-.47,1.02-.6,1.55l-.1,1.35c-1.31,3.44-3.42,5.81-7.04,6.97-.77.25-1.52.08-2.38.29-1.81.44-4.08.61-5.85.1-1.09-.32-2.36-.13-3.47-.48-2.77-.88-5.24-2.94-6.35-5.42-1.18-2.64-1.09-6.39-1.09-10.26v-22.26c0-1.02.09-2.27-.2-3-.12-.06-.21-.11-.3-.19l-.99.1c-.72,1.12-.5,3.23-.5,5.13v19.26c-.27,1.29,0,4.44.3,5.71v1.65c0,1.1.06,2.27.4,3.19.44,1.2,1.09,2.44,1.79,3.48,1.03,1.54,3.91,3.62,5.75,4.35l2.38.29c.36.13.81.47,1.19.58,1.07.3,2.07-.23,3.18,0,.72.15,1.96.39,2.88.19,4.59-.99,8.59-2.44,10.82-5.71.29-.42.19-.8.4-1.35.51-1.4,1.5-2.93,1.89-4.45v-23.9c0-2.66.19-5.64-.1-8.13l-.6-.48h-.6Z"/>
  <path class="cls-1" d="M27.09,389.41c-.64.38-4.21.1-5.26.1-2.74,0-5.16.1-8.04.1-1.07,0-2.47.21-3.37.1-.46-.06-.8-.18-1.29-.1-.11.17-.25.35-.4.48-.15,3.44,0,7.66,0,11.42,0,1.93-.28,4.35.1,6.1l-.2,3.29c.25,1.16.1,2.83.1,4.16v15.97c0,1.05-.09,2.62,1.19,2.32,1.28-.3.79-3.78.79-5.32,0-2.67,0-5.23,0-7.84,0-1.39-.19-3.39,0-4.45.21-1.18-.4-2.99.4-3.58.78-.57,2.24.14,3.37-.1.8-.17,3.22-.18,4.07,0l5.16-.1c1.19,0,2.68.28,3.67-.1,1.42-2.42-2.32-1.21-3.97-1.55-1.23-.25-3.9-.21-5.26.1-.95.21-2.46-.02-3.27-.19-.58-.12-1.56,0-1.98.1l-1.59-.1c-.96-1.44-.6-3.67-.6-6.1,0-4.44,0-8.08,0-12.19.38-.29.39-.55,1.09-.58.76-.45,2.83.21,3.87,0,3.37-.69,7.43.49,10.62-.19.73-.16,1.36.11,1.98,0,.21-.35.3-.54.3-1.16-.17-.12-.23-.26-.4-.39-.25-.2-.62-.2-1.09-.19Z"/>
  <path class="cls-1" d="M121.05,389.41c-.21.22-.47.47-.69.68-.11,1.61,0,3.81,0,5.71v17.32l.1,1.45c-.22,1.08-.1,2.63-.1,3.87v7.65c0,2.11-.33,4.95,0,6.48,1.36.84,2.81.1,4.66.48,1.34.28,3.25.1,4.76.1,1.8,0,4.04.23,5.66-.1l1.49.1c1.79.02,3.73.09,5.26-.19.2-.32.35-.46.4-.97-.11-.13-.15-.28-.2-.48-.29-.09-.46-.31-.69-.39-.05-.01-3.72-.04-3.87,0-.4.1-.89.45-1.59.29-1.04-.23-2.63-.19-3.97-.19-3.02,0-6.38.22-9.23-.1-.15-.24-.39-.57-.6-.77v-36c0-1.5.16-3.32-.1-4.65-.37-.21-.62-.3-1.29-.29Z"/>
  <path class="cls-1" d="M158.56,389.41c-.25.23-.46.21-.6.58-.38.55-.1,3.43-.1,4.55l-.1,11.32c0,8.2-.74,17.26,2.68,22.16l.79.68c.53.53.97,1.21,1.59,1.65.26.18.53.21.79.39.32.22.6.63.99.77l1.19.19c.42.17.73.64,1.19.77l1.49.1c.43.14.92.46,1.39.58,1.32.34,3.26.1,4.76.1h2.08c.44-.12.97-.45,1.39-.58l2.18-.39c.44-.18.94-.62,1.39-.77.48-.17.82-.05,1.19-.29.77-.5,1.35-1.4,2.08-1.94.78-.57,1.59-1.2,2.08-2.03l.3-1.45c.16-.38.57-.76.69-1.16.2-.64.03-1.13.3-1.65.16-.31.52-.64.6-1.06l-.1-.87c.71-3.21.3-7.48.3-11.32v-12.77c0-2.28.15-4.85-.1-6.97l-.69-.58-.99.1c-.61,1.03-.4,2.55-.4,4.26,0,2.52,0,4.2,0,6.87v9.77c0,1.55.23,3.56-.1,4.94-.18.73.08,1.74.2,2.32.14.72-.34,3.16-.5,3.77-.19.73.04,1.32-.2,1.94-.46,1.18-1.45,3.17-2.18,4.16-.96,1.29-3.49,2.7-5.26,3.19l-1.98.1c-1.04.28-2.93.97-4.56.58-.99-.23-2.33-.43-3.37-.68l-1.29-.1c-.45-.14-.75-.51-1.19-.68l-1.29-.29c-.36-.16-.52-.56-.79-.77-1.14-.9-2.37-1.7-2.98-3.1l-.2-.97c-.2-.47-.63-.91-.79-1.45-.69-2.26-.3-6.15-.3-8.9v-21.77c0-1.15.2-2.61-.5-3.1-.25-.2-.62-.2-1.09-.19Z"/>
  <g>
    <g>
      <path class="cls-10" d="M376.01,405.68c-.1-.77-.2-1.55-.3-2.32-.15-.47-.52-.94-.69-1.35-.13-.68-.26-1.35-.4-2.03-.39-.9-1.14-1.89-1.59-2.71-.13-.39-.26-.77-.4-1.16-2.51-3.71-5.54-7.33-9.33-9.77l-1.09-.39c-.24-.15-.45-.52-.69-.68-.79-.51-1.72-.62-2.58-1.06-.4-.2-.72-.65-1.09-.87-.38-.22-.83-.12-1.29-.29-.31-.12-.68-.47-.99-.58-1-.37-2.08-.12-3.18-.39-1.03-.25-2.01-.62-3.08-.87-.57-.13-1.33.04-1.79-.1-.94.57-3.8-.24-5.06.1-.96.25-2.09.63-3.08.87-.96.1-1.92.19-2.88.29-.56.17-1.05.68-1.59.87-.39.14-.68.01-.99.19-.23.13-.44.47-.69.58-.43.1-.86.19-1.29.29-.32.16-.58.59-.89.77-.87.51-1.85.62-2.68,1.16-1.11.73-2.36,1.76-3.18,2.81-.41.52-1.28.66-1.69,1.16-2.65,3.27-5.44,6.78-6.95,11.13-.1.55-.2,1.1-.3,1.65-.26.75-.67,1.6-.89,2.52-.03.97-.07,1.94-.1,2.9-.15.64-.14,1.87,0,2.52v2.03c0,1.49.03,2.93.3,4.06.03.48.07.97.1,1.45.11.27.49.51.6.77.1.61.2,1.23.3,1.84.31.99.93,1.95,1.39,2.81.32.6.34,1.26.69,1.84,2.29,3.76,5.77,7.85,9.43,10.26.37.24.81.25,1.19.48.76.46,1.58,1.24,2.38,1.65.46.1.93.19,1.39.29.3.12.6.53.89.68.63.13,1.26.26,1.89.39.33.12.63.47.99.58.6.06,1.19.13,1.79.19.72.21,1.37.69,2.08.87h3.57c1.11.24,5.35.28,6.45,0,.77-.2,1.47-.67,2.18-.87.56-.03,1.12-.06,1.69-.1.51-.13.87-.5,1.29-.68.69-.16,1.39-.32,2.08-.48.26-.11.47-.46.69-.58.36-.2.7-.13,1.09-.29.85-.36,1.7-1.1,2.48-1.55.33-.1.66-.19.99-.29,1.55-.91,2.78-2.75,4.17-3.77.98-.72,1.64-1.56,2.38-2.52.56-.72,1.38-1.35,1.89-2.13.24-.37.25-.8.5-1.16,3.22-4.7,5.95-13.58,3.87-21ZM368.48,413.9c-.09.32-.12.83-.21,1.16-.07.64.07,1.45,0,2.09-.18.57-.07,1.81-.3,2.31-.51,1.13-1.65,1.36-2.27,2.37-3.03,4.98-7.04,8.03-12.8,10.35-.53.21-1.03.03-1.69.19-.9.22-1.8.56-2.78.77-.96.21-5.55.12-6.35-.1-.4-.11-.8-.46-1.19-.58-.69-.2-1.49-.04-2.08-.29-.33-.14-.66-.54-.99-.68-.56-.13-1.12-.26-1.69-.39-1.33-.57-3.19-1.77-4.37-2.61-.43-.52-.86-1.03-1.29-1.55-2.39-1.74-3.86-3.95-5.16-6.77-.15-.33-.54-.63-.69-.97-.49-1.12-.45-2.18-.79-3.48-.09-.33-.31-.81-.4-1.16v-6.48c.38-1.66.53-3.4,1.19-4.84,2.52-5.45,6.41-9.73,12.1-12.1.53-.22.96-.78,1.49-.97,1.7-.6,4-.15,5.36-1.06h4.37c.83.26,2.22-.16,3.05.1.93.22,1.24.59,2.01.87.29.11.63.45.89.58,1.09.55,2.18.75,3.17,1.35,2.52,1.53,5.97,4.35,7.54,6.77.36.56.85,1.29,1.09,1.84.25.56.22,1.11.5,1.65.48.92,1.24,1.98,1.59,3,.07.71.13,1.42.2,2.13.33,1.47-.22,2.58.5,5.03.14.46,0,.97,0,1.45Z"/>
      <path class="cls-8" d="M376.01,405.68c-.1-.77-.2-1.55-.3-2.32-.15-.47-.52-.94-.69-1.35-.13-.68-.26-1.35-.4-2.03-.39-.9-1.14-1.89-1.59-2.71-.13-.39-.26-.77-.4-1.16-2.51-3.71-5.54-7.33-9.33-9.77l-1.09-.39c-.24-.15-.45-.52-.69-.68-.79-.51-1.72-.62-2.58-1.06-.4-.2-.72-.65-1.09-.87-.38-.22-.83-.12-1.29-.29-.31-.12-.68-.47-.99-.58-1-.37-2.08-.12-3.18-.39-1.03-.25-2.01-.62-3.08-.87-.57-.13-1.33.04-1.79-.1-.94.57-3.8-.24-5.06.1-.96.25-2.09.63-3.08.87-.96.1-1.92.19-2.88.29-.56.17-1.05.68-1.59.87-.39.14-.68.01-.99.19-.23.13-.44.47-.69.58-.43.1-.86.19-1.29.29-.32.16-.58.59-.89.77-.87.51-1.85.62-2.68,1.16-1.11.73-2.36,1.76-3.18,2.81-.41.52-1.28.66-1.69,1.16-2.65,3.27-5.44,6.78-6.95,11.13-.1.55-.2,1.1-.3,1.65-.26.75-.67,1.6-.89,2.52-.03.97-.07,1.94-.1,2.9-.15.64-.14,1.87,0,2.52v2.03c0,1.49.03,2.93.3,4.06.03.48.07.97.1,1.45.11.27.49.51.6.77.1.61.2,1.23.3,1.84.31.99.93,1.95,1.39,2.81.32.6.34,1.26.69,1.84,2.29,3.76,5.77,7.85,9.43,10.26.37.24.81.25,1.19.48.76.46,1.58,1.24,2.38,1.65.46.1.93.19,1.39.29.3.12.6.53.89.68.63.13,1.26.26,1.89.39.33.12.63.47.99.58.6.06,1.19.13,1.79.19.72.21,1.37.69,2.08.87h3.57c1.11.24,5.35.28,6.45,0,.77-.2,1.47-.67,2.18-.87.56-.03,1.12-.06,1.69-.1.51-.13.87-.5,1.29-.68.69-.16,1.39-.32,2.08-.48.26-.11.47-.46.69-.58.36-.2.7-.13,1.09-.29.85-.36,1.7-1.1,2.48-1.55.33-.1.66-.19.99-.29,1.55-.91,2.78-2.75,4.17-3.77.98-.72,1.64-1.56,2.38-2.52.56-.72,1.38-1.35,1.89-2.13.24-.37.25-.8.5-1.16,3.22-4.7,5.95-13.58,3.87-21ZM368.48,413.9c-.09.32-.12.83-.21,1.16-.07.64.07,1.45,0,2.09-.18.57-.07,1.81-.3,2.31-.51,1.13-1.65,1.36-2.27,2.37-3.03,4.98-7.04,8.03-12.8,10.35-.53.21-1.03.03-1.69.19-.9.22-1.8.56-2.78.77-.96.21-5.55.12-6.35-.1-.4-.11-.8-.46-1.19-.58-.69-.2-1.49-.04-2.08-.29-.33-.14-.66-.54-.99-.68-.56-.13-1.12-.26-1.69-.39-1.33-.57-3.19-1.77-4.37-2.61-.43-.52-.86-1.03-1.29-1.55-2.39-1.74-3.86-3.95-5.16-6.77-.15-.33-.54-.63-.69-.97-.49-1.12-.45-2.18-.79-3.48-.09-.33-.31-.81-.4-1.16v-6.48c.38-1.66.53-3.4,1.19-4.84,2.52-5.45,6.41-9.73,12.1-12.1.53-.22.96-.78,1.49-.97,1.7-.6,4-.15,5.36-1.06h4.37c.83.26,2.22-.16,3.05.1.93.22,1.24.59,2.01.87.29.11.63.45.89.58,1.09.55,2.18.75,3.17,1.35,2.52,1.53,5.97,4.35,7.54,6.77.36.56.85,1.29,1.09,1.84.25.56.22,1.11.5,1.65.48.92,1.24,1.98,1.59,3,.07.71.13,1.42.2,2.13.33,1.47-.22,2.58.5,5.03.14.46,0,.97,0,1.45Z"/>
    </g>
    <g>
      <path class="cls-10" d="M364.04,401.36c-.14-.23-.54-.44-.69-.68-1.88-2.88-4.14-5.01-7.04-6.87l-1.19-.39c-.34-.2-.6-.61-.99-.77-.5-.21-1.03-.12-1.59-.29-2.13-.67-4.71-1.11-7.64-1.06-.75.48-2.05.07-3.08.29-1.23.27-2.61.49-3.77.97-3.76,1.57-7.37,4.86-9.53,8.03-.61.9-.83,1.81-1.39,2.81-.1.18-.4.36-.5.58-.4.91-.21,1.95-.5,3-.29,1.06-1.24,4.12-.79,5.71.09.33.41.75.5,1.06.39,1.37.07,3.11.6,4.35.17.42.62.83.79,1.26.07.29.13.58.2.87.15.23.54.44.69.68.48.72.69,1.47,1.19,2.13.43.56,1.15.99,1.59,1.55.45.58.89,1.31,1.49,1.74.47.34,1.01.53,1.49.87.58.41,1.06,1.09,1.69,1.45.98.57,1.96.7,3.08,1.16.44.18.94.62,1.39.77.66.03,1.32.06,1.98.1.64.15,1.37.43,1.98.58.42.1,1.12-.04,1.39-.1.76-.16,1.79.17,2.38.1,5.95-.76,10.49-3.12,13.39-6.87.86-1.1,2.01-1.97,2.78-3.19.31-.5.25-1.05.5-1.65.16-.39.63-.75.79-1.16,1.7-4.39,1.48-11.77-.69-15.39-.17-.55-.33-1.1-.5-1.65ZM335.26,418.43c-2.37-3.28-2.78-7.62-1.31-11.31,1.7-4.48,6.07-7.93,10.96-8.21h.06c6.36-.62,12.57,4.34,13.4,10.61,1.69,12.65-15.67,19.69-23.11,8.91Z"/>
      <path class="cls-8" d="M364.04,401.36c-.14-.23-.54-.44-.69-.68-1.88-2.88-4.14-5.01-7.04-6.87l-1.19-.39c-.34-.2-.6-.61-.99-.77-.5-.21-1.03-.12-1.59-.29-2.13-.67-4.71-1.11-7.64-1.06-.75.48-2.05.07-3.08.29-1.23.27-2.61.49-3.77.97-3.76,1.57-7.37,4.86-9.53,8.03-.61.9-.83,1.81-1.39,2.81-.1.18-.4.36-.5.58-.4.91-.21,1.95-.5,3-.29,1.06-1.24,4.12-.79,5.71.09.33.41.75.5,1.06.39,1.37.07,3.11.6,4.35.17.42.62.83.79,1.26.07.29.13.58.2.87.15.23.54.44.69.68.48.72.69,1.47,1.19,2.13.43.56,1.15.99,1.59,1.55.45.58.89,1.31,1.49,1.74.47.34,1.01.53,1.49.87.58.41,1.06,1.09,1.69,1.45.98.57,1.96.7,3.08,1.16.44.18.94.62,1.39.77.66.03,1.32.06,1.98.1.64.15,1.37.43,1.98.58.42.1,1.12-.04,1.39-.1.76-.16,1.79.17,2.38.1,5.95-.76,10.49-3.12,13.39-6.87.86-1.1,2.01-1.97,2.78-3.19.31-.5.25-1.05.5-1.65.16-.39.63-.75.79-1.16,1.7-4.39,1.48-11.77-.69-15.39-.17-.55-.33-1.1-.5-1.65ZM335.26,418.43c-2.37-3.28-2.78-7.62-1.31-11.31,1.7-4.48,6.07-7.93,10.96-8.21h.06c6.36-.62,12.57,4.34,13.4,10.61,1.69,12.65-15.67,19.69-23.11,8.91Z"/>
    </g>
  </g>
  <line class="cls-7" x1="337.99" y1="391.29" x2="331.63" y2="395.19"/>
  <line class="cls-7" x1="326.38" y1="399.86" x2="326.38" y2="399.86"/>
  <g>
    <path class="cls-9" d="M368.27,413.9c-.09.32-.4.74-.5,1.06-.07.64-.13,1.29-.2,1.94-.18.57-.67,1.14-.89,1.65-.51,1.13-.57,2.28-1.19,3.29-3.03,4.98-7.04,8.03-12.8,10.35-.53.21-1.03.03-1.69.19-.9.22-1.8.56-2.78.77-.96.21-5.55.12-6.35-.1-.4-.11-.8-.46-1.19-.58-.69-.2-1.49-.04-2.08-.29-.33-.14-.66-.54-.99-.68l-1.69-.39c-1.33-.57-3.19-1.77-4.37-2.61-.43-.52-.86-1.03-1.29-1.55-2.39-1.74-3.86-3.95-5.16-6.77-.15-.33-.54-.63-.69-.97-.49-1.12-.45-2.18-.79-3.48-.09-.33-.31-.81-.4-1.16v-6.48c.38-1.66.53-3.4,1.19-4.84,2.52-5.45,6.41-9.73,12.1-12.1.53-.22.96-.78,1.49-.97,1.7-.6,4-.15,5.36-1.06h4.37c.83.26,1.65.52,2.48.77.93.22,1.81-.09,2.58.19.29.11.63.45.89.58,1.09.55,2.18.75,3.17,1.35,2.52,1.53,5.97,4.35,7.54,6.77.36.56.85,1.29,1.09,1.84.25.56.22,1.11.5,1.65.48.92,1.24,1.98,1.59,3,.07.71.13,1.42.2,2.13.35,1.48.5,3.06.5,5.03v1.45Z"/>
    <path class="cls-6" d="M368.48,405.62c-.34-1.02-.9-2.2-1.51-3.33-.29-.53-.38-1.2-.63-1.76-.24-.55-.85-1.45-1.21-2.01-1.57-2.42-4.38-5.48-7.49-6.85-.92-.4-1.39-.66-2.48-1.21-.26-.13-.55-.25-.94-.33-.8-.17-.21-.36-1.93-.81-1.24-.54-2.44-.53-3.96-.86-1.53-.05-3.56,0-4.95.34-.85,0-3.69.13-5.34,1.16-.47.29-1.67.66-2.2.88-5.7,2.37-8.69,6.97-11.22,12.42-.67,1.44-.81,3.18-1.19,4.84v6.48c.08.35.31.83.4,1.16.34,1.31.3,2.36.79,3.48.15.34.54.64.69.97,1.3,2.83,2.77,5.03,5.16,6.77.43.52.86,1.03,1.29,1.55,1.18.84,3.03,2.04,4.37,2.61l1.69.39c.33.14.66.54.99.68.6.26,1.39.09,2.08.29.39.12.79.47,1.19.58.8.22,5.39.31,6.35.1.98-.21,1.88-.56,2.78-.77.66-.16,1.16.02,1.69-.19,5.76-2.32,10.86-4.57,13.53-9.75.5-.96.91-1.07,1.27-2.17.18-.54,1.17-1.82.88-2.5-.19.51.46-1.24.36-1.79.26-.06.22-1.43.06-1.68q.18-1.82.13-2.31c-.21-1.84,0-2.84-.36-4.32-.07-.71-.21-1.33-.28-2.04ZM365.39,418.3c-.16.41-.63.77-.79,1.16-.25.59-.18,1.15-.5,1.65-.77,1.22-1.92,2.09-2.78,3.19-2.91,3.75-7.44,6.11-13.39,6.87-.59.08-1.62-.25-2.38-.1-.27.06-.85.11-1.39.1-.63-.01-1.35-.43-1.98-.58-.66-.03-1.32-.06-1.98-.1-.45-.16-.95-.59-1.39-.77-1.12-.46-2.1-.59-3.08-1.16-.62-.36-1.11-1.04-1.69-1.45-.47-.34-1.02-.53-1.49-.87-.59-.43-1.04-1.16-1.49-1.74-.43-.56-1.16-.99-1.59-1.55-.5-.66-.71-1.41-1.19-2.13-.16-.24-.3-.47-.46-.7-.07-.29-.28-.62-.44-.84-.17-.43-.31-.82-.44-1.27-.69-2.26-.34-3-.74-4.29-.1-.32-.18-.53-.17-1.04.02-1.96-.02-4.72.27-5.78.29-1.05.1-2.09.5-3,.09-.22.4-.4.5-.58.56-.99.78-1.91,1.39-2.81,2.16-3.18,5.76-6.46,9.53-8.03,1.16-.48,2.54-.7,3.77-.97,1.02-.23,2.32.19,3.08-.29,2.93-.05,5.51.39,7.64,1.06.55.18.99.29,1.49.5.39.16.75.36,1.09.56.4.13.79.26,1.19.39,2.9,1.86,5.17,3.99,7.04,6.87.16.24.39.54.53.77.17.55.5,1,.66,1.55,2.18,3.62,2.4,11,.69,15.39Z"/>
    <path class="cls-9" d="M363.99,401.26c-.14-.23-.54-.44-.69-.68-1.88-2.88-4.14-5.01-7.04-6.87-.4-.13-.79-.26-1.19-.39-.34-.2-.6-.61-.99-.77-.5-.21-1.03-.12-1.59-.29-2.13-.67-4.71-1.11-7.64-1.06-.75.48-2.05.07-3.08.29-1.23.27-2.61.49-3.77.97-3.76,1.57-7.37,4.86-9.53,8.03-.61.9-.83,1.81-1.39,2.81-.1.18-.4.36-.5.58-.4.91-.21,1.95-.5,3-.29,1.06-.49,3.9-.05,5.5.09.33.12,1.06.17,1.53.21,2.16.5,2.78.78,4.28.32,1.69,1.33,2.07.19,1.08.07.29.13.58.2.87.15.23.54.44.69.68.48.72.69,1.47,1.19,2.13.43.56,1.15.99,1.59,1.55.45.58.89,1.31,1.49,1.74.47.34,1.01.53,1.49.87.58.41,1.06,1.09,1.69,1.45.98.57,1.96.7,3.08,1.16.44.18.94.62,1.39.77.66.03,1.32.06,1.98.1.64.15,1.37.43,1.98.58.42.1,1.12-.04,1.39-.1.76-.16,1.79.17,2.38.1,5.95-.76,10.49-3.12,13.39-6.87.86-1.1,2.64-4.63,2.78-3.19.03.27-.51-1.22.17-1.26.7-.04,1.03-1.08,1.12-1.55.9-4.62,1.48-11.77-.69-15.39-.17-.55-.33-1.1-.5-1.65Z"/>
  </g>
  <line class="cls-7" x1="339.18" y1="373.75" x2="332.82" y2="377.65"/>
  <line class="cls-7" x1="327.57" y1="382.31" x2="327.57" y2="382.32"/>
</svg>